<svg width="21" height="21" viewBox="0 0 21 21" fill="none" xmlns="http://www.w3.org/2000/svg">
<path d="M11 3.625C11 3.32663 10.8815 3.04048 10.6705 2.82951C10.4595 2.61853 10.1734 2.5 9.875 2.5C9.57663 2.5 9.29048 2.61853 9.0795 2.8295C8.86853 3.04048 8.75 3.32663 8.75 3.625V8.75H3.625C3.32663 8.75 3.04048 8.86853 2.82951 9.0795C2.61853 9.29048 2.5 9.57663 2.5 9.875C2.5 10.1734 2.61853 10.4595 2.8295 10.6705C3.04048 10.8815 3.32663 11 3.625 11H8.75V16.125C8.75 16.4234 8.86853 16.7095 9.0795 16.9205C9.29048 17.1315 9.57663 17.25 9.875 17.25C10.1734 17.25 10.4595 17.1315 10.6705 16.9205C10.8815 16.7095 11 16.4234 11 16.125V11H16.125C16.4234 11 16.7095 10.8815 16.9205 10.6705C17.1315 10.4595 17.25 10.1734 17.25 9.875C17.25 9.57663 17.1315 9.29048 16.9205 9.0795C16.7095 8.86853 16.4234 8.75 16.125 8.75H11V3.625Z" fill="#F1F8FA" stroke="#F1F8FA"/>
</svg>
