<svg width="64" height="65" viewBox="0 0 64 65" fill="none" xmlns="http://www.w3.org/2000/svg">
<path d="M47.9302 39.36C48.1464 39.3953 48.3681 39.3586 48.5614 39.2556C48.7547 39.1527 48.9089 38.9891 49.0002 38.79C49.0921 38.5853 49.1124 38.3557 49.058 38.1381C49.0036 37.9204 48.8776 37.7274 48.7002 37.59C46.3502 35.74 45.2902 34.46 45.3602 33.59C45.4602 32.38 47.7602 30.96 49.4802 29.99C49.6537 29.8921 49.7939 29.7446 49.883 29.5664C49.9721 29.3882 50.0059 29.1875 49.9802 28.99C49.9508 28.79 49.8614 28.6037 49.724 28.4555C49.5865 28.3074 49.4074 28.2043 49.2102 28.16C47.144 27.7195 45.1095 27.1415 43.1202 26.43L43.8502 25.32C44.0091 25.0745 44.0986 24.7905 44.1092 24.4983C44.1197 24.206 44.051 23.9163 43.9102 23.66C43.77 23.4046 43.5627 23.1922 43.3107 23.046C43.0587 22.8997 42.7715 22.825 42.4802 22.83L37.9002 22.89L43.0702 15.44C43.2411 15.2009 43.342 14.9189 43.3614 14.6257C43.3808 14.3324 43.3181 14.0396 43.1802 13.78C43.0445 13.5178 42.8394 13.298 42.5872 13.1446C42.335 12.9911 42.0454 12.91 41.7502 12.91H31.8902C31.5537 12.9115 31.226 13.0184 30.9534 13.2157C30.6808 13.413 30.4768 13.6908 30.3702 14.01L27.3002 23.33C25.7134 23.2804 24.1581 22.8737 22.7502 22.14C22.5743 22.0595 22.3788 22.0317 22.1874 22.06C21.996 22.0884 21.8169 22.1716 21.6719 22.2997C21.5269 22.4278 21.4222 22.5952 21.3704 22.7816C21.3186 22.968 21.322 23.1655 21.3802 23.35C22.9902 28.63 23.5402 31.35 18.3802 35.1C18.2065 35.2255 18.0776 35.4036 18.0127 35.6078C17.9479 35.8121 17.9503 36.0319 18.0198 36.2347C18.0892 36.4374 18.222 36.6125 18.3985 36.7341C18.5751 36.8557 18.786 36.9174 19.0002 36.91C20.4002 36.91 24.1402 37.01 24.6602 37.97C24.8702 38.36 24.7802 39.37 23.1702 41.97C23.0578 42.1473 23.0041 42.3556 23.0167 42.5651C23.0293 42.7747 23.1075 42.975 23.2402 43.1376C23.373 43.3003 23.5536 43.417 23.7564 43.4713C23.9592 43.5255 24.174 43.5146 24.3702 43.44C30.5302 41.12 32.4702 42.09 36.9202 47.16C37.0582 47.3177 37.2423 47.4281 37.4464 47.4755C37.6505 47.523 37.8644 47.5051 38.0578 47.4244C38.2512 47.3437 38.4143 47.2043 38.5242 47.0259C38.6341 46.8475 38.6852 46.639 38.6702 46.43C38.4902 43.97 39.1202 42.02 40.4902 40.77C42.0702 39.32 44.7202 38.81 47.9302 39.36ZM32.1802 14.87H41.0002L35.8302 22.33C35.658 22.5726 35.5574 22.8587 35.5397 23.1557C35.522 23.4527 35.588 23.7487 35.7302 24.01C35.8688 24.2734 36.0777 24.4931 36.3336 24.645C36.5896 24.7968 36.8826 24.8747 37.1802 24.87L41.7702 24.8L34.7702 35.5L35.0002 29.5C35.0097 29.2854 34.9756 29.071 34.9 28.87C34.8244 28.6689 34.7088 28.4852 34.5602 28.33C34.4094 28.175 34.229 28.0518 34.0298 27.9677C33.8305 27.8835 33.6165 27.8401 33.4002 27.84H27.9202L32.1802 14.87ZM36.7302 44.02C33.3502 40.59 30.7302 39.51 26.0902 40.76C26.8302 39.12 26.9102 37.96 26.3902 37.01C25.7102 35.75 24.1002 35.24 21.6102 35.01C24.9502 31.76 24.9102 28.69 23.8602 24.71C24.7623 25.0193 25.6996 25.2141 26.6502 25.29L25.8502 27.73C25.771 27.9725 25.7505 28.2304 25.7905 28.4823C25.8305 28.7343 25.9297 28.9731 26.0801 29.1792C26.2305 29.3853 26.4277 29.5526 26.6555 29.6675C26.8833 29.7824 27.1351 29.8415 27.3902 29.84H33.0002L32.7402 36.84C32.7277 37.1896 32.8301 37.5337 33.0317 37.8195C33.2333 38.1054 33.5231 38.3173 33.8566 38.4228C34.1902 38.5283 34.5491 38.5216 34.8784 38.4037C35.2078 38.2858 35.4894 38.0632 35.6802 37.77L42.0002 28.09C43.4394 28.6515 44.9123 29.1224 46.4102 29.5C44.6302 30.7 43.5002 31.92 43.4102 33.4C43.4294 34.1151 43.5997 34.8181 43.9099 35.4626C44.2202 36.1072 44.6633 36.6789 45.2102 37.14C42.9953 37.0916 40.8394 37.8565 39.1502 39.29C37.8114 40.5323 36.9543 42.2074 36.7302 44.02Z" fill="#9B1AD6"/>
<path d="M25.11 12.95C25.1629 13.077 25.2414 13.1916 25.3406 13.2869C25.4398 13.3821 25.5575 13.4559 25.6865 13.5036C25.8155 13.5512 25.9529 13.5718 26.0902 13.564C26.2275 13.5561 26.3617 13.52 26.4844 13.458C26.6071 13.3959 26.7157 13.3093 26.8034 13.2033C26.8911 13.0974 26.9561 12.9746 26.9941 12.8424C27.0322 12.7103 27.0426 12.5717 27.0247 12.4354C27.0068 12.299 26.9609 12.1678 26.89 12.05L24.89 8.05C24.7599 7.83366 24.5527 7.67456 24.31 7.60466C24.0674 7.53477 23.8073 7.55924 23.582 7.67317C23.3567 7.7871 23.1828 7.98206 23.0952 8.21889C23.0077 8.45573 23.013 8.71691 23.11 8.95L25.11 12.95Z" fill="#9B1AD6"/>
<path d="M18.5501 14.39L22.5501 16.39C22.7832 16.4871 23.0444 16.4924 23.2813 16.4048C23.5181 16.3173 23.7131 16.1434 23.827 15.9181C23.9409 15.6927 23.9654 15.4326 23.8955 15.19C23.8256 14.9474 23.6665 14.7402 23.4501 14.61L19.4501 12.61C19.3323 12.5391 19.2011 12.4933 19.0648 12.4754C18.9285 12.4575 18.7899 12.4679 18.6577 12.5059C18.5256 12.544 18.4027 12.6089 18.2968 12.6966C18.1909 12.7843 18.1042 12.8929 18.0422 13.0156C17.9801 13.1383 17.944 13.2725 17.9362 13.4098C17.9284 13.5471 17.9489 13.6845 17.9966 13.8135C18.0443 13.9425 18.118 14.0603 18.2133 14.1595C18.3085 14.2587 18.4232 14.3371 18.5501 14.39Z" fill="#9B1AD6"/>
<path d="M42.6799 11.5C42.8109 11.5494 42.9507 11.5708 43.0904 11.5628C43.2302 11.5548 43.3667 11.5175 43.4911 11.4534C43.6155 11.3893 43.7251 11.2998 43.8127 11.1907C43.9004 11.0816 43.9642 10.9553 43.9999 10.82L44.9999 7.82001C45.0419 7.69525 45.059 7.56344 45.0501 7.4321C45.0412 7.30076 45.0065 7.17246 44.9479 7.05453C44.8894 6.9366 44.8083 6.83134 44.7091 6.74478C44.6099 6.65821 44.4947 6.59203 44.3699 6.55001C44.2452 6.50798 44.1134 6.49094 43.982 6.49986C43.8507 6.50878 43.7224 6.54348 43.6044 6.60198C43.4865 6.66048 43.3813 6.74164 43.2947 6.84082C43.2081 6.93999 43.1419 7.05525 43.0999 7.18001L42.0999 10.18C42.0486 10.3045 42.0229 10.438 42.0245 10.5727C42.026 10.7073 42.0547 10.8402 42.1089 10.9635C42.1631 11.0868 42.2415 11.1978 42.3397 11.29C42.4378 11.3822 42.5535 11.4536 42.6799 11.5Z" fill="#9B1AD6"/>
<path d="M48.6795 11.55L45.6795 12.55C45.4276 12.6349 45.2196 12.8164 45.1015 13.0545C44.9833 13.2927 44.9646 13.5681 45.0495 13.82C45.1344 14.072 45.3159 14.2799 45.554 14.398C45.7922 14.5162 46.0676 14.5349 46.3195 14.45L49.3195 13.45C49.5715 13.3651 49.7794 13.1837 49.8975 12.9455C50.0157 12.7073 50.0344 12.432 49.9495 12.18C49.8646 11.9281 49.6832 11.7201 49.445 11.602C49.2068 11.4838 48.9315 11.4651 48.6795 11.55Z" fill="#9B1AD6"/>
<path d="M26.0003 46.18C25.9583 46.0553 25.8921 45.94 25.8055 45.8408C25.719 45.7416 25.6137 45.6605 25.4958 45.602C25.3778 45.5435 25.2495 45.5088 25.1182 45.4999C24.9869 45.4909 24.8551 45.508 24.7303 45.55C24.6055 45.592 24.4903 45.6582 24.3911 45.7448C24.2919 45.8313 24.2108 45.9366 24.1523 46.0545C24.0938 46.1725 24.0591 46.3008 24.0502 46.4321C24.0412 46.5634 24.0583 46.6953 24.1003 46.82L25.1003 49.82C25.1423 49.9448 25.2085 50.06 25.2951 50.1592C25.3816 50.2584 25.4869 50.3395 25.6048 50.398C25.7228 50.4565 25.851 50.4912 25.9824 50.5002C26.1137 50.5091 26.2455 50.492 26.3703 50.45C26.4951 50.408 26.6103 50.3418 26.7095 50.2552C26.8087 50.1687 26.8898 50.0634 26.9483 49.9455C27.0068 49.8276 27.0415 49.6993 27.0504 49.5679C27.0594 49.4366 27.0423 49.3048 27.0003 49.18L26.0003 46.18Z" fill="#9B1AD6"/>
<path d="M20.1704 44.95L18.1704 47.95C18.0832 48.0584 18.0195 48.1837 17.9834 48.3181C17.9473 48.4525 17.9397 48.5929 17.961 48.7304C17.9823 48.8679 18.0321 48.9995 18.1071 49.1167C18.1822 49.2338 18.2809 49.334 18.3968 49.4109C18.5128 49.4878 18.6436 49.5396 18.7807 49.563C18.9179 49.5865 19.0584 49.581 19.1933 49.547C19.3283 49.5131 19.4546 49.4513 19.5643 49.3657C19.674 49.2802 19.7647 49.1726 19.8304 49.05L21.8304 46.05C21.9482 45.8304 21.9798 45.5748 21.919 45.3332C21.8581 45.0916 21.7093 44.8813 21.5016 44.7437C21.2939 44.6061 21.0423 44.5509 20.7961 44.5891C20.5499 44.6273 20.3267 44.756 20.1704 44.95Z" fill="#9B1AD6"/>
<path d="M44.0003 46.18C43.9583 46.0553 43.8921 45.94 43.8055 45.8408C43.719 45.7416 43.6137 45.6605 43.4958 45.602C43.3778 45.5435 43.2495 45.5088 43.1182 45.4999C42.9869 45.4909 42.8551 45.508 42.7303 45.55C42.6055 45.592 42.4903 45.6582 42.3911 45.7448C42.2919 45.8313 42.2108 45.9366 42.1523 46.0545C42.0938 46.1725 42.0591 46.3008 42.0502 46.4321C42.0412 46.5634 42.0583 46.6953 42.1003 46.82L43.1003 49.82C43.1423 49.9448 43.2085 50.06 43.2951 50.1592C43.3816 50.2584 43.4869 50.3395 43.6048 50.398C43.7228 50.4565 43.8511 50.4912 43.9824 50.5002C44.1137 50.5091 44.2455 50.492 44.3703 50.45C44.4951 50.408 44.6103 50.3418 44.7095 50.2552C44.8087 50.1687 44.8898 50.0634 44.9483 49.9455C45.0068 49.8276 45.0415 49.6993 45.0504 49.5679C45.0594 49.4366 45.0423 49.3048 45.0003 49.18L44.0003 46.18Z" fill="#9B1AD6"/>
<path d="M49.5097 44.64L46.9997 43.14C46.7741 43.038 46.5188 43.0234 46.283 43.0989C46.0472 43.1744 45.8478 43.3346 45.7234 43.5486C45.599 43.7627 45.5583 44.0152 45.6094 44.2575C45.6604 44.4997 45.7995 44.7144 45.9997 44.86L48.4997 46.36C48.6129 46.4423 48.7421 46.4999 48.8789 46.5292C49.0157 46.5584 49.1572 46.5586 49.2941 46.5298C49.431 46.5009 49.5603 46.4436 49.6737 46.3617C49.7871 46.2797 49.8821 46.1748 49.9524 46.0539C50.0227 45.9329 50.0669 45.7985 50.082 45.6594C50.0972 45.5203 50.0829 45.3796 50.0403 45.2463C49.9976 45.1131 49.9275 44.9903 49.8343 44.8858C49.7412 44.7814 49.6272 44.6976 49.4997 44.64H49.5097Z" fill="#9B1AD6"/>
<path d="M49 2.5H15C13.6739 2.5 12.4021 3.02678 11.4645 3.96447C10.5268 4.90215 10 6.17392 10 7.5V57.5C10 58.8261 10.5268 60.0979 11.4645 61.0355C12.4021 61.9732 13.6739 62.5 15 62.5H51C51.7957 62.5 52.5587 62.1839 53.1213 61.6213C53.6839 61.0587 54 60.2957 54 59.5V7.5C54 6.17392 53.4732 4.90215 52.5355 3.96447C51.5979 3.02678 50.3261 2.5 49 2.5ZM51 60.5H15C14.2044 60.5 13.4413 60.1839 12.8787 59.6213C12.3161 59.0587 12 58.2957 12 57.5C12 56.7043 12.3161 55.9413 12.8787 55.3787C13.4413 54.8161 14.2044 54.5 15 54.5H49C50.0819 54.5 51.1345 54.1491 52 53.5V56.5H18C17.7348 56.5 17.4804 56.6054 17.2929 56.7929C17.1054 56.9804 17 57.2348 17 57.5C17 57.7652 17.1054 58.0196 17.2929 58.2071C17.4804 58.3946 17.7348 58.5 18 58.5H52V59.5C52 59.7652 51.8946 60.0196 51.7071 60.2071C51.5196 60.3946 51.2652 60.5 51 60.5ZM49 52.5H16V28.5C16 28.2348 15.8946 27.9804 15.7071 27.7929C15.5196 27.6054 15.2652 27.5 15 27.5C14.7348 27.5 14.4804 27.6054 14.2929 27.7929C14.1054 27.9804 14 28.2348 14 28.5V52.6C13.2733 52.743 12.589 53.0509 12 53.5V7.5C12.0017 6.88106 12.1949 6.2778 12.5529 5.77293C12.911 5.26807 13.4165 4.88631 14 4.68V20.5C14 20.7652 14.1054 21.0196 14.2929 21.2071C14.4804 21.3946 14.7348 21.5 15 21.5C15.2652 21.5 15.5196 21.3946 15.7071 21.2071C15.8946 21.0196 16 20.7652 16 20.5V4.5H49C49.7957 4.5 50.5587 4.81607 51.1213 5.37868C51.6839 5.94129 52 6.70435 52 7.5V49.5C52 50.2957 51.6839 51.0587 51.1213 51.6213C50.5587 52.1839 49.7957 52.5 49 52.5Z" fill="#9B1AD6"/>
<path d="M15 25.5C15.5523 25.5 16 25.0523 16 24.5C16 23.9477 15.5523 23.5 15 23.5C14.4477 23.5 14 23.9477 14 24.5C14 25.0523 14.4477 25.5 15 25.5Z" fill="#9B1AD6"/>
</svg>
