<svg width="24" height="24" viewBox="0 0 24 24" fill="none" xmlns="http://www.w3.org/2000/svg">
<path d="M5.95 16.0337C6.91067 16.0337 7.84457 16.1423 8.7517 16.3595C9.14019 16.4526 9.52727 16.5708 9.91293 16.7143C10.6265 16.9798 11.45 16.4908 11.45 15.7295V7.28618C11.45 6.961 11.2939 6.65276 11.0175 6.48149C10.3413 6.0625 9.61057 5.73787 8.8254 5.5076C7.8684 5.2281 6.90993 5.08834 5.95 5.08834C5.2196 5.08834 4.52183 5.14808 3.8567 5.26756C3.41224 5.3474 3.0033 5.46345 2.62989 5.61572C2.2939 5.75274 2.1 6.09426 2.1 6.45712V15.2193C2.1 15.9348 2.84014 16.4375 3.54009 16.2891C3.66234 16.2632 3.78768 16.2389 3.9161 16.2161C4.61203 16.093 5.29 16.0326 5.95 16.0348M12.55 15.733C12.55 16.4938 13.3723 16.9827 14.0853 16.7171C14.4715 16.5733 14.8592 16.4544 15.2483 16.3606C16.1554 16.1419 17.0893 16.0333 18.05 16.0348C18.71 16.0348 19.388 16.0959 20.0839 16.2183C20.2123 16.2409 20.3375 16.2651 20.4597 16.2909C21.1598 16.4387 21.9 15.9359 21.9 15.2204V6.45712C21.9 6.09426 21.7061 5.75274 21.3701 5.61572C20.9967 5.46345 20.5878 5.3474 20.1433 5.26756C19.4782 5.14808 18.7804 5.08834 18.05 5.08834C17.0893 5.08834 16.1312 5.2281 15.1757 5.5076C14.3899 5.73787 13.6589 6.06251 12.9825 6.4815C12.7061 6.65276 12.55 6.961 12.55 7.28618V15.733ZM12.5707 18.6382C12.2194 18.8463 11.7804 18.8466 11.4289 18.6388C10.6998 18.2077 9.92954 17.864 9.118 17.6075C8.09133 17.2831 7.03533 17.1209 5.95 17.1209C5.04873 17.1209 4.1614 17.2458 3.288 17.4957C3.06192 17.5607 2.84323 17.6312 2.63192 17.7071C1.89079 17.9733 1 17.4642 1 16.6767V5.76987C1 5.41967 1.1809 5.09002 1.49555 4.9363C2.00867 4.68562 2.59148 4.48069 3.244 4.32151C4.11593 4.10717 5.01793 4 5.95 4C7.028 4 8.07887 4.15315 9.1026 4.45945C9.92273 4.70506 10.7049 5.03941 11.449 5.46251C11.7901 5.65647 12.21 5.65655 12.5512 5.46269C13.2957 5.03964 14.0778 4.70559 14.8974 4.46054C15.9219 4.15424 16.9727 4.00109 18.05 4.00109C18.9821 4.00109 19.8808 4.10753 20.7461 4.32042C21.3935 4.4797 21.9771 4.68478 22.4969 4.93567C22.8154 5.08941 23 5.42155 23 5.77521V16.6684C23 17.4574 22.105 17.9678 21.3619 17.7028C21.1533 17.6285 20.9374 17.5594 20.7142 17.4957C19.8393 17.2444 18.9513 17.1188 18.05 17.1188C16.9647 17.1188 15.9087 17.281 14.882 17.6054C14.0703 17.8618 13.2999 18.2061 12.5707 18.6382ZM14.0735 9.03222V8.63987C14.0735 8.26123 14.2854 7.90996 14.6364 7.76792C15.0612 7.59599 15.5061 7.45914 15.971 7.35735C16.6457 7.20963 17.3387 7.13577 18.05 7.13577C18.4563 7.13577 18.8464 7.16148 19.2204 7.21289C19.4822 7.24945 19.75 7.29634 20.0241 7.35355C20.2318 7.39694 20.3776 7.58223 20.3776 7.79451V7.79451C20.3776 8.10375 20.0771 8.32347 19.775 8.25732C19.5996 8.21891 19.4265 8.18865 19.2556 8.16655C18.8904 8.1202 18.4885 8.09703 18.05 8.09703C17.3387 8.09703 16.6449 8.17596 15.9688 8.33382C15.2912 8.49167 14.6591 8.72448 14.0724 9.03222M14.7711 14.6358C14.4475 14.7696 14.0724 14.5424 14.0724 14.1923V14.1923C14.0724 14.0195 14.1677 13.8599 14.3241 13.7865C14.8214 13.5534 15.3671 13.3737 15.9611 13.2476C16.657 13.0999 17.3533 13.0261 18.05 13.0261C18.4563 13.0261 18.8464 13.0521 19.2204 13.1043C19.4823 13.1398 19.7503 13.1863 20.0245 13.2436C20.2322 13.287 20.3776 13.4723 20.3776 13.6844V13.6844C20.3776 13.9938 20.0769 14.2137 19.7746 14.1475C19.5993 14.1092 19.4263 14.0789 19.2556 14.0568C18.8904 14.0105 18.4885 13.9873 18.05 13.9873C17.3387 13.9873 16.6449 14.0724 15.9688 14.2426C15.5524 14.3467 15.1532 14.4778 14.7711 14.6358ZM14.7665 11.6955C14.4444 11.828 14.0724 11.6014 14.0724 11.253V11.253C14.0724 11.0776 14.1711 10.916 14.3309 10.8434C14.847 10.609 15.3937 10.4288 15.971 10.303C16.6457 10.156 17.3387 10.0822 18.05 10.0815C18.4563 10.0815 18.846 10.1068 19.2193 10.1575C19.4818 10.1941 19.7501 10.2412 20.0241 10.2988C20.2313 10.3424 20.3765 10.5274 20.3765 10.7392V10.7392C20.3765 11.0486 20.0754 11.2683 19.773 11.2022C19.5981 11.1639 19.4252 11.1339 19.2545 11.1122C18.89 11.0652 18.4885 11.0416 18.05 11.0416C17.3387 11.0416 16.6449 11.1278 15.9688 11.3001C15.5507 11.406 15.15 11.5378 14.7665 11.6955Z" fill="#FCF5FF"/>
</svg>
