<svg width="32" height="32" viewBox="0 0 32 32" fill="none" xmlns="http://www.w3.org/2000/svg">
<path d="M7.44063 7.44C7.72188 7.1591 8.10313 7.00132 8.50063 7.00132C8.89813 7.00132 9.27938 7.1591 9.56063 7.44L16.0006 13.88L22.4406 7.44C22.624 7.24255 22.8572 7.09821 23.1157 7.02218C23.3742 6.94615 23.6484 6.94125 23.9094 7.008C24.1705 7.07475 24.4087 7.21067 24.599 7.40144C24.7893 7.59222 24.9246 7.83078 24.9906 8.092C25.0575 8.35275 25.0528 8.6267 24.9771 8.88502C24.9015 9.14335 24.7576 9.37652 24.5606 9.56L18.1206 16L24.5606 22.44C24.7581 22.6233 24.9024 22.8566 24.9785 23.115C25.0545 23.3735 25.0594 23.6478 24.9926 23.9088C24.9259 24.1699 24.79 24.4081 24.5992 24.5984C24.4084 24.7886 24.1699 24.9239 23.9086 24.99C23.6479 25.0568 23.3739 25.0522 23.1156 24.9765C22.8573 24.9008 22.6241 24.757 22.4406 24.56L16.0006 18.12L9.56063 24.56C9.27611 24.8248 8.90001 24.969 8.51137 24.9623C8.12274 24.9556 7.75184 24.7985 7.47663 24.524C7.20215 24.2488 7.04504 23.8779 7.03832 23.4893C7.03161 23.1006 7.17582 22.7245 7.44063 22.44L13.8806 16L7.44063 9.56C7.15973 9.27875 7.00195 8.8975 7.00195 8.5C7.00195 8.1025 7.15973 7.72125 7.44063 7.44Z" fill="#F46530"/>
</svg>
