<svg width="28" height="29" viewBox="0 0 28 29" fill="none" xmlns="http://www.w3.org/2000/svg">
<rect y="0.5" width="28" height="28" rx="6" fill="#EBECEC"/>
<path d="M9.75 7.3C9.75 6.82261 9.92911 6.36477 10.2479 6.02721C10.5667 5.68964 10.9991 5.5 11.45 5.5H16.55C17.0009 5.5 17.4333 5.68964 17.7521 6.02721C18.0709 6.36477 18.25 6.82261 18.25 7.3V9.1H21.65C21.8754 9.1 22.0916 9.19482 22.251 9.3636C22.4104 9.53239 22.5 9.7613 22.5 10C22.5 10.2387 22.4104 10.4676 22.251 10.6364C22.0916 10.8052 21.8754 10.9 21.65 10.9H20.7414L20.0044 21.8278C19.9739 22.2819 19.782 22.7069 19.4673 23.0172C19.1526 23.3275 18.7386 23.5 18.3087 23.5H9.6905C9.26052 23.5 8.84651 23.3275 8.53185 23.0172C8.2172 22.7069 8.02528 22.2819 7.99475 21.8278L7.2595 10.9H6.35C6.12457 10.9 5.90837 10.8052 5.74896 10.6364C5.58955 10.4676 5.5 10.2387 5.5 10C5.5 9.7613 5.58955 9.53239 5.74896 9.3636C5.90837 9.19482 6.12457 9.1 6.35 9.1H9.75V7.3ZM11.45 9.1H16.55V7.3H11.45V9.1ZM8.9629 10.9L9.69135 21.7H18.3095L19.038 10.9H8.9629ZM12.3 12.7C12.5254 12.7 12.7416 12.7948 12.901 12.9636C13.0604 13.1324 13.15 13.3613 13.15 13.6V19C13.15 19.2387 13.0604 19.4676 12.901 19.6364C12.7416 19.8052 12.5254 19.9 12.3 19.9C12.0746 19.9 11.8584 19.8052 11.699 19.6364C11.5396 19.4676 11.45 19.2387 11.45 19V13.6C11.45 13.3613 11.5396 13.1324 11.699 12.9636C11.8584 12.7948 12.0746 12.7 12.3 12.7ZM15.7 12.7C15.9254 12.7 16.1416 12.7948 16.301 12.9636C16.4604 13.1324 16.55 13.3613 16.55 13.6V19C16.55 19.2387 16.4604 19.4676 16.301 19.6364C16.1416 19.8052 15.9254 19.9 15.7 19.9C15.4746 19.9 15.2584 19.8052 15.099 19.6364C14.9396 19.4676 14.85 19.2387 14.85 19V13.6C14.85 13.3613 14.9396 13.1324 15.099 12.9636C15.2584 12.7948 15.4746 12.7 15.7 12.7Z" fill="#E33513"/>
</svg>
