<svg width="28" height="29" viewBox="0 0 28 29" fill="none" xmlns="http://www.w3.org/2000/svg">
<rect y="0.5" width="28" height="28" rx="6" fill="#EBECEC"/>
<path d="M20.0407 8.30047L20.7401 7.60106C20.7403 7.60093 20.7404 7.6008 20.7405 7.60067C20.8195 7.52054 20.8638 7.41252 20.8638 7.29998C20.8638 7.18729 20.8194 7.07914 20.7402 6.99897L20.0407 8.30047ZM20.0407 8.30047L18.6645 6.92428L19.3658 6.21611C19.3659 6.21603 19.3659 6.21594 19.366 6.21586C19.4053 6.17648 19.452 6.14523 19.5033 6.12389C19.5548 6.10251 19.61 6.0915 19.6657 6.0915C19.7215 6.0915 19.7767 6.10251 19.8281 6.12389C19.8795 6.14523 19.9262 6.17649 19.9654 6.21587C19.9655 6.21595 19.9656 6.21603 19.9657 6.21611L20.7401 6.99889L20.0407 8.30047ZM12.6406 17.0103L12.6406 17.0104L12.6446 17.0092C13.0293 16.9016 13.3803 16.6979 13.6646 16.4173L13.6655 16.4164L21.6155 8.4664L21.6158 8.46612C21.9254 8.15531 22.0992 7.7345 22.0992 7.29581C22.0992 6.85712 21.9254 6.43631 21.6158 6.1255L21.6147 6.12447L20.8314 5.34947L20.8314 5.34945L20.8289 5.34702C20.5145 5.04669 20.0964 4.8791 19.6616 4.8791C19.2268 4.8791 18.8087 5.04669 18.4943 5.34702L18.4942 5.34698L18.491 5.35015L10.541 13.2918L10.5406 13.2922C10.2586 13.5756 10.0568 13.9287 9.95572 14.3155C9.95566 14.3157 9.9556 14.3159 9.95554 14.3161L9.33973 16.613C9.33963 16.6133 9.33954 16.6137 9.33944 16.614C9.30094 16.753 9.30003 16.8997 9.33683 17.0391C9.37372 17.1789 9.44717 17.3064 9.54962 17.4084L9.55052 17.4093C9.70538 17.5615 9.91323 17.6478 10.1304 17.65L10.1568 17.6502L10.1823 17.6437L12.6406 17.0103ZM12.7929 15.54L12.7928 15.54L12.7897 15.5432C12.6612 15.674 12.4999 15.7679 12.3227 15.815L12.3223 15.8151L11.6255 16.0019L10.9555 15.3319L11.1418 14.6366C11.1419 14.6363 11.142 14.6361 11.142 14.6358C11.1911 14.4588 11.285 14.2974 11.4146 14.1673L11.5889 13.9976L12.9643 15.3731L12.7929 15.54ZM7.45573 22.1483H21.5391C21.7026 22.1483 21.8595 22.0833 21.9751 21.9677C22.0908 21.852 22.1557 21.6952 22.1557 21.5316C22.1557 21.3681 22.0908 21.2112 21.9751 21.0956C21.8595 20.9799 21.7026 20.915 21.5391 20.915H7.45573C7.29218 20.915 7.13533 20.9799 7.01968 21.0956C6.90403 21.2112 6.83906 21.3681 6.83906 21.5316C6.83906 21.6952 6.90403 21.852 7.01968 21.9677C7.13533 22.0833 7.29218 22.1483 7.45573 22.1483ZM13.8407 14.5005L12.4652 13.125L17.7907 7.79949L19.1662 9.17498L13.8407 14.5005Z" fill="#9B1AD6" stroke="#9B1AD6" stroke-width="0.4"/>
</svg>
