<svg width="24" height="24" viewBox="0 0 24 24" fill="none" xmlns="http://www.w3.org/2000/svg">
<path d="M4.62234 10.0944C3.80729 9.31826 3.24686 8.31013 3.24686 7.12065V6.9913C3.32298 4.97371 4.95308 3.31883 6.93754 3.26683H19.6397C19.9704 3.2935 20.225 3.52553 20.225 3.86157V14.8016C20.5046 14.8523 20.6582 14.9043 20.9377 14.9816C21.1661 15.0603 21.4719 15.2403 21.4719 15.2403V3.86157C21.4636 3.36585 21.2644 2.89319 20.9169 2.54512C20.5694 2.19705 20.1014 2.00133 19.6134 2H6.93754C5.61794 2.02484 4.36079 2.57557 3.43715 3.53347C2.51352 4.49136 1.99737 5.77968 2.00001 7.12065C2.00001 8.74886 2.73762 10.1464 3.90966 11.1025C3.98579 11.1798 4.06191 11.2585 4.29028 11.2585C4.67221 11.2585 4.92683 10.9478 4.90189 10.6371C4.90189 10.3531 4.79952 10.2504 4.62234 10.0944Z" fill="#FCF5FF"/>
<path d="M19.3092 15.5257H9.35671C9.19778 15.5264 9.04056 15.5591 8.89417 15.622C8.74778 15.6849 8.61513 15.7767 8.50391 15.892C8.39269 16.0074 8.30512 16.144 8.24626 16.294C8.18741 16.444 8.15844 16.6044 8.16105 16.7659V18.2154C8.18599 18.8875 8.74641 19.4556 9.4079 19.4556H10.1455V18.2154H9.4079V16.7925H9.81477C11.0616 16.7925 12.004 17.982 12.004 19.2489C12.004 20.3877 10.9855 21.8092 9.30553 21.7065C7.80406 21.6025 6.98901 20.2583 6.98901 19.2489V6.91396C6.98463 6.64785 6.87873 6.39387 6.69362 6.20555C6.50852 6.01723 6.25868 5.9093 5.99678 5.9045H5.00586V7.17132H5.74347V19.2755C5.69228 21.7318 7.47463 22.9733 9.30684 22.9733L19.3355 23C19.8169 22.9998 20.2935 22.9033 20.7382 22.716C21.1829 22.5286 21.5869 22.2542 21.9272 21.9082C22.2674 21.5622 22.5373 21.1515 22.7214 20.6996C22.9054 20.2477 23.0001 19.7633 22.9999 19.2742C22.9736 17.1793 21.3462 15.5257 19.3092 15.5257ZM21.7268 19.3249C21.7028 19.9615 21.4381 20.5642 20.9878 21.0076C20.5375 21.451 19.9363 21.7008 19.3092 21.7052L12.3347 21.6785C12.9134 21.0056 13.2303 20.1411 13.2259 19.2475C13.2259 17.7993 12.3859 16.7912 12.3859 16.7912H19.3342C20.6584 16.7912 21.753 17.9034 21.753 19.2475L21.7268 19.3249ZM16.6344 7.37935H9.12703V6.11252H16.6344C16.9664 6.11252 17.246 6.39656 17.246 6.7326C17.246 7.09398 16.9914 7.37935 16.6357 7.37935" fill="#FCF5FF"/>
<path d="M16.6333 13.3268H9.12598V12.0599H16.6333C16.9654 12.0599 17.2449 12.344 17.2449 12.68C17.2449 13.0427 16.9903 13.3268 16.6346 13.3268M17.9589 10.3531H9.12598V9.08623H17.9589C18.2884 9.08623 18.5692 9.37027 18.5692 9.70631C18.5724 9.87444 18.5098 10.037 18.3951 10.1582C18.2804 10.2795 18.1244 10.3496 17.9589 10.3531Z" fill="#FCF5FF"/>
</svg>
