<svg width="64" height="65" viewBox="0 0 64 65" fill="none" xmlns="http://www.w3.org/2000/svg">
<g clip-path="url(#clip0_584_9396)">
<path d="M59.1445 31.1672L58.4563 34.6466L58.2321 35.8089L58.0079 36.9687L57.7089 38.5357V38.5332L57.4125 40.1002L57.1187 41.6672V41.6646L56.83 43.2316L56.5439 44.7986C56.5079 44.9945 56.3223 45.1208 56.129 45.0873C55.9331 45.0512 55.8068 44.8656 55.8403 44.6723L56.129 43.1027L56.4177 41.5357L56.7115 39.9687V39.9661L57.0079 38.4017L57.3068 36.8347L57.5311 35.6723L57.7579 34.51L57.9847 33.3502V33.3476L58.214 32.1878L58.446 31.028C58.4847 30.8347 58.6728 30.7085 58.8661 30.7471C59.0594 30.7858 59.1831 30.9739 59.1445 31.1672Z" fill="#E04016"/>
<path d="M53.6988 42.356L54.0725 42.521L54.0957 42.5338L54.4565 42.7297L54.4797 42.7452L54.8225 42.9694L54.8457 42.9849L55.1679 43.2349L55.1911 43.2529L55.4926 43.5287L55.5132 43.5493L55.7916 43.8483L55.8122 43.8689L56.0648 44.1885L56.0828 44.2117L56.3122 44.5493L56.3251 44.5751L56.5261 44.9308L56.539 44.9565L56.7117 45.3277L56.722 45.3534L56.8637 45.7375L56.874 45.7632L56.9849 46.1576L56.99 46.1833L57.0699 46.5854L57.0751 46.6137L57.1215 47.021L57.124 47.0493L57.1395 47.4565V47.4849L57.1215 47.8947L57.1189 47.923L57.0673 48.3277L57.0622 48.356L56.9797 48.7555L56.9746 48.7838L56.8612 49.1756L56.8508 49.204L56.7065 49.5828L56.6962 49.6086L56.5209 49.9771L56.5081 50.0029L56.307 50.356L56.2916 50.3792L56.0622 50.7143L56.0467 50.7375L55.789 51.0545L55.7709 51.0751L55.4926 51.3715L55.472 51.3895L55.1704 51.6627L55.1472 51.6808L54.8251 51.9282L54.8019 51.9436L54.4617 52.1653L54.4359 52.1808L54.0776 52.3741L54.0545 52.3844L53.6807 52.5493L53.655 52.5596L53.2709 52.6962L53.2452 52.704L52.8508 52.807L52.8251 52.8122L52.423 52.8869L52.3946 52.8895L51.99 52.9308H51.9642L51.557 52.9411L51.5287 52.9385L51.1215 52.9153L51.0931 52.9127L50.691 52.856L50.6627 52.8534L50.2658 52.7658C50.0751 52.722 49.9513 52.5313 49.9952 52.3406C50.0364 52.1473 50.2271 52.0261 50.4204 52.0674L50.8173 52.155L50.789 52.1498L51.191 52.2065L51.1653 52.204L51.5699 52.2272H51.5416L51.9488 52.2194H51.9204L52.3251 52.1808L52.2967 52.1833L52.6962 52.1112L52.6704 52.1163L53.0622 52.0132L53.0364 52.021L53.4204 51.8869L53.3921 51.8973L53.7658 51.7323L53.74 51.7452L54.0983 51.5519L54.0725 51.5673L54.4153 51.3457L54.3921 51.3612L54.7142 51.1137L54.691 51.1318L54.9952 50.8612L54.9745 50.8792L55.2529 50.5854L55.2349 50.606L55.49 50.289L55.472 50.3122L55.7039 49.9771L55.6885 50.0003L55.8895 49.6472L55.8766 49.673L56.0519 49.3045L56.039 49.3302L56.1833 48.9514L56.1756 48.9771L56.289 48.5854L56.2812 48.6112L56.3637 48.2117L56.3586 48.24L56.4101 47.8354L56.4075 47.8637L56.4256 47.4539V47.4823L56.4101 47.0751L56.4127 47.1034L56.3663 46.6962L56.3715 46.7246L56.2916 46.3225L56.2967 46.3508L56.1859 45.9565L56.1962 45.9849L56.0544 45.6008L56.0648 45.6266L55.8921 45.2555L55.905 45.2813L55.7039 44.9256L55.7194 44.9488L55.49 44.6112L55.5081 44.6344L55.2529 44.3148L55.2709 44.3354L54.9926 44.0364L55.0132 44.057L54.7091 43.7813L54.7323 43.7993L54.4075 43.5493L54.4307 43.5648L54.0905 43.3405L54.1137 43.356L53.7555 43.1601L53.7812 43.173L53.4075 43.0055C53.2271 42.9256 53.1472 42.7142 53.2271 42.5364C53.307 42.356 53.5184 42.2735 53.6988 42.356Z" fill="#E04016"/>
<path d="M53.3244 28.0668L53.6646 28.4174L53.6491 28.4019L54.01 28.7292L53.9919 28.7137L54.3734 29.0204L54.3553 29.005L54.7548 29.2859L54.7368 29.273L55.1543 29.5282L55.1337 29.5179L55.5667 29.7447L55.546 29.7344L55.9919 29.9328L55.9713 29.9251L56.4275 30.0952L56.4069 30.0875L56.8734 30.2292L56.8528 30.224L57.327 30.3349L57.3064 30.3297L57.7883 30.4122L57.7651 30.407L58.2522 30.4586L58.229 30.456L58.7213 30.4741H58.6981L59.1878 30.4637H59.1646L59.6543 30.4199L59.6311 30.4225L60.1156 30.3478L60.095 30.3529L60.5744 30.2472L60.5512 30.2524L61.0229 30.1158L60.9997 30.1235L61.4636 29.9586L61.4404 29.9663L61.8914 29.773L61.8708 29.7807L62.3089 29.5591L62.2883 29.5694L62.711 29.3194C62.8785 29.2189 63.0976 29.273 63.1981 29.4431C63.2986 29.6132 63.2445 29.8323 63.0744 29.9328L62.6517 30.1828L62.6337 30.1931L62.1955 30.4173L62.1749 30.4277L61.7239 30.621L61.7033 30.6287L61.2419 30.7962L61.2213 30.8014L60.7497 30.938L60.7265 30.9431L60.2471 31.0488L60.2265 31.0539L59.7393 31.1287L59.7187 31.1313L59.229 31.1751H59.2058L58.7161 31.188H58.693L58.2033 31.1699L58.1801 31.1673L57.693 31.1184L57.6698 31.1158L57.1878 31.0333L57.1646 31.0307L56.6904 30.9173L56.6672 30.9122L56.2007 30.7704L56.1801 30.7653L55.7213 30.5926L55.7007 30.5849L55.2548 30.3864L55.2342 30.3761L54.8012 30.1493L54.7832 30.1364L54.3656 29.8838L54.3476 29.871L53.9455 29.59L53.9275 29.5771L53.5461 29.273L53.5306 29.2576L53.1672 28.9302L53.1517 28.9122L52.8115 28.5617C52.6749 28.4199 52.6801 28.1957 52.8193 28.0591C52.961 27.9199 53.1878 27.9251 53.3244 28.0668Z" fill="#E04016" stroke="#E04016"/>
<path d="M56.6957 20.6006L56.9947 21.3249L56.9895 21.312L57.3194 22.0233L57.3142 22.013L57.6673 22.7115L57.6622 22.7012L58.0436 23.3842L58.0359 23.3739L58.4431 24.044L58.4354 24.0336L58.8658 24.6883L58.8581 24.678L59.3142 25.3146L59.3065 25.3043L59.7988 25.9434L59.791 25.9305L60.3091 26.5491L60.2988 26.5388L60.84 27.1367L60.8323 27.1264L61.3967 27.7037L61.3864 27.696L61.9715 28.2501L61.9612 28.2398L62.5694 28.7708L62.5565 28.763L63.1854 29.2708C63.3374 29.3945 63.3606 29.6187 63.2369 29.7708C63.1132 29.9254 62.889 29.9486 62.7343 29.8249L62.1081 29.3171L62.0977 29.3094L61.4921 28.7759L61.4818 28.7682L60.8941 28.2141L60.8864 28.2037L60.322 27.6264L60.3117 27.6161L59.7704 27.0182L59.7627 27.0079L59.2447 26.3893L59.2343 26.379L58.7421 25.7398L58.7344 25.7295L58.2782 25.0903L58.2704 25.08L57.84 24.4254L57.8323 24.4151L57.4251 23.7424L57.4199 23.7321L57.0385 23.0465L57.0307 23.0336L56.6776 22.3352L56.6699 22.3223L56.3426 21.611L56.3374 21.5981L56.0359 20.8738C55.9612 20.6934 56.0462 20.4847 56.2266 20.4073C56.4096 20.3326 56.6184 20.4176 56.6957 20.6006Z" fill="#E04016" stroke="#E04016"/>
<path d="M60.6694 17.2786L60.5147 17.5595L60.5096 17.5724L60.3446 17.8456L60.3343 17.8584L60.1591 18.1239L60.1513 18.1368L59.9632 18.3971L59.9555 18.4074L59.757 18.66L59.7467 18.6703L59.5379 18.9126L59.5276 18.9255L59.3111 19.1574L59.3008 19.1677L59.0714 19.3945L59.0611 19.4048L58.8163 19.6265L58.806 19.6342L58.5534 19.8456L58.5405 19.8559L58.2776 20.0543L58.2647 20.0646L57.9967 20.2528L57.9838 20.2605L57.7055 20.4383L57.6926 20.4461L57.4065 20.611L57.3936 20.6188L57.0998 20.7708L57.0869 20.776L56.7879 20.9151C56.6101 21.0002 56.3962 20.9229 56.3137 20.745C56.2312 20.5646 56.306 20.3533 56.4864 20.2682L56.7854 20.1291L56.7699 20.1368L57.0637 19.9847L57.0508 19.9925L57.3343 19.8275L57.3215 19.8352L57.5998 19.6574L57.5869 19.6677L57.8575 19.4796L57.8447 19.4873L58.1075 19.2889L58.0972 19.2966L58.3498 19.0878L58.3369 19.0956L58.5818 18.8765L58.5715 18.8868L58.7983 18.66L58.788 18.6703L59.007 18.4383L58.9967 18.4486L59.2055 18.2064L59.1952 18.2167L59.3936 17.9667L59.3859 17.977L59.5715 17.7193L59.5637 17.7296L59.739 17.4641L59.7312 17.477L59.8988 17.2038L59.891 17.2141L60.0431 16.9358C60.1385 16.7631 60.355 16.6986 60.5276 16.794C60.7003 16.8894 60.7648 17.1059 60.6694 17.2786Z" fill="#E04016" stroke="#E04016"/>
<path d="M60.2233 17.5029L59.7439 17.5158H59.7207L59.2413 17.5003H59.2207L58.7413 17.4565L58.7207 17.4539L58.2465 17.3792L58.2259 17.3766L57.7568 17.2735L57.7362 17.2684L57.2722 17.1395L57.2516 17.1318L56.8006 16.9745L56.78 16.9668L56.3367 16.7812L56.3186 16.7709L55.8882 16.5596L55.8676 16.5493L55.4527 16.3096L55.432 16.2993L55.0326 16.0364L55.0145 16.0235L54.6408 15.7452L54.6253 15.7323L54.2671 15.4307L54.2516 15.4153L53.914 15.0957L53.8985 15.0802L53.5789 14.74L53.5661 14.722L53.2697 14.3637L53.2542 14.3457L52.9784 13.9694L52.9681 13.9539L52.7155 13.5622L52.7026 13.5416L52.4733 13.1369L52.4655 13.1189L52.2593 12.6988L52.2516 12.6782L52.0712 12.2477L52.0635 12.2271L51.9114 11.789C51.847 11.6008 51.9449 11.3972 52.1305 11.3328C52.316 11.2684 52.5197 11.3663 52.5841 11.5519L52.7387 11.9926L52.731 11.9745L52.9088 12.405L52.9011 12.3843L53.1047 12.8044L53.097 12.7864L53.3264 13.191L53.3135 13.173L53.566 13.5673L53.5557 13.5493L53.8315 13.9256L53.8186 13.9075L54.115 14.2684L54.1021 14.2529L54.4191 14.5931L54.4063 14.5776L54.7439 14.8998L54.7284 14.8843L55.0841 15.1859L55.0686 15.173L55.4423 15.4513L55.4243 15.4385L55.8238 15.7014L55.8057 15.691L56.2233 15.9282L56.2026 15.9178L56.6331 16.1318L56.6124 16.1215L57.0557 16.307L57.0351 16.2993L57.4887 16.4591L57.4681 16.4514L57.9294 16.5828L57.9088 16.5776L58.3753 16.6782L58.3547 16.6756L58.8289 16.7477L58.8083 16.7452L59.2851 16.789H59.2645L59.7439 16.8019H59.7207L60.2001 16.789C60.3985 16.7812 60.5609 16.9359 60.5686 17.1343C60.5738 17.3302 60.4192 17.4952 60.2233 17.5029Z" fill="#E04016" stroke="#E04016"/>
<path d="M52.0183 11.9355L50.6137 10.9484L50.6265 10.9562L49.1807 10.0257L49.1936 10.036L47.7116 9.16748L47.7245 9.17521L46.2064 8.36848L46.2193 8.37621L44.6703 7.63652L44.6832 7.64167L43.1033 6.96644L43.1162 6.97159L41.5105 6.36334L41.5234 6.3685L39.892 5.82984L39.9074 5.83241L38.2631 5.36334L38.276 5.36592L36.6136 4.96643L36.6291 4.96901L34.9487 4.63911L34.9641 4.64169L33.2734 4.3788L33.2889 4.38138L31.5878 4.19066L31.6033 4.19324L29.8971 4.07468H29.91L28.2013 4.02828H28.2168L26.5054 4.05148C26.3095 4.05406 26.1471 3.89684 26.1446 3.69839C26.142 3.50251 26.2992 3.34014 26.4951 3.33756L28.2065 3.31436H28.2219L29.9306 3.36075L29.9461 3.36333L31.6523 3.48189H31.6677L33.3688 3.67261L33.3816 3.67519L35.0724 3.93549L35.0878 3.93807L36.7657 4.27055L36.7811 4.27313L38.4435 4.67261L38.459 4.67777L40.1033 5.14684L40.1188 5.15199L41.7477 5.69066L41.7631 5.69581L43.3688 6.30406L43.3843 6.31179L44.9641 6.98445L44.977 6.99219L46.526 7.73188L46.5415 7.73961L48.0595 8.54377L48.0724 8.5515L49.5544 9.42005L49.5673 9.42778L51.0131 10.3556L51.026 10.3633L52.4307 11.353C52.5905 11.4664 52.6291 11.6881 52.5157 11.8504C52.4023 12.0102 52.1807 12.0489 52.0183 11.9355Z" fill="#E04016" stroke="#E04016"/>
<path d="M26.5361 4.05154L26.0773 4.29381L26.0902 4.28608L25.6417 4.54638L25.6546 4.53865L25.2165 4.81701L25.2294 4.80928L24.8015 5.10309L24.8144 5.09536L24.3995 5.40721L24.4098 5.39691L24.0103 5.72422L24.0206 5.71649L23.6314 6.05927L23.6417 6.04896L23.268 6.40979L23.2783 6.39691L22.8917 6.80154L22.9021 6.79123L22.5335 7.20876L22.5438 7.19845L22.1933 7.63402L22.2036 7.62113L21.8711 8.07216L21.8814 8.05927L21.5696 8.52319L21.5773 8.5103L21.2861 8.98711L21.2938 8.97422L21.0232 9.46391L21.0309 9.44845L20.7809 9.94845C20.6933 10.1263 20.4794 10.1985 20.3041 10.1108C20.1263 10.0232 20.0541 9.80927 20.1417 9.63144L20.3917 9.13144L20.3995 9.11855L20.6701 8.62886L20.6778 8.61597L20.9691 8.13917L20.9768 8.12628L21.2887 7.65979L21.2964 7.64948L21.6289 7.19845L21.6366 7.18556L21.9871 6.74999L21.9974 6.73968L22.366 6.31958L22.3763 6.30669L22.7629 5.90463L22.7758 5.89432L23.1495 5.53607L23.1598 5.52576L23.5464 5.1804L23.5567 5.17267L23.9588 4.84535L23.9717 4.83504L24.384 4.52318L24.3969 4.51545L24.8222 4.22164L24.8351 4.21391L25.2732 3.93555L25.2835 3.92782L25.732 3.67009L25.7448 3.66236L26.2036 3.42009C26.3789 3.32988 26.5954 3.39689 26.6856 3.56957C26.7784 3.74483 26.7113 3.96133 26.5361 4.05154Z" fill="#E04016" stroke="#E04016"/>
<path d="M20.3989 10.0954L20.0251 9.96393L20.038 9.96651L19.6617 9.85053L19.6721 9.85311L19.2932 9.74744L19.3061 9.75002L18.9221 9.65724L18.9324 9.65981L18.5483 9.57992H18.5587L18.1721 9.51291L18.1824 9.51549L17.7932 9.45879L17.8035 9.46136L17.4453 9.4227H17.4556L17.0947 9.39435H17.105L16.7442 9.37889H16.7545L16.3911 9.37116H16.404L16.0406 9.37631H16.0509L15.6901 9.39177H15.7004L15.3396 9.41755C15.1437 9.43301 14.9736 9.28353 14.9581 9.08765C14.9427 8.89177 15.0921 8.72167 15.288 8.70621L15.6489 8.68044H15.6592L16.0226 8.6624H16.0329L16.3937 8.65982H16.404L16.7674 8.66497H16.7777L17.1385 8.68302H17.1489L17.5097 8.71137L17.5226 8.71394L17.8808 8.7526H17.8937L18.2829 8.8093H18.2932L18.6824 8.87889H18.6927L19.0793 8.96137L19.0921 8.96394L19.4736 9.05672L19.4839 9.0593L19.8653 9.16497L19.8756 9.16755L20.2519 9.28611L20.2622 9.29127L20.6334 9.42013C20.8215 9.48714 20.9169 9.69075 20.8524 9.87632C20.788 10.0619 20.5844 10.1598 20.3989 10.0954Z" fill="#E04016" stroke="#E04016"/>
<path d="M15.5567 9.3452L14.8402 9.86066L14.8557 9.85035L14.1649 10.3993L14.1778 10.389L13.5154 10.9715L13.5283 10.9612L12.8969 11.5746L12.9098 11.5643L12.3067 12.2086L12.3196 12.1957L11.75 12.8709L11.7629 12.8581L11.2268 13.5591L11.2371 13.5462L10.7397 14.273L10.7474 14.2601L10.3221 14.9483L10.3299 14.9354L9.93812 15.6442L9.94586 15.6287L9.58503 16.353L9.59018 16.3401L9.26287 17.0798L9.2706 17.0643L8.97679 17.8194L8.98194 17.804L8.72163 18.572L8.72679 18.5566L8.50256 19.3349L8.50772 19.3195L8.31957 20.1081C8.27318 20.2988 8.08245 20.4174 7.88916 20.3736C7.69844 20.3272 7.57988 20.1339 7.62627 19.9432L7.81442 19.1545L7.81699 19.1391L8.04122 18.3607L8.04637 18.3452L8.30411 17.5772L8.31184 17.5617L8.60565 16.8066L8.61081 16.7911L8.93812 16.0514L8.94586 16.036L9.30668 15.3117L9.31442 15.2962L9.70617 14.5875L9.71648 14.5746L10.1417 13.8839L10.1495 13.871L10.6495 13.1416L10.6598 13.1287L11.1933 12.4251L11.2036 12.4122L11.7732 11.737L11.7861 11.7241L12.3866 11.0772L12.3995 11.0643L13.0309 10.4483L13.0438 10.4354L13.7062 9.85295L13.719 9.84264L14.4098 9.29109L14.4252 9.28078L15.1417 8.76531C15.3015 8.65191 15.5232 8.68799 15.6391 8.84779C15.7551 9.00758 15.7165 9.23179 15.5567 9.3452Z" fill="#E04016" stroke="#E04016"/>
<path d="M0.105533 29.139L0.842655 28.6287L0.827191 28.6364L1.54109 28.0952L1.5282 28.1055L2.21637 27.5308L2.20348 27.5411L2.86585 26.9354L2.85296 26.9483L3.48698 26.3143L3.47667 26.3246L4.07976 25.6648L4.06945 25.6751L4.64419 24.9895L4.63389 25.0024L5.17512 24.2911L5.16481 24.304L5.67254 23.572L5.66481 23.5849L6.13904 22.8297L6.13131 22.8426L6.57203 22.0694L6.5643 22.0823L6.96894 21.2885L6.96378 21.304L7.33233 20.4921L7.32718 20.505L7.65966 19.6777C7.7344 19.4947 7.94058 19.407 8.12357 19.4818C8.30656 19.5539 8.39677 19.7627 8.32202 19.9457L7.98955 20.773L7.98182 20.7859L7.61326 21.5978L7.60553 21.6132L7.20089 22.407L7.19316 22.4199L6.75244 23.1957L6.74213 23.2112L6.2679 23.9637L6.26017 23.9792L5.74986 24.7112L5.74213 24.7241L5.20089 25.4328L5.19058 25.4457L4.61842 26.1339L4.60553 26.1467L4.00244 26.8065L3.99213 26.8194L3.35811 27.4509L3.34522 27.4638L2.68543 28.0668L2.67254 28.0772L1.98695 28.6519L1.97406 28.6622L1.26016 29.206L1.24728 29.2138L0.512729 29.7241C0.35036 29.8375 0.128709 29.7962 0.015304 29.6339C-0.0981013 29.4715 -0.0568418 29.2498 0.105533 29.139Z" fill="#E04016" stroke="#E04016"/>
<path d="M0.492201 29.2241L0.966428 29.4793L0.948387 29.469L1.43808 29.6958L1.41746 29.6855L1.92261 29.8813L1.90199 29.8736L2.41488 30.036L2.39426 30.0308L2.91746 30.1623L2.89684 30.1571L3.42777 30.2551L3.40457 30.2525L3.94065 30.3169H3.92003L4.4587 30.3478H4.4355H4.97416H4.95355L5.49221 30.3143L5.46901 30.3169L6.00509 30.2499L5.98447 30.2525L6.5154 30.1545L6.49221 30.1571L6.9819 30.036L6.96386 30.0411L7.44582 29.8917L7.4252 29.8968L7.89685 29.719L7.87881 29.7267L8.34015 29.5231L8.32211 29.5308L8.77056 29.3015L8.75252 29.3092L9.18551 29.054L9.17005 29.0643L9.58757 28.7834L9.57211 28.7963L9.97417 28.4922L9.95871 28.5051L10.3427 28.1777L10.3273 28.1906L10.6907 27.8427L10.6778 27.8556L11.0206 27.487C11.1546 27.3427 11.3814 27.335 11.5257 27.469C11.67 27.603 11.6778 27.8298 11.5438 27.9741L11.1984 28.3427L11.1855 28.3582L10.8195 28.7061L10.8041 28.719L10.42 29.0463L10.4046 29.0592L10.0025 29.3633L9.98705 29.3762L9.56694 29.6571L9.5489 29.6674L9.11591 29.9252L9.09787 29.9355L8.64684 30.1648L8.6288 30.1752L8.16746 30.3788L8.14942 30.3865L7.67777 30.5643L7.65715 30.5721L7.17519 30.7215L7.15715 30.7267L6.66746 30.8504L6.64684 30.8556L6.11591 30.9535L6.09272 30.9587L5.55921 31.0257H5.53602L4.99735 31.0592L4.97674 31.0617H4.41488L3.87622 31.0282L3.85302 31.0257L3.31694 30.9612L3.29632 30.9561L2.76539 30.8581L2.74478 30.853L2.22158 30.7215L2.20096 30.7164L1.6855 30.554L1.66488 30.5463L1.1623 30.353L1.14168 30.3427L0.649415 30.1184L0.631373 30.1081L0.154567 29.853C-0.0181143 29.7602 -0.0851231 29.5437 0.00765715 29.371C0.103017 29.1983 0.31694 29.1313 0.492201 29.2241Z" fill="#E04016" stroke="#E04016"/>
<path d="M23.6128 23.9306L22.9891 23.7347L23.0097 23.7425L22.3757 23.5852L22.3963 23.5904L21.752 23.4718L21.7752 23.4744L21.1257 23.3971L21.1463 23.3997L20.4943 23.361H20.5149H19.8603H19.8835L19.2288 23.4022L19.252 23.3997L18.6025 23.4821L18.6231 23.477L17.9788 23.5981L18.002 23.593L17.3654 23.7528L17.3886 23.7476L16.7623 23.9461L16.7829 23.9383L16.203 24.16L16.2237 24.1522L15.6566 24.4074L15.6747 24.3997L15.1231 24.6883L15.1412 24.678L14.6102 24.9976L14.6257 24.9873L14.1128 25.3352L14.1309 25.3249L13.6386 25.7038L13.6541 25.6909L13.185 26.0981L13.2005 26.0827L12.7546 26.5157L12.7675 26.5028L12.3499 26.959L12.3628 26.9435L11.9711 27.4255L11.984 27.41L11.6206 27.9126C11.5046 28.0724 11.2804 28.1084 11.1206 27.995C10.9608 27.8791 10.9247 27.6548 11.0407 27.495L11.4041 26.9925L11.417 26.977L11.8087 26.495L11.8216 26.477L12.2417 26.0208L12.2572 26.0053L12.7005 25.5724L12.7159 25.5569L13.1876 25.1497L13.203 25.1368L13.6953 24.7579L13.7108 24.7476L14.2262 24.3971L14.2417 24.3842L14.7752 24.0646L14.7932 24.0569L15.3448 23.7682L15.3628 23.7579L15.9298 23.5028L15.9479 23.495L16.5278 23.2708L16.5484 23.2656L17.1721 23.0672L17.1927 23.062L17.8268 22.9022L17.8474 22.8971L18.4917 22.776L18.5123 22.7734L19.1618 22.6935L19.185 22.6909L19.8371 22.6497H19.8577L20.5123 22.6471H20.5355L21.1876 22.6858L21.2108 22.6883L21.8603 22.7657L21.8809 22.7708L22.5252 22.8868L22.5458 22.8919L23.1824 23.0492L23.203 23.0543L23.8267 23.2502C24.0149 23.3095 24.1206 23.5079 24.0613 23.6961C24.002 23.8842 23.801 23.9899 23.6128 23.9306Z" fill="#E04016" stroke="#E04016"/>
<path d="M23.5926 23.2734L24.6828 22.7451L24.6983 22.7399L25.8117 22.2631L25.8271 22.258L26.9612 21.8379L26.9792 21.8301L28.1313 21.4667L28.1493 21.4616L29.3194 21.1523L29.3349 21.1471L30.5179 20.8946L30.5359 20.892L31.7292 20.6961L31.7473 20.6935L32.9483 20.5569L32.9663 20.5544L34.1751 20.477L34.1931 20.4745L35.8349 20.4616H35.8581L37.4973 20.5544L37.5205 20.5569L39.1494 20.7554L39.1726 20.7605L40.786 21.0647L40.8092 21.0698L42.3994 21.4822L42.42 21.4873L43.9793 22.0028L44.0025 22.0105L45.5231 22.6239L45.5437 22.6343L47.0231 23.3482L47.0438 23.3585L48.4742 24.1652L48.4922 24.1781L49.8659 25.0776L49.884 25.0905L51.1958 26.0776L51.2139 26.093L52.4587 27.1652L52.4742 27.1807L53.6468 28.3302C53.786 28.4693 53.7886 28.6936 53.652 28.8353C53.5128 28.9745 53.286 28.9771 53.1468 28.8405L51.9742 27.6884L51.9922 27.7064L50.7474 26.6343L50.768 26.6497L49.4561 25.6601L49.4742 25.6755L48.1005 24.776L48.1211 24.7863L46.6932 23.9796L46.7139 23.9899L45.2345 23.276L45.2551 23.2863L43.7345 22.6729L43.7551 22.6807L42.1984 22.1652L42.219 22.1729L40.6314 21.7605L40.652 21.7657L39.0412 21.4616L39.0644 21.4642L37.4355 21.2657H37.4587L35.8195 21.1729L35.8427 21.1755L34.2009 21.1884H34.2215L33.0128 21.2683L33.0308 21.2657L31.8272 21.4023L31.8453 21.3997L30.652 21.5956L30.6674 21.593L29.4844 21.8456L29.4999 21.8404L28.3324 22.1497L28.3478 22.1472L27.1932 22.5106L27.2112 22.5054L26.0746 22.9255L26.0927 22.9203L24.9793 23.3946L24.9947 23.3868L23.9045 23.9152C23.7267 24.0028 23.5154 23.9281 23.4277 23.7502C23.3427 23.5724 23.4174 23.3611 23.5926 23.2734Z" fill="#E04016" stroke="#E04016"/>
<path d="M49.755 22.1419L49.3401 22.0002L49.3556 22.0053L48.9355 21.8842L48.9509 21.8893L48.5257 21.7862L48.5411 21.7914L48.1107 21.7089L48.1262 21.7115L47.6932 21.6496L47.7087 21.6522L47.2731 21.611H47.2885L46.853 21.5904H46.8684H46.4303H46.4458L46.0025 21.6084H46.0179L45.5746 21.6496L45.5901 21.6471L45.1494 21.7089L45.1674 21.7063L44.7293 21.7888L44.7447 21.7862L44.3117 21.8868L44.3272 21.8842L43.8994 22.0079L43.9148 22.0027L43.4922 22.1445L43.5102 22.1393L43.0952 22.3017C42.9097 22.3739 42.7035 22.2837 42.6313 22.1007C42.5592 21.9177 42.6494 21.7115 42.8324 21.6393L43.2473 21.4744L43.2628 21.4692L43.6855 21.3249L43.7009 21.3223L44.1313 21.1986L44.1468 21.1934L44.5798 21.0904L44.5978 21.0878L45.0334 21.0053L45.0514 21.0027L45.4922 20.9409L45.5102 20.9383L45.9535 20.8971H45.969L46.4148 20.8764H46.8865L47.3246 20.8996H47.3401L47.7782 20.9409L47.7937 20.9434L48.2447 21.0079L48.6751 21.0904L48.6906 21.0929L49.1159 21.1934L49.1339 21.1986L49.554 21.3197L49.5695 21.3249L49.9844 21.4641C50.1726 21.5285 50.2705 21.7321 50.2086 21.9177C50.1442 22.1032 49.9432 22.2038 49.755 22.1419Z" fill="#E04016" stroke="#E04016"/>
<path d="M49.7783 22.1802L49.2448 21.2343L49.2577 21.2575L48.6572 20.3528L48.6727 20.3735L48.0103 19.5126L48.0257 19.5332L47.3041 18.7239L47.3195 18.742L46.5437 17.9869L46.5618 18.0023L45.7319 17.3039L45.7525 17.3193L44.8737 16.6827L44.8943 16.6956L43.9742 16.1234L43.9948 16.1338L43.0361 15.6286L43.0593 15.6389L42.067 15.2033L42.0902 15.2111L41.067 14.8477L41.0928 14.8554L40.0464 14.5642L40.0722 14.5693L39.0077 14.3528L39.0335 14.358L37.9562 14.2162L37.982 14.2188L36.9149 14.157H36.9407L35.8737 14.1698H35.8969L34.8325 14.2549L34.8582 14.2523L33.8015 14.4147L33.8273 14.4095L32.7835 14.6467L32.8093 14.6389L31.786 14.9482L31.8092 14.9405L30.8093 15.3193L30.8325 15.309L29.8633 15.7575L29.8865 15.7472L28.9484 16.2601L28.9716 16.2472L28.0747 16.8271L28.0953 16.8142L27.2396 17.4559L27.2576 17.4379L26.4509 18.1389L26.4689 18.1209L25.7138 18.876L25.7293 18.858L25.0282 19.6621C24.8994 19.8116 24.6726 19.8271 24.5257 19.6982C24.3762 19.5693 24.3607 19.3425 24.4896 19.1956L25.1932 18.3889L25.2086 18.3709L25.9664 17.6157L25.9844 17.6003L26.7911 16.8992L26.8117 16.8838L27.6649 16.242L27.6855 16.2291L28.585 15.6492L28.6056 15.6363L29.5412 15.1209L29.5644 15.1106L30.5335 14.6621L30.5567 14.6518L31.5567 14.2729L31.5799 14.2652L32.6031 13.9559L32.6263 13.9508L33.6701 13.7137L33.6932 13.7085L34.75 13.5487L34.7732 13.5461L35.8402 13.4585L35.8634 13.4559L36.933 13.443L36.9587 13.4456L38.0232 13.5075L38.049 13.51L39.1263 13.6492L39.1495 13.6544L40.2139 13.8709L40.2397 13.876L41.2835 14.1673L41.3067 14.175L42.3299 14.541L42.3531 14.5487L43.3454 14.9869L43.3685 14.9972L44.3299 15.5049L44.3505 15.5178L45.2731 16.0899L45.2938 16.1054L46.17 16.742L46.1907 16.7575L47.0205 17.4559L47.0386 17.474L47.8169 18.2291L47.835 18.2497L48.5592 19.059L48.5747 19.0771L49.2371 19.9379L49.2525 19.9585L49.853 20.8606L49.8659 20.8838L50.3994 21.8271C50.4974 21.9998 50.4355 22.2163 50.2628 22.3142C50.0927 22.4121 49.8737 22.3503 49.7783 22.1802Z" fill="#E04016" stroke="#E04016"/>
<path d="M49.6106 21.6827L49.175 20.6234L49.1853 20.6466L48.6801 19.6208L48.693 19.6414L48.1183 18.6517L48.1312 18.6723L47.4894 17.7239L47.5049 17.7445L46.7987 16.8424L46.8142 16.8605L46.0513 16.0099L46.0694 16.0254L45.2472 15.229L45.2652 15.2445L44.3915 14.5048L44.4122 14.5203L43.4895 13.8425L43.5101 13.8553L42.5436 13.2419L42.5643 13.2548L41.5591 12.7084L41.5798 12.7213L40.5411 12.2445L40.5617 12.2548L39.4818 11.8476L39.505 11.8553L38.4019 11.5254L38.4251 11.5306L37.2989 11.2754L37.3221 11.2806L36.1829 11.1053L36.2061 11.1079L35.0566 11.01L35.0823 11.0126L33.9277 10.9945H33.9535L32.8014 11.0564L32.8246 11.0538L31.6802 11.1955L31.7034 11.193L30.572 11.412L30.5952 11.4069L29.4793 11.7058L29.505 11.6981L28.4123 12.0718L28.4355 12.0641L27.371 12.5126C27.1906 12.5899 26.9819 12.5048 26.9045 12.3218C26.8272 12.1414 26.9123 11.9327 27.0952 11.8553L28.1571 11.4069L28.1803 11.3966L29.2731 11.0229L29.2963 11.0151L30.4097 10.7187L30.4354 10.7136L31.5669 10.4919L31.5926 10.4894L32.737 10.3476L32.7627 10.345L33.9148 10.2832L33.938 10.2806L35.0926 10.2986L35.1158 10.3012L36.2679 10.3966L36.2911 10.3991L37.4329 10.5744L37.4561 10.5796L38.5823 10.8347L38.6055 10.8399L39.7112 11.1723L39.7344 11.1801L40.8143 11.5873L40.8375 11.595L41.8787 12.0718L41.8993 12.0821L42.9045 12.6285L42.9251 12.6414L43.8915 13.2548L43.9122 13.2677L44.8348 13.9455L44.8529 13.961L45.7266 14.7007L45.7446 14.7161L46.5642 15.5151L46.5822 15.5331L47.3477 16.3837L47.3632 16.4017L48.0668 17.3038L48.0797 17.3244L48.7214 18.2728L48.7343 18.2935L49.3091 19.2832L49.3194 19.3038L49.8271 20.3321L49.8348 20.3527L50.2704 21.412C50.3452 21.595 50.2575 21.8038 50.0745 21.8785C49.8915 21.9533 49.6853 21.8657 49.6106 21.6827Z" fill="#E04016" stroke="#E04016"/>
<path d="M20.8509 9.84796L20.9128 10.3196V10.317L20.9772 10.7887V10.7861L21.1061 11.7243V11.7217L21.1756 12.1908L21.2452 12.6547H21.2427L21.3148 13.116L21.387 13.5799V13.5773L21.4592 14.0413L21.5365 14.5026C21.5674 14.6985 21.436 14.8815 21.2401 14.9124C21.0468 14.9459 20.8638 14.8119 20.8303 14.6186L20.6808 13.6908L20.6086 13.2269V13.2243L20.4695 12.2965V12.2939L20.3999 11.8248L20.3354 11.3558L20.3329 11.3532L20.2684 10.8841V10.8815L20.2066 10.4125L20.1447 9.94081C20.119 9.74751 20.2555 9.5671 20.4514 9.54133C20.6473 9.51556 20.8251 9.65467 20.8509 9.84796Z" fill="#E04016" stroke="#E04016"/>
<path d="M52.1547 28.2219L52.2398 28.4719L52.2346 28.4564L52.3274 28.7039L52.3223 28.691L52.4254 28.9307L52.4202 28.9178L52.5336 29.1549L52.5259 29.1446L52.6496 29.3765L52.6419 29.3636L52.7733 29.5905L52.7656 29.5801L52.9073 29.8018L52.8996 29.7915L53.0233 29.9719L53.0156 29.9616L53.1444 30.1368L53.1393 30.1291L53.2733 30.3018L53.2656 30.2915L53.4073 30.459L53.3996 30.4513L53.5439 30.6136L53.5362 30.6033L53.6882 30.7631L53.6805 30.7528L53.8351 30.9075C53.9769 31.0441 53.9795 31.2709 53.8403 31.41C53.7037 31.5518 53.4769 31.5544 53.3377 31.4178L53.1805 31.2631L53.1728 31.2554L53.0207 31.0982L53.013 31.0879L52.8661 30.9255L52.8583 30.9178L52.7192 30.7502L52.7114 30.7399L52.5774 30.5698L52.5697 30.5595L52.4408 30.3843L52.4331 30.374L52.312 30.1936L52.3042 30.1832L52.1625 29.9616L52.1547 29.9487L52.0233 29.7193L52.0181 29.709L51.8944 29.4745L51.8893 29.4616L51.7759 29.2245L51.7707 29.2116L51.6676 28.9719L51.6625 28.959L51.5671 28.7116L51.562 28.6987L51.4795 28.4487C51.415 28.2631 51.5156 28.0595 51.7011 27.9977C51.8893 27.9358 52.0903 28.0338 52.1547 28.2219Z" fill="#E04016"/>
<path d="M52.0521 27.9177L52.2557 28.0131V28.0105L52.4593 28.1059H52.4568L53.0676 28.3842L53.6707 28.6548L53.8743 28.7451H53.8717L54.0753 28.8353C54.2557 28.9152 54.3382 29.1265 54.2583 29.3043C54.1784 29.4847 53.9671 29.5672 53.7867 29.4873L53.583 29.3971L53.382 29.3069H53.3794L53.1784 29.2167L52.9748 29.1265V29.1239L52.7712 29.0337L52.364 28.8481L52.1604 28.7528H52.1578L51.9568 28.66H51.9542L51.7531 28.5646C51.5727 28.4822 51.4954 28.2708 51.5779 28.0904C51.663 27.9126 51.8743 27.8353 52.0521 27.9177Z" fill="#E04016"/>
<path d="M52.1002 30.3709L52.2445 30.3941H52.2523L52.394 30.4224H52.4043L52.5461 30.4533L52.5538 30.4559L52.6956 30.4894L52.7033 30.492L52.8425 30.5281L52.8528 30.5306L52.9894 30.5719L52.9997 30.5745L53.1389 30.6209L53.2703 30.6672L53.278 30.6698L53.4069 30.7188L53.4172 30.7214L53.5435 30.7755L53.5538 30.7781L53.6801 30.8348L53.6878 30.8373L53.8141 30.8966C53.992 30.9817 54.0693 31.193 53.9842 31.3709C53.9018 31.5513 53.6878 31.626 53.51 31.5435L53.3837 31.4843L53.3914 31.4868L53.2651 31.4327L53.2729 31.4353L53.1466 31.3837L53.1543 31.3863L53.0255 31.3373L53.0332 31.3399L52.9017 31.2935L52.9095 31.2961L52.778 31.2523L52.7883 31.2575L52.6492 31.2162L52.6569 31.2188L52.5177 31.1801L52.528 31.1827L52.3863 31.1492L52.3966 31.1518L52.2548 31.1209L52.2651 31.1234L52.1234 31.0977H52.1311L51.9894 31.0745C51.7935 31.0435 51.6621 30.8631 51.693 30.6672C51.7239 30.4714 51.9069 30.3399 52.1002 30.3709Z" fill="#E04016"/>
<path d="M52.3318 30.7113L52.7803 31.9381L52.7855 31.9562L53.1669 33.2036L53.172 33.2242L53.4865 34.4922L53.4891 34.5103L53.7313 35.7938L53.7339 35.8118L53.9066 37.1056V37.1262L54.0071 38.4278L54.0097 38.4484L54.038 39.7526L54.0355 39.7732L53.9942 41.0773L53.9916 41.0954L53.8757 42.397L53.8731 42.4176L53.6875 43.7088L53.6849 43.7268L53.422 45.0284L53.4169 45.0465L53.0844 46.33L53.0793 46.3506L52.6746 47.6109L52.6669 47.6315L52.1927 48.8686L52.1849 48.8867L51.6411 50.0954L51.6334 50.1135L51.0226 51.2913L51.0123 51.3094L50.3396 52.4511L50.3293 52.4666L49.5922 53.5697L49.5793 53.5852L48.7829 54.6445L48.77 54.6599L47.9143 55.6729C47.788 55.8223 47.5612 55.843 47.4118 55.7141C47.2597 55.5878 47.2417 55.3636 47.3679 55.2115L48.2236 54.1986L48.2107 54.2141L49.0097 53.1548L48.9968 53.1728L49.7339 52.0697L49.7236 52.0877L50.3988 50.946L50.3885 50.964L50.9994 49.7861L50.9916 49.8042L51.5329 48.5954L51.5251 48.6135L52.0019 47.3738L51.9942 47.3944L52.3988 46.1315L52.3937 46.1495L52.7287 44.8686L52.7236 44.8867L52.9839 43.5877L52.9813 43.6057L53.1669 42.3145V42.3351L53.2803 41.0335V41.0541L53.3241 39.7474V39.768L53.2958 38.4639V38.4819L53.1952 37.1804L53.1978 37.201L53.0277 35.9072L53.0303 35.9252L52.788 34.6417L52.7932 34.6624L52.4813 33.3943L52.4865 33.4123L52.105 32.1649L52.1102 32.183L51.6617 30.9562C51.5921 30.7732 51.6875 30.567 51.8731 30.5C52.0586 30.4304 52.2623 30.5257 52.3318 30.7113Z" fill="#E04016"/>
<path d="M47.8967 55.7188L46.6519 56.657L46.6339 56.6699L45.3297 57.5281L45.3117 57.541L43.956 58.3142L43.9354 58.3245L42.5333 59.0101L42.5127 59.0178L41.072 59.6132L41.0488 59.6209L39.572 60.1209L39.5513 60.1287L38.0436 60.5333L38.023 60.5385L36.4946 60.8477L36.4714 60.8529L34.925 61.0617L34.9018 61.0642L33.3476 61.1751L33.3245 61.1776L31.7652 61.1879H31.742L30.1852 61.1003L30.1621 61.0977L28.6002 60.9096L28.577 60.907L27.0306 60.6184L27.0074 60.6132L25.4842 60.224L25.461 60.2189L23.9661 59.7318L23.943 59.724L22.4816 59.1441L22.461 59.1364L21.0384 58.4612L21.0178 58.4509L19.6441 57.688L19.6234 57.6751L18.3013 56.8271L18.2807 56.8117L17.0152 55.8787L16.9971 55.8658L15.7935 54.8503L15.7781 54.8374L14.6415 53.7472L14.626 53.7318L13.5641 52.572C13.4301 52.4277 13.4404 52.2008 13.5847 52.0668C13.7316 51.9354 13.9559 51.9431 14.0899 52.09L15.1518 53.2498L15.1363 53.2318L16.2704 54.3219L16.2549 54.3065L17.4585 55.3194L17.4404 55.3039L18.7059 56.2395L18.6853 56.2266L20.01 57.0772L19.9894 57.0643L21.3657 57.8271L21.3451 57.8168L22.7651 58.4895L22.7445 58.4818L24.2085 59.0617L24.1853 59.0539L25.6827 59.5385L25.6595 59.5333L27.1853 59.9199L27.1621 59.9148L28.7085 60.206L28.6853 60.2008L30.2472 60.389H30.224L31.7807 60.4766H31.7575L33.3193 60.4637H33.2961L34.8529 60.3529L34.8297 60.3555L36.3735 60.1441L36.3528 60.1493L37.8812 59.84L37.858 59.8452L39.3657 59.4405L39.3426 59.4457L40.8194 58.9457L40.7987 58.9534L42.242 58.3581L42.2214 58.3684L43.6209 57.6828L43.6029 57.6931L44.956 56.9199L44.9379 56.9328L46.2395 56.0745L46.2215 56.0874L47.4663 55.1492C47.6235 55.0307 47.8477 55.0616 47.9663 55.2188C48.0849 55.376 48.0539 55.6002 47.8967 55.7188Z" fill="#E04016"/>
<path d="M12.5718 31.0023L12.077 32.1389L12.0847 32.1183L11.6543 33.2806L11.6595 33.2626L11.2961 34.4456L11.3012 34.4276L11.0048 35.6286L11.01 35.6105L10.7832 36.8271L10.7857 36.809L10.6285 38.0359V38.0152L10.5409 39.2523L10.5435 39.2317L10.5254 40.4714L10.5229 40.4508L10.577 41.6879L10.5744 41.6673L10.7007 42.925L10.6981 42.9044L10.894 44.1518L10.8914 44.1312L11.1595 45.3657L11.1543 45.3451L11.4945 46.5616L11.4894 46.5436L11.8992 47.7369L11.8914 47.7188L12.3708 48.8889L12.3605 48.8683L12.9069 50.0075L12.8966 49.9894L13.5074 51.0977L13.4971 51.0797L14.1697 52.1493C14.2728 52.3142 14.2239 52.5359 14.0563 52.6389C13.8888 52.7446 13.6697 52.6956 13.5641 52.5281L12.8914 51.4585L12.8811 51.4405L12.2729 50.3348L12.2626 50.3168L11.7187 49.1776L11.7084 49.1569L11.2316 47.9894L11.2239 47.9688L10.8141 46.7755L10.8089 46.7549L10.4687 45.5384L10.4636 45.5178L10.193 44.2832L10.1904 44.2626L9.99194 43.0152L9.98936 42.9946L9.86565 41.7394L9.86307 41.7188L9.81152 40.4817V40.4611L9.82956 39.2214V39.2008L9.91719 37.9662L9.91977 37.9456L10.077 36.7162L10.0821 36.6956L10.3089 35.4791L10.3141 35.4585L10.6079 34.2549L10.6156 34.2368L10.979 33.0513L10.9842 33.0332L11.4146 31.8709L11.4223 31.8528L11.9172 30.7162C11.9971 30.5358 12.2058 30.4533 12.3888 30.5332C12.5692 30.6105 12.6517 30.8219 12.5718 31.0023Z" fill="#E04016"/>
<path d="M10.08 30.5694L10.299 30.5566H10.3016L10.5207 30.5462H10.5233L10.7423 30.5359L10.7449 30.5334L10.9665 30.5256L11.1882 30.5153H11.1908L11.4073 30.5102H11.4098L11.6289 30.5024H11.6315L11.8506 30.4973L12.0696 30.4947H12.0722L12.2913 30.4921C12.4872 30.4896 12.6495 30.6468 12.6521 30.8452C12.6547 31.0411 12.4949 31.2035 12.299 31.206L12.0799 31.2086H12.0825L11.8635 31.2112H11.866L11.647 31.2164H11.6495L11.4305 31.2215L11.214 31.2292L10.9949 31.237H10.9975L10.7758 31.2473H10.7784L10.5568 31.2576H10.5593L10.3403 31.2705H10.3428L10.1212 31.2834C9.92531 31.2937 9.75521 31.1442 9.7449 30.9483C9.73202 30.7499 9.88408 30.5823 10.08 30.5694Z" fill="#E04016"/>
<path d="M9.83192 30.7113L10.0355 30.4922V30.4948L10.2366 30.2757V30.2783L10.435 30.0567V30.0592L10.6335 29.8376L10.6309 29.8402L10.8293 29.6159V29.6185L10.9917 29.433L10.9891 29.4355L11.1515 29.2474L11.1489 29.25L11.3087 29.0618V29.0644L11.4659 28.8763V28.8788L11.6232 28.6881C11.7494 28.536 11.9762 28.518 12.1257 28.6443C12.2778 28.7706 12.2984 28.9948 12.1721 29.1469L12.0123 29.335V29.3376L11.8525 29.5257L11.6902 29.7139V29.7165L11.3654 30.0876L11.3628 30.0902L11.167 30.3144H11.1644L10.9659 30.5361L10.9634 30.5386L10.7623 30.7577V30.7603L10.5587 30.9793L10.5561 30.9819L10.3525 31.1984C10.2185 31.3427 9.99428 31.3505 9.84995 31.2139C9.70562 31.0799 9.6979 30.8531 9.83192 30.7113Z" fill="#E04016"/>
<path d="M10.2574 28.402L10.6337 28.3969H10.6311L10.8219 28.3943H10.8193L11.0074 28.3917L11.1956 28.3866L11.3734 28.3814H11.3708L11.5487 28.3762H11.5461L11.7239 28.3685L11.9018 28.3634H11.8992L12.077 28.3556C12.2729 28.3479 12.4404 28.5 12.4481 28.6984C12.4559 28.8943 12.3038 29.0618 12.1054 29.0695L11.9275 29.0747L11.7497 29.0824L11.5719 29.0876L11.394 29.0953H11.3915L11.2162 29.1005H11.2136L11.0255 29.103H11.0229L10.8347 29.1082L10.644 29.1108L10.4559 29.1134H10.4533L10.2652 29.1159C10.0667 29.1185 9.90691 28.9613 9.90433 28.7628C9.90175 28.567 10.059 28.4046 10.2574 28.402Z" fill="#E04016"/>
<path d="M5.86614 30.7548L6.01047 31.8657L6.15995 32.9765V32.9739L6.31717 34.0822L6.47696 35.1904V35.1879L6.64191 36.2961V36.2935L6.89707 37.9327V37.9301L7.16253 39.5668V39.5642L7.44088 41.2008V41.1982L7.72954 42.8297V42.8271L8.02851 44.4586C8.06459 44.6519 7.93573 44.8375 7.74243 44.8735C7.54913 44.9096 7.36356 44.7808 7.32748 44.5875L7.02593 42.956V42.9534L6.73727 41.3219V41.3194L6.45892 39.6853V39.6827L6.19346 38.0461L6.19088 38.0436L5.9383 36.4044L5.93573 36.4018L5.77078 35.2935L5.61098 34.1853L5.6084 34.1827L5.45376 33.0719L5.30428 31.961L5.3017 31.9585L5.15737 30.8476C5.1316 30.6543 5.27078 30.4739 5.46407 30.4481C5.65995 30.4224 5.84036 30.5615 5.86614 30.7548Z" fill="#E04016"/>
<path d="M10.4199 43.1959L10.0411 43.3248L10.0668 43.3145L9.69827 43.4743L9.72662 43.4614L9.37353 43.6521L9.39672 43.6366L9.06167 43.8531L9.08487 43.8351L8.76528 44.0799L8.78847 44.0619L8.49208 44.3299L8.5127 44.3093L8.23693 44.6006L8.25754 44.5799L8.00754 44.8918L8.02558 44.8686L7.80136 45.2011L7.81682 45.1779L7.62094 45.5258L7.63383 45.5L7.4663 45.866L7.47919 45.8377L7.34259 46.214L7.35032 46.1856L7.24465 46.5722L7.25238 46.5439L7.17764 46.9382L7.1828 46.9098L7.14156 47.3093L7.14414 47.2784L7.13383 47.6805V47.6521L7.15702 48.0516L7.15445 48.0207L7.21115 48.4176L7.20599 48.3892L7.29362 48.781L7.28589 48.7526L7.40444 49.1315L7.39671 49.1057L7.5462 49.4743L7.53331 49.4485L7.71114 49.8016L7.69826 49.7784L7.90444 50.116L7.88898 50.0928L8.12094 50.415L8.10289 50.3918L8.3632 50.6959L8.34258 50.6727L8.62351 50.9537L8.60289 50.933L8.90702 51.1908L8.88382 51.1727L9.20857 51.4047L9.18279 51.3892L9.52558 51.5928L9.4998 51.5799L9.85547 51.7552L9.8297 51.7423L10.1983 51.8892L10.1725 51.8815L10.5513 51.9975L10.5256 51.9897L10.9122 52.0748L10.8838 52.0696L11.2782 52.1238L11.2498 52.1212L11.6467 52.1418H11.6184L12.0153 52.1315L11.9869 52.1341L12.3812 52.0928L12.3529 52.0954L12.7446 52.0207L12.7163 52.0284L13.1003 51.9227L13.072 51.9305L13.4457 51.7964C13.6312 51.7268 13.8349 51.8222 13.9019 52.0078C13.9715 52.1933 13.8761 52.3995 13.6905 52.4665L13.3168 52.6031L13.2885 52.6109L12.9044 52.7165L12.8787 52.7217L12.4869 52.7964L12.4586 52.8016L12.0617 52.8428L12.0333 52.8454L11.6364 52.8557H11.6081L11.2112 52.8325L11.1828 52.8299L10.7885 52.7784L10.7601 52.7732L10.3709 52.6856L10.3426 52.6805L9.96373 52.5619L9.93538 52.5542L9.56683 52.4073L9.54105 52.3944L9.1828 52.2191L9.15703 52.2062L8.81683 52L8.79363 51.9846L8.46889 51.7526L8.44569 51.7372L8.14415 51.4794L8.12095 51.4588L7.84002 51.1805L7.8194 51.1598L7.56168 50.8557L7.54363 50.8351L7.3091 50.5129L7.29363 50.4872L7.08745 50.147L7.07456 50.1238L6.89415 49.7681L6.88384 49.7423L6.73435 49.3738L6.72405 49.3454L6.60549 48.9665L6.59776 48.9382L6.51013 48.5464L6.50497 48.5181L6.44827 48.1212L6.44569 48.0928L6.4225 47.6933L6.41992 47.665L6.43023 47.2629V47.2346L6.47147 46.8377L6.47662 46.8067L6.55136 46.415L6.55652 46.3866L6.66219 46L6.66992 45.9717L6.80652 45.5954L6.81941 45.5671L6.98436 45.2037L6.99724 45.1779L7.19312 44.8274L7.20859 44.8042L7.43281 44.4717L7.44827 44.4485L7.69828 44.1341L7.71889 44.1135L7.99209 43.8196L8.01271 43.8016L8.3091 43.531L8.3323 43.5129L8.65189 43.2707L8.67508 43.2526L9.01013 43.0361L9.0359 43.0207L9.389 42.8325L9.41477 42.8196L9.78333 42.6598L9.8091 42.6495L10.1905 42.5207C10.3761 42.4588 10.5797 42.5567 10.6416 42.7449C10.706 42.9305 10.6055 43.1341 10.4199 43.1959Z" fill="#E04016"/>
<path d="M48.9921 34.0129L47.7292 34.2758H47.7267L46.4586 34.5284H46.456L45.1854 34.7655H45.1828L43.9096 34.9897L43.907 34.9923L42.6313 35.2036H42.6287L41.3503 35.4021L41.3478 35.4047L40.0668 35.5902H40.0617L38.7808 35.7629L38.7782 35.7655L37.4921 35.9253H37.4895L36.2035 36.0722C36.0076 36.0954 35.8323 35.9536 35.8091 35.7578C35.7859 35.5645 35.9277 35.3866 36.1236 35.3634L37.4071 35.2165H37.4045L38.688 35.0567H38.6854L39.9663 34.884H39.9637L41.2447 34.6985H41.2395L42.5179 34.5H42.5153L43.7885 34.2887H43.7859L45.0565 34.0645H45.054L46.3246 33.8273H46.3194L47.5875 33.5773H47.5823L48.8478 33.3144C49.0411 33.2732 49.2293 33.3969 49.2705 33.5902C49.3092 33.7835 49.1854 33.9717 48.9921 34.0129Z" fill="#E04016"/>
<path d="M48.9126 34.1389L47.5621 34.4611L46.2115 34.7858V34.7833L44.861 35.1106L43.5105 35.4405H43.513L42.1625 35.7729V35.7704L40.9125 36.0822L39.66 36.3941L38.41 36.7059L37.16 37.0229L35.9126 37.34C35.7193 37.3889 35.526 37.2755 35.477 37.0822C35.4281 36.8915 35.544 36.6982 35.7348 36.6492L38.2348 36.0152H38.2374L39.4873 35.7008L40.7399 35.3889L41.9925 35.0796L43.3404 34.7472H43.343L44.6935 34.4173L46.0441 34.09L47.3946 33.7652H47.3972L48.7477 33.443C48.9384 33.3992 49.1317 33.5178 49.1781 33.7085C49.2219 33.8992 49.1059 34.0925 48.9126 34.1389Z" fill="#E04016"/>
<path d="M36.3609 36.3479L36.3222 36.3917L36.3325 36.3789L36.2964 36.4252L36.3068 36.4124L36.2707 36.4613L36.281 36.4459L36.2475 36.4974L36.2578 36.4819L36.2269 36.5335L36.2346 36.518L36.2062 36.5696L36.214 36.5567L36.1882 36.6082L36.1959 36.5928L36.1727 36.6495L36.1779 36.634L36.1598 36.6881L36.165 36.6727L36.147 36.7294L36.1521 36.7139L36.1367 36.7706L36.1392 36.7526L36.1289 36.8118L36.1315 36.7964L36.1212 36.8531L36.1238 36.8376L36.116 36.8943L36.1186 36.8789L36.1135 36.9381V36.9201V36.9794C36.1083 37.1778 35.9459 37.3325 35.7475 37.3273C35.5516 37.3222 35.3944 37.1598 35.3995 36.9613L35.4021 36.9046V36.8866L35.4073 36.8273V36.8118L35.415 36.7526L35.4176 36.7371L35.4279 36.6778L35.4305 36.6624L35.4434 36.6057L35.4459 36.5876L35.4614 36.5309L35.4665 36.5154L35.482 36.4587L35.4897 36.4433L35.5078 36.3892L35.5155 36.3737L35.5387 36.317L35.5439 36.3015L35.5774 36.2345L35.6057 36.183L35.6135 36.1675L35.6521 36.1031L35.6856 36.0541L35.6959 36.0386L35.7294 35.9923L35.7397 35.9794L35.7758 35.933L35.7887 35.9201L35.8274 35.8763C35.9562 35.7294 36.183 35.7139 36.3299 35.8453C36.4769 35.9768 36.4923 36.201 36.3609 36.3479Z" fill="#E04016"/>
<path d="M14.9767 33.5385L16.255 33.7705H16.2525L17.5334 33.9921H17.5308L18.8143 34.2086H18.8117L20.0952 34.4148H20.0926L21.3761 34.6158H21.3736L22.6673 34.8117L22.6648 34.8091L23.9586 34.9973H23.956L25.2498 35.1751H25.2472L26.5436 35.3478H26.541L27.8373 35.5128C28.0332 35.5359 28.1698 35.7138 28.1466 35.9097C28.1208 36.1055 27.943 36.2447 27.7471 36.2189L26.4508 36.054H26.4482L25.1544 35.8839H25.1518L23.858 35.7035H23.8555L22.5617 35.5153H22.5591L21.2679 35.322H21.2653L19.9818 35.121H19.9792L18.6957 34.9122L17.4122 34.6957H17.4097L16.1313 34.4715H16.1287L14.8504 34.2421C14.6545 34.206 14.5256 34.0205 14.5617 33.8272C14.5952 33.6339 14.7808 33.505 14.9767 33.5385Z" fill="#E04016"/>
<path d="M15.0158 33.7345L16.3328 34.1288L16.3276 34.1262L17.6523 34.4999H17.6472L18.9771 34.853L18.9719 34.8505L20.3069 35.1829H20.3018L21.642 35.4948H21.6368L22.9873 35.786H22.9822L24.3353 36.0566H24.3301L25.6884 36.3066H25.6832L27.0441 36.536H27.0389L28.4049 36.7448C28.6008 36.7731 28.7322 36.9561 28.7038 37.152C28.6729 37.3453 28.4925 37.4793 28.2966 37.4484L26.9307 37.2396H26.9255L25.5647 37.0103L25.5595 37.0077L24.2013 36.7577H24.1961L22.8404 36.4845H22.8353L21.4873 36.1907H21.4822L20.1394 35.8788L20.1342 35.8762L18.7992 35.5438L18.794 35.5412L17.4641 35.1881H17.459L16.1342 34.8144L16.1291 34.8118L14.8095 34.4175C14.6214 34.3633 14.5157 34.1623 14.5698 33.9742C14.6265 33.786 14.825 33.6778 15.0158 33.7345Z" fill="#E04016"/>
<path d="M27.9977 37.273L27.9256 37.1621L27.8405 37.0204L27.7761 36.9018L27.7709 36.8889L27.7116 36.7678L27.7039 36.7549L27.6498 36.6312L27.6446 36.6183L27.5957 36.4946L27.5905 36.4791L27.5493 36.3529L27.5441 36.3425L27.5261 36.2807L27.5235 36.2755L27.508 36.2137L27.5054 36.2059L27.49 36.1467L27.4874 36.1389L27.4719 36.0771L27.4694 36.0693L27.4565 36.0101V36.0023L27.4436 35.9405C27.4049 35.7472 27.5286 35.559 27.7219 35.5204C27.9152 35.4817 28.1034 35.6054 28.1421 35.7987L28.1549 35.8606L28.1524 35.8529L28.1678 35.9147L28.1652 35.9096L28.1807 35.9714L28.1781 35.9637L28.1936 36.0255V36.0178L28.2116 36.0797L28.2091 36.0719L28.2271 36.1312L28.2245 36.1209L28.2658 36.2498L28.2606 36.2343L28.3096 36.3606L28.3044 36.3451L28.3585 36.4688L28.3534 36.4559L28.4101 36.5771L28.4049 36.5642L28.4694 36.6802L28.4616 36.6673L28.5286 36.7833L28.5209 36.7704L28.5957 36.8838C28.7039 37.0487 28.6575 37.2704 28.4926 37.376C28.3276 37.4843 28.106 37.4379 27.9977 37.273Z" fill="#E04016"/>
<path d="M28.5437 54.0568L29.0669 54.1625L29.054 54.1599L29.5772 54.2424H29.5644L30.0927 54.3068L30.0798 54.3042L30.6082 54.348H30.5953L31.1262 54.3738H31.1133L31.6443 54.379H31.6314L32.1623 54.3635H32.1494L32.6829 54.33L32.6675 54.3326L33.201 54.2784H33.1881L33.7164 54.2063H33.7035L34.2293 54.1135L34.2164 54.1161L34.737 54.0027L34.7242 54.0052L35.2422 53.8738L35.2293 53.8764L35.7422 53.7243C35.9303 53.6702 36.1288 53.7759 36.1855 53.9666C36.2422 54.1547 36.1339 54.3532 35.9458 54.4099L35.4329 54.5619L35.42 54.5645L34.902 54.696L34.8891 54.7011L34.3659 54.8145L34.353 54.8171L33.8272 54.9099L33.8144 54.9125L33.286 54.9846L33.2731 54.9872L32.7396 55.0413H32.7267L32.1932 55.0774H32.1803L31.6494 55.0929H31.6365L31.1056 55.0877L31.0927 55.0851L30.5618 55.0619L30.5489 55.0594L30.018 55.0156L30.0051 55.013L29.4767 54.9485H29.4638L28.9406 54.8635L28.9278 54.8609L28.4046 54.7578C28.2113 54.7192 28.0876 54.531 28.1262 54.3377C28.1623 54.1444 28.3504 54.0207 28.5437 54.0568Z" fill="#E04016"/>
<path d="M21.5433 38.8993C22.1825 38.8993 22.8345 39.0334 23.4531 39.3194C25.7521 40.3762 26.7598 43.0978 25.7031 45.3967C24.9299 47.0746 23.2727 48.0643 21.5382 48.0643C20.8964 48.0643 20.2469 47.9303 19.6258 47.6442C17.3268 46.5875 16.3191 43.8684 17.3784 41.5695C18.1491 39.889 19.8088 38.8993 21.5433 38.8993ZM21.5433 38.3993C19.618 38.3993 17.7779 39.4973 16.9222 41.3581C15.7495 43.9097 16.8655 46.9277 19.417 48.1006C20.1052 48.4176 20.8268 48.567 21.5355 48.567C23.4608 48.567 25.301 47.4665 26.1566 45.6057C27.3293 43.0541 26.2134 40.0361 23.6618 38.8633C22.9762 38.5488 22.2521 38.3993 21.5433 38.3993Z" fill="#E04016"/>
<path d="M46.7322 45.459C45.5621 48.0054 42.5466 49.1214 40.0003 47.9513C37.4513 46.7786 36.3379 43.7657 37.5081 41.2167C38.6781 38.6703 41.6937 37.5544 44.2399 38.7271C46.7889 39.8972 47.9023 42.9101 46.7322 45.459ZM46.2889 45.2553C47.3456 42.9512 46.3378 40.227 44.0363 39.1703C41.7347 38.111 39.0105 39.1187 37.9512 41.4229C36.8945 43.7244 37.9022 46.4486 40.2038 47.5054C42.5054 48.5647 45.2296 47.5569 46.2889 45.2553Z" fill="#E04016"/>
<path d="M27.9976 45.3838C26.959 48.9044 23.2682 50.9199 19.7528 49.8838C16.2399 48.8477 14.2322 45.1518 15.2708 41.6311C16.3095 38.1105 20.0002 36.095 23.513 37.1337C27.0284 38.1697 29.0362 41.8631 27.9976 45.3838ZM27.5362 45.2497C28.5001 41.9817 26.6393 38.5541 23.379 37.5928C20.1187 36.6315 16.6933 38.5 15.7293 41.768C14.768 45.0361 16.6288 48.4636 19.8891 49.425C23.1494 50.3863 26.5722 48.5177 27.5362 45.2497Z" fill="#E04016"/>
<path d="M15.7912 41.2475L15.5437 41.3274H15.5489L15.304 41.4125L15.3092 41.4099L15.0669 41.5027L15.0721 41.5001L14.8324 41.5955L14.835 41.5929L14.5979 41.6934L14.6004 41.6908L14.3504 41.8017L14.3556 41.7991L14.1082 41.9151H14.1133L13.8659 42.0336H13.871L13.6288 42.1573H13.6339L13.3917 42.2862C13.2808 42.3481 13.1417 42.3068 13.0798 42.196C13.0205 42.0826 13.0618 41.9434 13.1726 41.8841L13.4123 41.7527L13.4174 41.7501L13.6597 41.6238L13.6649 41.6212L13.9097 41.5027L13.9123 41.5001L14.1597 41.3841L14.1649 41.3816L14.4149 41.2707L14.42 41.2682L14.6571 41.1702L14.6623 41.1676L14.902 41.0723L14.9071 41.0697L15.1494 40.9795H15.152L15.3968 40.8919H15.3994L15.6468 40.8094C15.7654 40.7707 15.8968 40.8352 15.9355 40.9563C15.9767 41.0774 15.9097 41.2063 15.7912 41.2475Z" fill="#E04016"/>
<path d="M13.5054 42.1343L13.508 42.4591V42.4616L13.5054 42.7838V42.7864L13.4977 43.1111V43.1137L13.4874 43.4359V43.4384L13.4745 43.7632V43.7658L13.4564 44.1137V44.1163L13.4333 44.4668V44.4694L13.4049 44.8173V44.8199L13.374 45.1678L13.3714 45.173L13.3353 45.5183C13.3224 45.6446 13.2116 45.7374 13.0853 45.7245C12.959 45.7116 12.8662 45.5982 12.8791 45.4719L12.9152 45.124V45.1266L12.9461 44.7786V44.7812L12.9745 44.4333V44.4359L12.9977 44.0879V44.0905L13.0157 43.74V43.7426L13.0286 43.4204V43.423L13.0389 43.0982V43.1008L13.0441 42.7787V42.7812L13.0467 42.4565V42.4591V42.1369C13.0467 42.0106 13.1497 41.9075 13.276 41.9075C13.4023 41.9049 13.5054 42.008 13.5054 42.1343Z" fill="#E04016"/>
<path d="M13.2929 45.3224L13.5584 45.4204H13.5609L13.8238 45.5235C13.8264 45.5235 13.8264 45.5235 13.829 45.526L14.0893 45.6317C14.0919 45.6343 14.0919 45.6343 14.0944 45.6343L14.3522 45.7477H14.3573L14.6151 45.8663H14.6176L14.8728 45.9874C14.8754 45.99 14.8754 45.99 14.8779 45.99L15.1279 46.1163H15.1305L15.3805 46.2477H15.3831L15.6305 46.3817C15.6305 46.3843 15.6331 46.3843 15.6331 46.3843L15.8754 46.5235C15.8779 46.5235 15.8779 46.5235 15.8805 46.526L16.1202 46.6678C16.1228 46.6678 16.1228 46.6704 16.1254 46.6704L16.3625 46.8173C16.4707 46.8843 16.5042 47.0261 16.4372 47.1343C16.3702 47.2425 16.2285 47.276 16.1228 47.209L15.8831 47.0621L15.8857 47.0647L15.646 46.9204L15.6486 46.923L15.4063 46.7838L15.4089 46.7864L15.164 46.6523L15.1666 46.6549L14.9192 46.526H14.9218L14.6718 46.4023H14.6769L14.4218 46.2812L14.4243 46.2838L14.1666 46.1678H14.1718L13.9115 46.057H13.914L13.6537 45.9513H13.6589L13.3934 45.8482L13.3986 45.8508L13.1331 45.7529C13.0146 45.709 12.9527 45.5776 12.9965 45.4565C13.0403 45.3379 13.1743 45.276 13.2929 45.3224Z" fill="#E04016"/>
<path d="M27.3924 40.2678L27.5393 40.2626H27.5522L27.6991 40.2678L27.7145 40.2703L27.8615 40.2832H27.8743L28.0213 40.3064L28.0341 40.309L28.1785 40.3373L28.1914 40.3399L28.3331 40.3786L28.346 40.3837L28.4877 40.4276L28.4981 40.4327L28.6372 40.4868L28.6475 40.492L28.7841 40.5538L28.7944 40.559L28.9259 40.6286L28.9388 40.6363L29.0754 40.7188L29.0883 40.7265L29.2223 40.8219L29.2326 40.8296L29.3614 40.9301L29.3718 40.9404L29.4929 41.0487L29.5032 41.059L29.6166 41.175L29.6269 41.1853L29.7326 41.309L29.7429 41.3193L29.8408 41.4482L29.8486 41.4611L29.9388 41.5951L29.9465 41.608L30.029 41.7497L30.0341 41.7626L30.1089 41.9069C30.1656 42.0203 30.1192 42.1595 30.0058 42.2162C29.8924 42.2729 29.7532 42.2265 29.6965 42.1131L29.6243 41.9662L29.6295 41.9791L29.5496 41.8399L29.5573 41.8502L29.4671 41.7162L29.4749 41.7265L29.3769 41.5976L29.3847 41.608L29.279 41.4868L29.2893 41.4971L29.1759 41.3812L29.1862 41.3889L29.0651 41.2806L29.0754 41.2909L28.9465 41.1904L28.9594 41.1982L28.8254 41.1054L28.8383 41.1131L28.6991 41.0281L28.712 41.0358L28.5805 40.9662L28.5908 40.9714L28.4568 40.9095L28.4697 40.9147L28.3305 40.8605L28.3434 40.8657L28.2017 40.8193L28.2146 40.8219L28.0728 40.7858L28.0857 40.7884L27.9414 40.7574L27.9542 40.76L27.8073 40.7394H27.8202L27.6733 40.7265L27.6862 40.7291L27.5367 40.7239H27.5496L27.4027 40.7265C27.2764 40.7291 27.1707 40.6286 27.1682 40.5023C27.163 40.376 27.2635 40.2703 27.3924 40.2678Z" fill="#E04016"/>
<path d="M30.0002 41.7523L30.343 41.6904H30.3508L30.6935 41.6363H30.7013L31.0466 41.5951H31.0544L31.3997 41.5616H31.4075L31.7528 41.5384H31.7606L32.1085 41.5255H32.1136L32.4023 41.5203H32.4075L32.6961 41.5255H32.7013L32.9899 41.5358H32.9951L33.2812 41.5513H33.2863L33.575 41.5744L33.5801 41.577L33.8662 41.6054C33.9925 41.6183 34.0853 41.7317 34.0724 41.858C34.0569 41.9842 33.9461 42.077 33.8198 42.0641L33.5312 42.0332H33.5363L33.2502 42.01H33.2554L32.9667 41.9945H32.9719L32.6858 41.9842H32.691L32.4023 41.9817H32.4075L32.1188 41.9842H32.124L31.776 41.9971H31.7838L31.4358 42.0203H31.4435L31.0956 42.0513H31.1033L30.758 42.0925H30.7631L30.4178 42.144H30.4255L30.0827 42.2033C29.9564 42.2265 29.8379 42.144 29.8147 42.0177C29.7941 41.894 29.8765 41.7729 30.0002 41.7523Z" fill="#E04016"/>
<path d="M36.5434 40.6214L36.3784 40.6188H36.3913L36.2264 40.6266H36.2393L36.0769 40.642L36.0872 40.6394L35.9248 40.6626L35.9377 40.6601L35.7779 40.6936L35.7882 40.691L35.631 40.7322L35.6413 40.7271L35.4841 40.776L35.497 40.7735L35.3423 40.8302L35.3552 40.825L35.2032 40.8894L35.2161 40.8843L35.0588 40.9616L35.0692 40.9565L34.9171 41.0415L34.9274 41.0364L34.7805 41.1291L34.7908 41.124L34.6491 41.2245L34.6594 41.2168L34.5228 41.3276L34.5331 41.3199L34.4042 41.4384L34.4119 41.4281L34.2908 41.5544L34.2985 41.5441L34.1826 41.6755L34.1903 41.6652L34.082 41.8018L34.0898 41.7915L33.9893 41.9358C33.9171 42.0389 33.7728 42.0647 33.6697 41.9925C33.564 41.9178 33.5408 41.776 33.613 41.6704L33.7135 41.5286L33.7212 41.5183L33.8295 41.3817L33.8372 41.3714L33.9532 41.24L33.9635 41.2297L34.0846 41.1059L34.0949 41.0956L34.2238 40.9797L34.2341 40.9719L34.3707 40.8611L34.381 40.8534L34.5228 40.7503L34.5331 40.7425L34.68 40.6498L34.6903 40.642L34.8423 40.557L34.8552 40.5492L35.0099 40.4719L35.0228 40.4668L35.1722 40.4023L35.1826 40.3972L35.3372 40.3405L35.3475 40.3379L35.5047 40.2889L35.515 40.2864L35.6748 40.2451L35.6877 40.2425L35.8475 40.2116L35.8578 40.209L36.0202 40.1858L36.0331 40.1833L36.1954 40.1678H36.2083L36.3707 40.1601H36.5459C36.6722 40.1626 36.7753 40.2657 36.7728 40.392C36.7728 40.5209 36.6697 40.6214 36.5434 40.6214Z" fill="#E04016"/>
<path d="M27.4278 46.1597L27.5593 46.1546H27.5464L27.6804 46.1391L27.6675 46.1417L27.799 46.1185L27.7861 46.1211L27.915 46.0927L27.9021 46.0953L28.0309 46.0592L28.018 46.0618L28.1443 46.018L28.1315 46.0231L28.2552 45.9716L28.2423 45.9767L28.3634 45.9174L28.3531 45.9252L28.4691 45.8607L28.4562 45.8659L28.5696 45.7963L28.5567 45.804L28.6933 45.7061L28.6804 45.7164L28.8067 45.6082L28.7938 45.621L28.915 45.5051L28.9021 45.5154L29.0129 45.3917L29.0026 45.4046L29.1057 45.2731L29.0954 45.2886L29.1882 45.1494L29.1804 45.1623L29.2629 45.0205L29.2552 45.0334L29.3273 44.8839L29.3222 44.8994L29.384 44.7448L29.3763 44.7602L29.4278 44.603L29.4227 44.6185L29.4639 44.4561L29.4588 44.4716L29.4871 44.3092L29.4845 44.3247L29.5026 44.1597C29.5155 44.0334 29.6263 43.9406 29.7526 43.9535C29.8789 43.9664 29.9717 44.0772 29.9588 44.2035L29.9433 44.3685L29.9407 44.3865L29.9124 44.5489L29.9098 44.5644L29.8711 44.7267L29.866 44.7422L29.8144 44.8994L29.8093 44.9149L29.7474 45.0695L29.7423 45.085L29.6701 45.2345L29.6624 45.2473L29.5799 45.3917L29.5696 45.4071L29.4768 45.5437L29.4691 45.5566L29.366 45.6881L29.3557 45.7009L29.2449 45.8247L29.2345 45.835L29.1134 45.9509L29.1031 45.9613L28.9742 46.0695L28.9614 46.0772L28.8273 46.1752L28.8145 46.1829L28.7036 46.2551L28.6907 46.2628L28.5748 46.3272L28.5645 46.3324L28.4433 46.3917L28.433 46.3968L28.3093 46.4458L28.2964 46.451L28.1701 46.4948L28.1598 46.4999L28.031 46.536L28.0181 46.5412L27.8892 46.5695L27.8763 46.5721L27.7449 46.5953H27.732L27.598 46.6107L27.5851 46.6133L27.4536 46.6211C27.3273 46.6262 27.2165 46.5308 27.2114 46.402C27.2036 46.2757 27.3016 46.1674 27.4278 46.1597Z" fill="#E04016"/>
<path d="M29.6856 43.9329L30.0361 43.8582L30.0438 43.8556L30.3969 43.7912H30.4047L30.7578 43.737H30.7655L31.1212 43.6932H31.1289L31.4871 43.6597H31.4923L31.8531 43.6391H31.8583L32.2036 43.6262H32.5619L32.9047 43.6365H32.9124L33.2552 43.6571H33.2629L33.6057 43.6855H33.6134L33.9562 43.7267C34.0799 43.7396 34.1727 43.853 34.1572 43.9793C34.1418 44.1056 34.0284 44.1958 33.9021 44.1829L33.5593 44.1442H33.567L33.2243 44.1133L33.2294 44.1159L32.8866 44.0953H32.8918L32.549 44.0875H32.5542H32.2114H32.2165L31.8737 44.0978H31.8789L31.5207 44.1185H31.5284L31.1701 44.1494H31.1779L30.8196 44.1932L30.8273 44.1906L30.4717 44.2448H30.4794L30.1263 44.3092L30.1315 44.3066L29.781 44.3814C29.6572 44.4097 29.5361 44.3298 29.5078 44.2061C29.482 44.0798 29.5619 43.9587 29.6856 43.9329Z" fill="#E04016"/>
<path d="M34.1928 43.9461V44.0982V44.0827L34.2005 44.2322L34.1979 44.2167L34.2186 44.3662L34.216 44.3507L34.2443 44.4977L34.2392 44.4848L34.2778 44.6291L34.2753 44.6136L34.3216 44.758L34.3165 44.7425L34.3732 44.8817L34.368 44.8688L34.4325 45.0028L34.4273 44.9899L34.5021 45.1188L34.4943 45.1059L34.5768 45.2322L34.5691 45.2193L34.6593 45.3379L34.6515 45.3275L34.7495 45.441L34.7392 45.4281L34.8448 45.5337L34.8345 45.5234L34.9479 45.6214L34.9351 45.6136L35.0536 45.7013L35.0407 45.6935L35.1644 45.776L35.1516 45.7683L35.2804 45.8404L35.2675 45.8353L35.4015 45.8997L35.3887 45.892L35.5253 45.9487L35.5124 45.9435L35.6516 45.9899L35.6387 45.9874L35.783 46.0234L35.7675 46.0209L35.9119 46.0492L35.899 46.0466L36.0459 46.0647L36.0304 46.0621L36.1799 46.0724H36.1644L36.3113 46.0698H36.2959L36.4454 46.0595C36.5717 46.0518 36.6825 46.1471 36.6902 46.2734C36.7005 46.3997 36.6052 46.5106 36.4789 46.5183L36.332 46.5286C36.3268 46.5312 36.3217 46.5312 36.3165 46.5312H36.167H36.1516L36.0046 46.5234C35.9995 46.5209 35.9943 46.5209 35.9892 46.5209L35.8423 46.5028C35.8371 46.5028 35.832 46.5002 35.8268 46.5002L35.6799 46.4719C35.6747 46.4719 35.6696 46.4693 35.6644 46.4693L35.5227 46.4307C35.5175 46.4307 35.5124 46.4281 35.5072 46.4281L35.3655 46.3791C35.3603 46.3791 35.3577 46.3765 35.3526 46.374L35.2134 46.3198C35.2108 46.3172 35.2057 46.3147 35.2005 46.3121L35.0665 46.2477C35.0613 46.2451 35.0588 46.2425 35.0536 46.2399L34.9247 46.1678C34.9196 46.1652 34.917 46.1626 34.9119 46.16L34.7881 46.0776C34.783 46.075 34.7804 46.0724 34.7753 46.0672L34.6567 45.9796C34.6541 45.9745 34.649 45.9719 34.6464 45.9693L34.533 45.8714L34.5227 45.8611L34.4144 45.7554C34.4119 45.7502 34.4093 45.7477 34.4041 45.7451L34.3062 45.6317C34.301 45.6265 34.2985 45.6239 34.2959 45.6188L34.2031 45.5002C34.2005 45.4951 34.1979 45.4925 34.1954 45.4873L34.1103 45.3636C34.1077 45.3585 34.1052 45.3533 34.1026 45.3507L34.0278 45.2193C34.0253 45.2141 34.0227 45.2116 34.0201 45.2064L33.9557 45.0698C33.9531 45.0672 33.9505 45.0621 33.9479 45.0569L33.8912 44.9178C33.8887 44.9126 33.8887 44.9074 33.8861 44.9023L33.8371 44.7605C33.8371 44.7554 33.8345 44.7502 33.8345 44.7451L33.7959 44.6007C33.7933 44.5956 33.7933 44.5904 33.7933 44.5853L33.765 44.4384C33.7624 44.4332 33.7624 44.4281 33.7624 44.4229L33.7418 44.2734V44.258L33.734 44.1085C33.7314 44.1033 33.7314 44.0982 33.7314 44.093L33.734 43.9435C33.734 43.8147 33.8397 43.7141 33.966 43.7141C34.0923 43.7167 34.1954 43.8198 34.1928 43.9461Z" fill="#E04016"/>
<path d="M48.7168 45.2551C47.6782 48.7757 43.9874 50.7886 40.4747 49.7526C36.9593 48.7165 34.9541 45.0206 35.9927 41.4999C37.0314 37.9791 40.7195 35.9664 44.2349 37.0024C47.7503 38.0385 49.7555 41.7344 48.7168 45.2551ZM48.2581 45.1185C49.222 41.8505 47.3586 38.423 44.0983 37.4616C40.8405 36.5003 37.4152 38.3689 36.4513 41.6369C35.4874 44.9049 37.3508 48.3325 40.6111 49.2938C43.8688 50.2551 47.2941 48.3866 48.2581 45.1185Z" fill="#E04016"/>
<path d="M48.5662 40.6854L48.7234 40.7859L48.7183 40.7833L48.8755 40.8813L48.8703 40.8787L49.0327 40.9715L49.0275 40.9689L49.1899 41.0591L49.1848 41.0565L49.3497 41.1442L49.3446 41.1416L49.5095 41.2241L49.5044 41.2215L49.7002 41.3117L49.6951 41.3091L49.8935 41.3942H49.8884L50.0868 41.4741L50.0817 41.4715L50.2827 41.5462L50.2775 41.5436L50.4812 41.6158L50.476 41.6132L50.6822 41.6777C50.8033 41.7163 50.8703 41.8452 50.8317 41.9663C50.7956 42.0875 50.6667 42.1545 50.5456 42.1158L50.3394 42.0514L50.3317 42.0488L50.1281 41.9792L50.1229 41.9766L49.9219 41.9019L49.9141 41.8993L49.7157 41.8194L49.7105 41.8168L49.5121 41.7318L49.5069 41.7292L49.3111 41.6364L49.3059 41.6339L49.1384 41.5514L49.1358 41.5488L48.9708 41.4637L48.9657 41.4612L48.8033 41.371L48.7982 41.3684L48.6384 41.2756L48.6358 41.273L48.476 41.1751L48.4734 41.1725L48.3162 41.0694C48.2105 41.0024 48.1796 40.8581 48.2492 40.7524C48.3188 40.6467 48.4605 40.6158 48.5662 40.6854Z" fill="#E04016"/>
<path d="M50.9072 41.9304V42.3145L50.9046 42.7011V43.0851L50.902 43.4691V43.8557L50.8995 44.25V44.6444L50.8969 45.0387V45.433L50.8943 45.8274C50.8943 45.9562 50.7912 46.0567 50.6649 46.0567C50.5361 46.0567 50.4355 45.9536 50.4355 45.8274V45.4304L50.4381 45.0361V44.6418L50.4407 44.2475V43.8531L50.4433 43.4691V43.0825L50.4459 42.6985V41.9278C50.4484 41.8015 50.5515 41.6985 50.6778 41.6985C50.8041 41.701 50.9072 41.8041 50.9072 41.9304Z" fill="#E04016"/>
<path d="M50.7645 46.041L50.4398 46.1569H50.445L50.1202 46.2781H50.1254L49.8032 46.4044H49.8084L49.4888 46.5384L49.4913 46.5358L49.1769 46.675H49.1795L48.8651 46.8219L48.8676 46.8193L48.5558 46.9714L48.5584 46.9688L48.2491 47.1286L48.2542 47.126L47.945 47.2884L47.9501 47.2858L47.646 47.4559C47.5352 47.5178 47.396 47.4791 47.3341 47.3657C47.2723 47.2549 47.3109 47.1157 47.4217 47.0538L47.7259 46.8863C47.7285 46.8837 47.7285 46.8837 47.731 46.8837L48.0377 46.7188H48.0403L48.3496 46.559H48.3547L48.6666 46.4069C48.6692 46.4044 48.6692 46.4044 48.6717 46.4044L48.9862 46.2574C48.9888 46.2574 48.9888 46.2574 48.9913 46.2549L49.3058 46.1157C49.3083 46.1157 49.3083 46.1157 49.3109 46.1131L49.6279 45.9791H49.6331L49.9527 45.8502C49.9553 45.8502 49.9553 45.8502 49.9578 45.8477L50.28 45.7265C50.2826 45.7265 50.2826 45.7239 50.2851 45.7239L50.6099 45.608C50.731 45.5642 50.8625 45.6286 50.9037 45.7471C50.9475 45.8657 50.8857 45.9971 50.7645 46.041Z" fill="#E04016"/>
<path d="M20.1774 35.1471L20.1748 35.1574L20.3037 35.1883L21.6387 35.5002L22.9815 35.7914L24.332 36.0621L25.6851 36.3121L27.0408 36.5414L27.6465 36.6342L27.6542 36.6291V36.6265L27.6491 36.6162L27.6001 36.4925L27.5949 36.477L27.5537 36.3507L27.5486 36.3404L27.5305 36.2811L27.5279 36.2734L27.5125 36.2115L27.5099 36.2064L27.5047 36.1883L27.4996 36.1832L26.4506 36.0492L25.1543 35.8791L25.1517 35.8765L23.8579 35.6987H23.8553L22.5616 35.5105L21.2678 35.3172L20.1774 35.1471Z" fill="#E04016"/>
<path d="M36.2317 36.526H36.2342V36.5286L36.2317 36.526ZM39.7729 35.6265L38.7807 35.7605H38.7755L37.492 35.9203H37.4894L36.4431 36.0414H36.4405V36.0466C36.4585 36.1497 36.4327 36.2605 36.358 36.3456L36.3245 36.3842L36.2962 36.4177L36.273 36.4512L36.2472 36.4873L36.2291 36.5208L36.2266 36.5234L36.2317 36.526L36.2342 36.5286L36.9869 36.3353L39.4869 35.7064H39.4895L39.773 35.6342L39.7729 35.6265Z" fill="#E04016"/>
<path d="M21.5434 38.8683C19.796 38.8683 18.1259 39.8632 17.3475 41.5539C16.2831 43.8709 17.2985 46.6106 19.613 47.675C20.2367 47.9611 20.8913 48.0977 21.5382 48.0977C23.2831 48.0977 24.9558 47.1003 25.7316 45.4095C26.796 43.0951 25.7831 40.3554 23.4661 39.291C22.8424 39.0024 22.1877 38.8683 21.5434 38.8683Z" fill="#E04016"/>
<path d="M42.1233 38.7166C40.3733 38.7166 38.7006 39.7166 37.9222 41.4073C36.8552 43.7269 37.8707 46.4692 40.1903 47.5362C40.8165 47.8223 41.4712 47.9589 42.1155 47.9589C43.8655 47.9589 45.5382 46.9615 46.3166 45.2682C47.381 42.9512 46.3681 40.2063 44.0511 39.1418H44.0485C43.4248 38.8532 42.7676 38.7166 42.1233 38.7166Z" fill="#E04016"/>
<path d="M52.5031 31.1468L52.5083 31.1493V31.1468H52.5031ZM52.5031 31.1468L52.4825 31.1751L52.5005 31.1725L52.5031 31.1468ZM52.4825 31.1751L52.4722 31.1777L52.4774 31.1828L52.4825 31.1751ZM52.4774 31.1828L52.4748 31.188L52.4799 31.1854L52.4774 31.1828ZM53.8614 42.4508L53.8588 42.4611L53.8666 42.456L53.8614 42.4508ZM52.4104 28.8351L52.3691 28.8737L52.3949 28.9356V28.9381L52.5032 29.1624L52.6191 29.384V29.3866L52.7429 29.6005H52.7454L52.8769 29.8119L52.8794 29.8144L52.9954 29.9845L53.1166 30.1521H53.1191L53.2454 30.3144L53.248 30.317L53.3794 30.4742L53.5186 30.6289L53.663 30.7783V30.7809L53.815 30.9278C53.8176 30.9304 53.8202 30.933 53.8202 30.9356L53.8459 30.9433H53.8331C53.9722 31.0283 54.0289 31.2062 53.9568 31.3582C53.9026 31.4768 53.7841 31.5464 53.663 31.5464C53.6166 31.5464 53.5702 31.5361 53.5238 31.5155L53.4027 31.4588L53.2815 31.4046L53.163 31.3557H53.1604L53.0418 31.3093L52.9155 31.2655L52.7944 31.2268H52.7918L52.663 31.1881V31.1856L52.5315 31.1521L52.5083 31.1468V31.1493L52.5083 31.1701L52.5005 31.1725L52.498 31.183H52.4929H52.4954L52.4799 31.1854L52.4903 31.201L52.4748 31.188L52.7532 31.9484V31.9458L52.7583 31.9665L53.1398 33.2139L53.1449 33.2319L53.4568 34.4974L53.4594 34.5154L53.7016 35.7989L53.7042 35.817L53.8769 37.1108V37.1288L53.9774 38.4304L53.98 38.4484L54.0057 39.7526V39.7706L53.9619 41.0748V41.0954L53.8459 42.3944V42.4124L53.8434 42.4279V42.4305H53.8459L53.8434 42.433H53.8459L53.8614 42.4508L53.8666 42.4356H53.8795L53.8769 42.4511L53.8923 42.4408L53.8975 42.4433L53.8743 42.464L53.8769 42.4511L53.8666 42.456L53.8743 42.464L53.8614 42.4614L54.0573 42.549L54.0831 42.5619L54.4413 42.7578L54.4645 42.7707L54.8047 42.9949L54.8279 43.0104L55.1501 43.2604L55.1707 43.2758L55.4722 43.5516L55.4903 43.5696L55.7686 43.866L55.7867 43.8892L55.931 44.0696L55.9877 44.049L55.9851 44.0542L56.1578 43.1083L56.449 41.5413L56.7429 39.9743V39.9717L57.0393 38.4073L57.3382 36.8403L57.5624 35.6779L57.7867 34.5181L57.7892 34.5155L58.016 33.3557L58.2454 32.196V32.1934L58.4465 31.1857V31.178L58.4181 31.147L58.2068 31.1393L58.1836 31.1367L57.6965 31.0877L57.6733 31.0852H57.6759L57.1939 31.0027L57.1733 31.0001L56.699 30.8893L56.6784 30.8816L56.2094 30.7424H56.2119L56.1913 30.7347L55.7326 30.5645L55.7145 30.5568L55.2686 30.3584L55.2506 30.3481L54.8176 30.1213L54.7996 30.1109L54.382 29.8558L54.364 29.8455L53.9645 29.5671L53.949 29.5517L53.8614 29.4821L53.8537 29.5182L53.8511 29.5156V29.4769C53.8331 29.4718 53.8176 29.4666 53.7996 29.4589L53.596 29.3687L53.3949 29.2785H53.3924L53.1913 29.1883H53.1887L52.9877 29.0981V29.0955L52.7841 29.0053L52.5805 28.9125L52.4104 28.8351Z" fill="#E04016"/>
<path d="M5.89163 30.9561L5.86844 30.9819H5.89163V30.9561ZM5.86844 30.9819H5.86328V30.9844H5.86586L5.86844 30.9819ZM5.86586 30.9844V30.987H5.86844L5.86586 30.9844ZM11.2782 29.0669L11.2164 29.0695H11.2138L11.0256 29.0746H11.0231L10.8349 29.0772H10.8323L10.6468 29.0823L10.6442 29.0798L10.4535 29.0823L10.3323 29.0849L10.3607 29.1133L10.3143 29.0901L9.9844 29.3401L9.96893 29.353V29.3504L9.54883 29.6313L9.53337 29.6416L9.10038 29.8994L9.08234 29.9071L8.63388 30.139L8.61584 30.1468L8.15708 30.3504L8.13646 30.3581H8.13904L7.66739 30.5359L7.64935 30.5437L7.16739 30.6932L7.14677 30.6983H7.14935L6.65966 30.8194L6.63904 30.8246L6.11069 30.9251L6.09007 30.9277L5.89162 30.9535L5.89163 30.9561L5.89419 30.9535L5.89677 30.9792L5.89163 30.9819L5.89162 30.9844L5.86844 30.987L5.89419 31.0127L5.86586 30.987L5.97925 31.871L6.13131 32.9792L6.28595 34.0875L6.44575 35.1932L6.6107 36.2988L6.86585 37.9355L7.13389 39.5695L7.40967 41.2035L7.69833 42.835L7.89421 43.8995L7.94575 43.9149L8.01534 43.8428L8.03338 43.8221L8.32978 43.5541L8.35297 43.5361L8.66998 43.2938L8.6906 43.2783L9.02823 43.0618L9.05143 43.0489L9.40452 42.8608L9.42772 42.8479L9.7937 42.6881L9.81947 42.6778L9.96122 42.6314L9.98184 42.6031V42.6005L9.89421 41.7371V41.7165L9.84267 40.4793L9.84009 40.4613L9.85813 39.2216L9.86071 39.2036L9.94833 37.969L9.95091 37.9484L10.1081 36.7216L10.1107 36.701L10.3375 35.4844L10.3427 35.4664L10.6391 34.2628L10.6442 34.2448L11.0076 33.0618L11.0128 33.0437L11.4432 31.8814L11.4509 31.8633L11.7293 31.2293L11.7318 31.2164L11.7009 31.1855H11.6468L11.4303 31.1932L11.2112 31.1984L10.9922 31.2087L10.7757 31.2164L10.5592 31.2267H10.5566L10.3401 31.2396H10.3375L10.2447 31.2448L10.2473 31.2783H10.2447H10.2422L10.2344 31.2499H10.2319C10.188 31.2705 10.1416 31.2808 10.0927 31.2808C10.0128 31.2808 9.93288 31.2525 9.87103 31.1932C9.78597 31.1133 9.75247 30.9973 9.77309 30.8917H9.77051L9.77567 30.8839C9.78855 30.7886 9.84525 30.7035 9.92515 30.652H9.92257L9.93803 30.6442L10.0566 30.5154L10.0592 30.5128L10.2576 30.2989L10.4587 30.0798V30.0772L10.6571 29.8582L10.8504 29.6391L11.0128 29.4535L11.1726 29.268L11.304 29.1159L11.2782 29.0669Z" fill="#E04016"/>
</g>
<defs>
<clipPath id="clip0_584_9396">
<rect width="63.3402" height="64" fill="white" transform="translate(0 0.5)"/>
</clipPath>
</defs>
</svg>
