<svg width="24" height="24" viewBox="0 0 24 24" fill="none" xmlns="http://www.w3.org/2000/svg">
<g clip-path="url(#clip0_745_1676)">
<path d="M22.1786 11.5002L21.9205 12.805L21.8364 13.2408L21.7523 13.6758L21.6402 14.2634V14.2624L21.5291 14.8501L21.4189 15.4377V15.4367L21.3107 16.0244L21.2034 16.612C21.1898 16.6854 21.1203 16.7328 21.0478 16.7202C20.9743 16.7067 20.927 16.6371 20.9395 16.5646L21.0478 15.976L21.156 15.3884L21.2662 14.8008V14.7998L21.3773 14.2131L21.4895 13.6255L21.5735 13.1896L21.6586 12.7537L21.7436 12.3188V12.3179L21.8297 11.8829L21.9166 11.448C21.9311 11.3755 22.0017 11.3282 22.0742 11.3427C22.1467 11.3572 22.1931 11.4277 22.1786 11.5002Z" fill="#FCF5FF" stroke="#FCF5FF" stroke-width="0.7"/>
<path d="M20.1363 15.696L20.2765 15.7579L20.2851 15.7627L20.4205 15.8361L20.4292 15.8419L20.5577 15.926L20.5664 15.9318L20.6872 16.0256L20.6959 16.0323L20.809 16.1358L20.8167 16.1435L20.9211 16.2556L20.9288 16.2633L21.0236 16.3832L21.0303 16.3919L21.1163 16.5185L21.1212 16.5282L21.1966 16.6615L21.2014 16.6712L21.2661 16.8104L21.27 16.82L21.3232 16.964L21.327 16.9737L21.3686 17.1216L21.3705 17.1312L21.4005 17.282L21.4024 17.2927L21.4198 17.4454L21.4208 17.456L21.4266 17.6087V17.6193L21.4198 17.773L21.4189 17.7836L21.3995 17.9354L21.3976 17.946L21.3667 18.0958L21.3647 18.1064L21.3222 18.2534L21.3183 18.264L21.2642 18.4061L21.2603 18.4157L21.1946 18.5539L21.1898 18.5636L21.1144 18.696L21.1086 18.7047L21.0226 18.8303L21.0168 18.839L20.9201 18.9579L20.9134 18.9657L20.809 19.0768L20.8013 19.0836L20.6882 19.186L20.6795 19.1928L20.5587 19.2856L20.55 19.2914L20.4224 19.3745L20.4127 19.3803L20.2784 19.4528L20.2697 19.4566L20.1295 19.5185L20.1199 19.5224L19.9759 19.5736L19.9662 19.5765L19.8183 19.6151L19.8087 19.6171L19.6579 19.6451L19.6473 19.6461L19.4955 19.6615H19.4859L19.3332 19.6654L19.3225 19.6644L19.1698 19.6557L19.1592 19.6548L19.0084 19.6335L18.9978 19.6325L18.8489 19.5997C18.7774 19.5832 18.731 19.5117 18.7475 19.4402C18.7629 19.3677 18.8344 19.3223 18.9069 19.3378L19.0558 19.3706L19.0451 19.3687L19.1959 19.39L19.1862 19.389L19.338 19.3977H19.3273L19.4801 19.3948H19.4694L19.6212 19.3803L19.6105 19.3813L19.7603 19.3542L19.7507 19.3561L19.8976 19.3175L19.8879 19.3204L20.0319 19.2701L20.0213 19.274L20.1614 19.2121L20.1518 19.2169L20.2861 19.1445L20.2764 19.1503L20.405 19.0671L20.3963 19.0729L20.5171 18.9802L20.5084 18.9869L20.6225 18.8854L20.6147 18.8922L20.7191 18.782L20.7123 18.7898L20.808 18.6709L20.8013 18.6796L20.8882 18.5539L20.8824 18.5626L20.9578 18.4302L20.953 18.4399L21.0187 18.3017L21.0139 18.3113L21.068 18.1693L21.0651 18.1789L21.1076 18.032L21.1047 18.0417L21.1357 17.8919L21.1337 17.9025L21.1531 17.7508L21.1521 17.7614L21.1589 17.6077V17.6184L21.1531 17.4657L21.154 17.4763L21.1366 17.3236L21.1386 17.3342L21.1086 17.1834L21.1105 17.1941L21.069 17.0462L21.0728 17.0568L21.0197 16.9128L21.0236 16.9225L20.9588 16.7833L20.9636 16.793L20.8882 16.6596L20.894 16.6683L20.808 16.5417L20.8148 16.5504L20.7191 16.4305L20.7259 16.4383L20.6215 16.3262L20.6292 16.3339L20.5152 16.2305L20.5239 16.2372L20.4021 16.1435L20.4108 16.1493L20.2832 16.0652L20.2919 16.071L20.1576 15.9975L20.1672 16.0024L20.0271 15.9396C19.9594 15.9096 19.9295 15.8303 19.9594 15.7637C19.9894 15.696 20.0687 15.6651 20.1363 15.696Z" fill="#FCF5FF" stroke="#FCF5FF" stroke-width="0.7"/>
<path d="M19.9963 10.3376L20.1239 10.469L20.1181 10.4632L20.2534 10.586L20.2466 10.5802L20.3896 10.6952L20.3829 10.6894L20.5327 10.7947L20.5259 10.7899L20.6825 10.8856L20.6748 10.8817L20.8371 10.9668L20.8294 10.9629L20.9966 11.0373L20.9889 11.0344L21.1599 11.0982L21.1522 11.0953L21.3271 11.1485L21.3194 11.1465L21.4973 11.1881L21.4895 11.1861L21.6703 11.2171L21.6616 11.2151L21.8442 11.2345L21.8355 11.2335L22.0201 11.2403H22.0114L22.1951 11.2364H22.1864L22.37 11.22L22.3613 11.2209L22.543 11.1929L22.5353 11.1948L22.715 11.1552L22.7063 11.1571L22.8832 11.1059L22.8745 11.1088L23.0485 11.047L23.0398 11.0499L23.2089 10.9774L23.2012 10.9803L23.3655 10.8972L23.3577 10.901L23.5163 10.8073C23.5791 10.7696 23.6612 10.7899 23.6989 10.8537C23.7366 10.9175 23.7163 10.9996 23.6525 11.0373L23.494 11.1311L23.4873 11.1349L23.323 11.219L23.3152 11.2229L23.1461 11.2954L23.1384 11.2983L22.9654 11.3611L22.9576 11.363L22.7808 11.4142L22.7721 11.4162L22.5923 11.4558L22.5846 11.4577L22.4019 11.4858L22.3942 11.4867L22.2105 11.5032H22.2018L22.0182 11.508H22.0095L21.8259 11.5012L21.8172 11.5003L21.6345 11.4819L21.6258 11.4809L21.4451 11.45L21.4364 11.449L21.2585 11.4065L21.2498 11.4046L21.0749 11.3514L21.0672 11.3495L20.8951 11.2847L20.8874 11.2818L20.7202 11.2074L20.7125 11.2035L20.5501 11.1185L20.5433 11.1137L20.3867 11.0189L20.38 11.0141L20.2292 10.9088L20.2224 10.9039L20.0794 10.7899L20.0736 10.7841L19.9373 10.6613L19.9315 10.6546L19.804 10.5231C19.7527 10.47 19.7547 10.3859 19.8069 10.3347C19.86 10.2825 19.9451 10.2844 19.9963 10.3376Z" fill="#FCF5FF" stroke="#FCF5FF" stroke-width="0.7"/>
<path d="M21.2605 7.53773L21.3726 7.80932L21.3707 7.80449L21.4944 8.07124L21.4925 8.06737L21.6249 8.32929L21.623 8.32543L21.766 8.58156L21.7631 8.57769L21.9158 8.82898L21.9129 8.82511L22.0743 9.0706L22.0714 9.06673L22.2425 9.30546L22.2396 9.30159L22.4242 9.54128L22.4213 9.53645L22.6155 9.76841L22.6117 9.76454L22.8146 9.98877L22.8117 9.9849L23.0234 10.2014L23.0195 10.1985L23.2389 10.4063L23.2351 10.4024L23.4632 10.6015L23.4583 10.5986L23.6942 10.789C23.7512 10.8354 23.7599 10.9195 23.7135 10.9765C23.6671 11.0345 23.583 11.0432 23.525 10.9968L23.2902 10.8064L23.2863 10.8035L23.0592 10.6035L23.0553 10.6006L22.8349 10.3928L22.832 10.3889L22.6204 10.1724L22.6165 10.1685L22.4135 9.94431L22.4106 9.94045L22.2164 9.70849L22.2125 9.70462L22.0279 9.46493L22.025 9.46106L21.8539 9.22137L21.851 9.21751L21.6896 8.97202L21.6867 8.96815L21.534 8.7159L21.5321 8.71204L21.3891 8.45494L21.3862 8.45011L21.2538 8.18819L21.2509 8.18336L21.1281 7.91661L21.1262 7.91178L21.0131 7.64018C20.9851 7.57252 21.017 7.49424 21.0846 7.46524C21.1532 7.43722 21.2315 7.46911 21.2605 7.53773Z" fill="#FCF5FF" stroke="#FCF5FF" stroke-width="0.7"/>
<path d="M22.7504 6.29195L22.6924 6.3973L22.6905 6.40213L22.6286 6.50458L22.6248 6.50941L22.559 6.60896L22.5561 6.61379L22.4856 6.71141L22.4827 6.71528L22.4083 6.80999L22.4044 6.81386L22.3261 6.90471L22.3223 6.90954L22.2411 6.99652L22.2372 7.00039L22.1512 7.08544L22.1473 7.08931L22.0555 7.17243L22.0516 7.17533L21.9569 7.25458L21.9521 7.25845L21.8535 7.33287L21.8487 7.33673L21.7482 7.40729L21.7433 7.41019L21.6389 7.47687L21.6341 7.47977L21.5268 7.54163L21.522 7.54453L21.4118 7.60155L21.407 7.60349L21.2949 7.65568C21.2282 7.68757 21.148 7.65858 21.117 7.59189C21.0861 7.52423 21.1141 7.44498 21.1818 7.41309L21.2939 7.36089L21.2881 7.36379L21.3983 7.30677L21.3934 7.30967L21.4998 7.24781L21.4949 7.25071L21.5993 7.18403L21.5945 7.18789L21.696 7.11734L21.6911 7.12024L21.7897 7.04582L21.7859 7.04872L21.8806 6.97043L21.8757 6.97333L21.9676 6.89118L21.9637 6.89504L22.0487 6.80999L22.0449 6.81386L22.127 6.72687L22.1232 6.73074L22.2014 6.63989L22.1976 6.64375L22.272 6.55L22.2691 6.55387L22.3387 6.45722L22.3358 6.46109L22.4015 6.36154L22.3986 6.36637L22.4614 6.26392L22.4585 6.26779L22.5156 6.16341C22.5513 6.09865 22.6325 6.07449 22.6973 6.11025C22.762 6.14601 22.7862 6.2272 22.7504 6.29195Z" fill="#FCF5FF" stroke="#FCF5FF" stroke-width="0.7"/>
<path d="M22.5834 6.37608L22.4036 6.38092H22.3949L22.2151 6.37512H22.2074L22.0276 6.35869L22.0199 6.35772L21.8421 6.32969L21.8343 6.32873L21.6584 6.29007L21.6507 6.28813L21.4767 6.23981L21.469 6.23691L21.2999 6.17795L21.2921 6.17505L21.1259 6.10547L21.1191 6.1016L20.9577 6.02235L20.95 6.01848L20.7944 5.9286L20.7866 5.92473L20.6368 5.82615L20.6301 5.82132L20.4899 5.71693L20.4841 5.7121L20.3498 5.59902L20.344 5.59322L20.2174 5.47338L20.2116 5.46758L20.0917 5.34L20.0869 5.33324L19.9758 5.19889L19.97 5.19213L19.8665 5.05102L19.8627 5.04522L19.768 4.89831L19.7631 4.89058L19.6771 4.73884L19.6742 4.73208L19.5969 4.57454L19.594 4.56681L19.5263 4.4054L19.5234 4.39767L19.4664 4.23337C19.4422 4.16281 19.479 4.08646 19.5486 4.0623C19.6182 4.03813 19.6945 4.07486 19.7187 4.14445L19.7767 4.30972L19.7738 4.30295L19.8404 4.46436L19.8375 4.45663L19.9139 4.61417L19.911 4.6074L19.997 4.75914L19.9922 4.75237L20.0869 4.90025L20.083 4.89348L20.1865 5.03459L20.1816 5.02782L20.2928 5.16314L20.2879 5.15734L20.4068 5.28491L20.402 5.27911L20.5286 5.39992L20.5228 5.39413L20.6562 5.50721L20.6504 5.50237L20.7905 5.60676L20.7837 5.60192L20.9336 5.70051L20.9268 5.69664L21.0834 5.78556L21.0756 5.78169L21.237 5.86191L21.2293 5.85804L21.3955 5.92763L21.3878 5.92473L21.5579 5.98466L21.5502 5.98176L21.7232 6.03105L21.7154 6.02911L21.8904 6.06681L21.8826 6.06584L22.0605 6.0929L22.0528 6.09194L22.2316 6.10837H22.2238L22.4036 6.1132H22.3949L22.5747 6.10837C22.6491 6.10547 22.71 6.16346 22.7129 6.23788C22.7148 6.31133 22.6568 6.37318 22.5834 6.37608Z" fill="#FCF5FF" stroke="#FCF5FF" stroke-width="0.7"/>
<path d="M19.5064 4.28833L18.9796 3.91816L18.9845 3.92106L18.4423 3.57214L18.4471 3.57601L17.8914 3.2503L17.8962 3.2532L17.3269 2.95068L17.3318 2.95358L16.7509 2.67619L16.7557 2.67812L16.1633 2.42491L16.1681 2.42684L15.566 2.19875L15.5708 2.20068L14.959 1.99868L14.9648 1.99965L14.3482 1.82375L14.353 1.82471L13.7296 1.67491L13.7354 1.67587L13.1053 1.55216L13.1111 1.55313L12.477 1.45455L12.4828 1.45551L11.845 1.38399L11.8508 1.38496L11.2109 1.3405H11.2158L10.575 1.3231H10.5808L9.93903 1.3318C9.86558 1.33277 9.80469 1.27381 9.80372 1.19939C9.80276 1.12594 9.86171 1.06505 9.93517 1.06408L10.5769 1.05538H10.5827L11.2235 1.07278L11.2293 1.07375L11.8691 1.1182H11.8749L12.5128 1.18972L12.5176 1.19069L13.1516 1.28831L13.1574 1.28927L13.7866 1.41395L13.7924 1.41492L14.4158 1.56473L14.4216 1.56666L15.0382 1.74256L15.044 1.74449L15.6549 1.94649L15.6607 1.94843L16.2628 2.17652L16.2686 2.17942L16.8611 2.43167L16.8659 2.43457L17.4468 2.71195L17.4526 2.71485L18.0218 3.01641L18.0267 3.01931L18.5824 3.34502L18.5872 3.34792L19.1294 3.69584L19.1343 3.69874L19.661 4.06988C19.7209 4.1124 19.7354 4.19552 19.6929 4.25641C19.6504 4.31633 19.5673 4.33085 19.5064 4.28833Z" fill="#FCF5FF" stroke="#FCF5FF" stroke-width="0.7"/>
<path d="M9.95091 1.33182L9.77887 1.42267L9.7837 1.41977L9.61553 1.51739L9.62037 1.51449L9.45606 1.61887L9.4609 1.61597L9.30046 1.72615L9.30529 1.72325L9.14968 1.8402L9.15355 1.83633L9.00374 1.95908L9.00761 1.95618L8.86167 2.08472L8.86553 2.08086L8.72539 2.21617L8.72926 2.21133L8.58428 2.36307L8.58815 2.35921L8.44994 2.51578L8.45381 2.51191L8.32236 2.67525L8.32623 2.67042L8.20155 2.83955L8.20542 2.83472L8.08847 3.00869L8.09137 3.00386L7.98215 3.18266L7.98505 3.17783L7.88357 3.36146L7.88647 3.35566L7.79272 3.54316C7.75986 3.60985 7.67964 3.63691 7.61392 3.60405C7.54723 3.57119 7.52017 3.49097 7.55303 3.42428L7.64678 3.23678L7.64968 3.23195L7.75116 3.04832L7.75406 3.04348L7.86328 2.86468L7.86618 2.85985L7.98312 2.68491L7.98602 2.68105L8.1107 2.51191L8.1136 2.50708L8.24504 2.34374L8.24891 2.33988L8.38712 2.18234L8.39098 2.1775L8.53596 2.02673L8.54079 2.02286L8.68093 1.88852L8.6848 1.88466L8.82977 1.75514L8.83364 1.75224L8.98441 1.6295L8.98925 1.62563L9.14389 1.50869L9.14872 1.50579L9.30819 1.39561L9.31302 1.39271L9.47733 1.28833L9.48119 1.28543L9.64936 1.18878L9.65419 1.18588L9.82623 1.09503C9.89195 1.0612 9.97314 1.08633 10.007 1.15108C10.0418 1.2168 10.0166 1.29799 9.95091 1.33182Z" fill="#FCF5FF" stroke="#FCF5FF" stroke-width="0.7"/>
<path d="M7.64908 3.59826L7.50894 3.54897L7.51377 3.54994L7.37267 3.50645L7.37653 3.50741L7.23446 3.46779L7.23929 3.46875L7.09528 3.43396L7.09915 3.43493L6.95514 3.40497H6.95901L6.81403 3.37984L6.8179 3.3808L6.67196 3.35954L6.67582 3.36051L6.54148 3.34601H6.54535L6.41004 3.33538H6.4139L6.27859 3.32958H6.28246L6.14618 3.32668H6.15102L6.01474 3.32861H6.01861L5.8833 3.33441H5.88716L5.75185 3.34408C5.6784 3.34988 5.61461 3.29382 5.60881 3.22037C5.60301 3.14691 5.65907 3.08312 5.73252 3.07733L5.86783 3.06766H5.8717L6.00797 3.0609H6.01184L6.14715 3.05993H6.15102L6.28729 3.06186H6.29116L6.42647 3.06863H6.43033L6.56564 3.07926L6.57047 3.08023L6.70482 3.09472H6.70965L6.85559 3.11599H6.85945L7.00539 3.14208H7.00926L7.15423 3.17301L7.15907 3.17398L7.30211 3.20877L7.30597 3.20973L7.44901 3.24936L7.45288 3.25033L7.59399 3.29479L7.59785 3.29672L7.73703 3.34504C7.80758 3.37017 7.84334 3.44653 7.81918 3.51612C7.79502 3.5857 7.71867 3.62243 7.64908 3.59826Z" fill="#FCF5FF" stroke="#FCF5FF" stroke-width="0.7"/>
<path d="M5.83314 3.31695L5.56446 3.51024L5.57026 3.50638L5.31124 3.71224L5.31607 3.70838L5.06768 3.9268L5.07251 3.92294L4.83572 4.15296L4.84055 4.1491L4.6144 4.39072L4.61923 4.38589L4.40563 4.6391L4.41047 4.63427L4.20943 4.89715L4.2133 4.89232L4.02677 5.16488L4.02967 5.16005L3.87019 5.41811L3.87309 5.41328L3.72619 5.67906L3.72909 5.67326L3.59378 5.94486L3.59571 5.94003L3.47296 6.21741L3.47586 6.21161L3.36568 6.49479L3.36762 6.48899L3.27 6.77701L3.27193 6.77121L3.18785 7.0631L3.18978 7.0573L3.11923 7.35304C3.10183 7.42456 3.03031 7.46902 2.95782 7.45259C2.8863 7.4352 2.84184 7.36271 2.85924 7.29119L2.9298 6.99544L2.93076 6.98965L3.01485 6.69776L3.01678 6.69196L3.11343 6.40394L3.11633 6.39814L3.22651 6.11496L3.22844 6.10916L3.35119 5.83178L3.35409 5.82598L3.4894 5.55438L3.4923 5.54858L3.6392 5.2828L3.64307 5.27797L3.80254 5.01894L3.80544 5.01411L3.99294 4.74059L3.9968 4.73575L4.19687 4.4719L4.20073 4.46707L4.41433 4.21386L4.41916 4.20902L4.64436 3.96643L4.64919 3.9616L4.88598 3.73061L4.89081 3.72578L5.1392 3.50735L5.14403 3.50348L5.40306 3.29665L5.40886 3.29279L5.67753 3.09949C5.73746 3.05696 5.82057 3.07049 5.86407 3.13042C5.90756 3.19034 5.89306 3.27442 5.83314 3.31695Z" fill="#FCF5FF" stroke="#FCF5FF" stroke-width="0.7"/>
<path d="M0.0393309 10.7396L0.315752 10.5483L0.309952 10.5512L0.577664 10.3482L0.572831 10.3521L0.830893 10.1365L0.826061 10.1404L1.07445 9.91327L1.06962 9.91811L1.30737 9.68035L1.30351 9.68421L1.52967 9.43679L1.5258 9.44066L1.74133 9.18356L1.73746 9.18839L1.94043 8.92165L1.93656 8.92648L2.12696 8.65199L2.12406 8.65682L2.3019 8.37365L2.299 8.37848L2.46427 8.08852L2.46137 8.09336L2.61311 7.79568L2.61117 7.80148L2.74938 7.49703L2.74745 7.50186L2.87213 7.19162C2.90016 7.123 2.97747 7.09013 3.0461 7.11816C3.11472 7.14522 3.14854 7.22351 3.12052 7.29213L2.99584 7.60237L2.99294 7.6072L2.85473 7.91166L2.85183 7.91746L2.70009 8.21513L2.69719 8.21996L2.53192 8.51088L2.52805 8.51668L2.35022 8.79889L2.34732 8.80469L2.15595 9.07918L2.15305 9.08402L1.95009 9.3498L1.94622 9.35463L1.73166 9.61269L1.72683 9.61752L1.50067 9.86495L1.4968 9.86978L1.25905 10.1066L1.25421 10.1114L1.00679 10.3376L1.00196 10.3414L0.744861 10.557L0.740029 10.5608L0.472317 10.7648L0.467485 10.7677L0.192029 10.959C0.131141 11.0015 0.0480219 10.9861 0.00549487 10.9252C-0.0370321 10.8643 -0.0215598 10.7812 0.0393309 10.7396Z" fill="#FCF5FF" stroke="#FCF5FF" stroke-width="0.7"/>
<path d="M0.184697 10.7715L0.362533 10.8672L0.355767 10.8634L0.539402 10.9484L0.53167 10.9445L0.721101 11.018L0.713369 11.0151L0.905701 11.076L0.897969 11.074L1.09417 11.1233L1.08644 11.1214L1.28553 11.1581L1.27684 11.1572L1.47787 11.1813H1.47014L1.67213 11.1929H1.66343H1.86543H1.8577L2.0597 11.1804L2.051 11.1813L2.25203 11.1562L2.2443 11.1572L2.4434 11.1204L2.4347 11.1214L2.61834 11.076L2.61157 11.0779L2.7923 11.0219L2.78457 11.0238L2.96144 10.9571L2.95467 10.96L3.12768 10.8837L3.12091 10.8866L3.28908 10.8005L3.28232 10.8034L3.44469 10.7078L3.43889 10.7116L3.59546 10.6063L3.58966 10.6111L3.74044 10.4971L3.73464 10.5019L3.87864 10.3791L3.87285 10.384L4.00912 10.2535L4.00429 10.2583L4.13283 10.1201C4.18309 10.066 4.26814 10.0631 4.32226 10.1134C4.37639 10.1636 4.37929 10.2487 4.32903 10.3028L4.19952 10.441L4.19469 10.4468L4.05744 10.5773L4.05164 10.5821L3.90764 10.7048L3.90184 10.7097L3.75106 10.8237L3.74526 10.8286L3.58773 10.9339L3.58096 10.9378L3.41859 11.0344L3.41182 11.0383L3.24269 11.1243L3.23592 11.1282L3.06292 11.2045L3.05615 11.2074L2.87929 11.2741L2.87155 11.277L2.69082 11.3331L2.68405 11.335L2.50042 11.3814L2.49269 11.3833L2.29359 11.4201L2.28489 11.422L2.08483 11.4471H2.07613L1.87413 11.4597L1.8664 11.4606H1.6557L1.4537 11.4481L1.44501 11.4471L1.24398 11.423L1.23624 11.421L1.03714 11.3843L1.02941 11.3824L0.833214 11.3331L0.825482 11.3311L0.632183 11.2702L0.624451 11.2673L0.435984 11.1949L0.428252 11.191L0.243653 11.1069L0.236887 11.103L0.0580847 11.0074C-0.00667081 10.9726 -0.0317991 10.8914 0.0029935 10.8266C0.0387535 10.7619 0.118975 10.7367 0.184697 10.7715Z" fill="#FCF5FF" stroke="#FCF5FF" stroke-width="0.7"/>
<path d="M8.85433 8.78648L8.62043 8.71302L8.62817 8.71592L8.39041 8.65696L8.39814 8.6589L8.15652 8.61444L8.16521 8.6154L7.92166 8.58641L7.92939 8.58738L7.68487 8.57288H7.6926H7.44711H7.45581L7.21032 8.58834L7.21901 8.58738L6.97546 8.6183L6.98319 8.61637L6.74156 8.66179L6.75026 8.65986L6.51154 8.71978L6.52024 8.71785L6.28538 8.79227L6.29311 8.78937L6.07565 8.87249L6.08338 8.86959L5.87075 8.96528L5.87752 8.96238L5.67069 9.07062L5.67745 9.06676L5.47835 9.1866L5.48415 9.18274L5.29182 9.31321L5.29859 9.30935L5.11399 9.45142L5.11979 9.44659L4.94388 9.5993L4.94968 9.5935L4.78248 9.75587L4.78731 9.75104L4.63074 9.92211L4.63557 9.91631L4.48867 10.097L4.4935 10.0912L4.35722 10.2797C4.31373 10.3396 4.22965 10.3532 4.16972 10.3106C4.1098 10.2671 4.09627 10.1831 4.13976 10.1231L4.27604 9.93467L4.28087 9.92887L4.42778 9.74814L4.43261 9.74137L4.59015 9.5703L4.59595 9.5645L4.76219 9.40213L4.76798 9.39633L4.94485 9.24363L4.95065 9.23879L5.13525 9.09672L5.14105 9.09285L5.33435 8.96141L5.34015 8.95658L5.54021 8.83673L5.54698 8.83383L5.75381 8.72558L5.76057 8.72172L5.9732 8.62603L5.97997 8.62314L6.19743 8.53905L6.20516 8.53712L6.43905 8.4627L6.44679 8.46077L6.68454 8.40084L6.69228 8.39891L6.9339 8.35348L6.94163 8.35252L7.18519 8.32256L7.19389 8.32159L7.43841 8.30613H7.44614L7.69163 8.30516H7.70033L7.94485 8.31966L7.95355 8.32062L8.19711 8.34962L8.20484 8.35155L8.44646 8.39504L8.4542 8.39698L8.69292 8.45593L8.70065 8.45787L8.93454 8.53132C9.0051 8.55355 9.04472 8.62797 9.02249 8.69852C9.00027 8.76908 8.92488 8.8087 8.85433 8.78648Z" fill="#FCF5FF" stroke="#FCF5FF" stroke-width="0.7"/>
<path d="M8.84748 8.54004L9.2563 8.34191L9.26209 8.33998L9.67962 8.16118L9.68542 8.15924L10.1107 8.0017L10.1175 7.99881L10.5495 7.86253L10.5562 7.8606L10.995 7.74462L11.0008 7.74268L11.4445 7.64797L11.4512 7.647L11.8987 7.57355L11.9055 7.57258L12.3559 7.52136L12.3626 7.52039L12.8159 7.4914L12.8227 7.49043L13.4383 7.4856H13.447L14.0617 7.52039L14.0704 7.52136L14.6813 7.59577L14.69 7.59771L15.295 7.71175L15.3037 7.71369L15.9 7.86833L15.9077 7.87026L16.4925 8.06356L16.5012 8.06646L17.0714 8.29648L17.0791 8.30035L17.6339 8.56806L17.6417 8.57193L18.1781 8.87445L18.1848 8.87928L18.7 9.2166L18.7067 9.22143L19.1987 9.5916L19.2054 9.5974L19.6723 9.99946L19.6781 10.0053L20.1178 10.4363C20.17 10.4885 20.171 10.5726 20.1197 10.6257C20.0675 10.6779 19.9825 10.6789 19.9303 10.6277L19.4906 10.1957L19.4973 10.2024L19.0305 9.80036L19.0382 9.80616L18.5463 9.43503L18.5531 9.44082L18.0379 9.10351L18.0457 9.10738L17.5102 8.80486L17.5179 8.80872L16.9632 8.54101L16.9709 8.54488L16.4007 8.31485L16.4084 8.31775L15.8246 8.12445L15.8324 8.12735L15.237 7.97271L15.2447 7.97464L14.6407 7.8606L14.6494 7.86156L14.0385 7.78714H14.0472L13.4325 7.75235L13.4412 7.75332L12.8256 7.75815H12.8333L12.38 7.78811L12.3868 7.78714L11.9355 7.83837L11.9422 7.8374L11.4947 7.91086L11.5005 7.90989L11.0569 8.0046L11.0627 8.00267L10.6249 8.11865L10.6307 8.11769L10.1977 8.25396L10.2045 8.25203L9.77823 8.40957L9.78499 8.40763L9.36747 8.58547L9.37327 8.58257L8.96445 8.7807C8.89776 8.81356 8.81851 8.78553 8.78565 8.71884C8.75375 8.65216 8.78176 8.57291 8.84748 8.54004Z" fill="#FCF5FF" stroke="#FCF5FF" stroke-width="0.7"/>
<path d="M18.6583 8.11571L18.5027 8.06255L18.5085 8.06449L18.3509 8.01906L18.3567 8.021L18.1972 7.98234L18.203 7.98427L18.0416 7.95334L18.0474 7.95431L17.8851 7.93111L17.8909 7.93208L17.7275 7.91661H17.7333L17.57 7.90888H17.5758H17.4115H17.4173L17.251 7.91565H17.2568L17.0906 7.93111L17.0964 7.93014L16.9311 7.95334L16.9379 7.95237L16.7736 7.9833L16.7794 7.98234L16.617 8.02003L16.6228 8.01906L16.4624 8.06545L16.4682 8.06352L16.3097 8.11668L16.3164 8.11474L16.1608 8.17563C16.0912 8.20269 16.0139 8.16887 15.9869 8.10024C15.9598 8.03162 15.9936 7.9543 16.0623 7.92724L16.2179 7.86539L16.2237 7.86345L16.3822 7.80933L16.388 7.80836L16.5494 7.76197L16.5552 7.76004L16.7175 7.72138L16.7243 7.72041L16.8876 7.68948L16.8944 7.68852L17.0597 7.66532L17.0664 7.66435L17.2327 7.64889H17.2385L17.4057 7.64116H17.5826L17.7469 7.64986H17.7527L17.917 7.66532L17.9228 7.66629L18.0919 7.69045L18.2533 7.72138L18.2591 7.72234L18.4186 7.76004L18.4253 7.76197L18.5829 7.80739L18.5887 7.80933L18.7443 7.86152C18.8148 7.88568 18.8516 7.96203 18.8284 8.03162C18.8042 8.10121 18.7288 8.13891 18.6583 8.11571Z" fill="#FCF5FF" stroke="#FCF5FF" stroke-width="0.7"/>
<path d="M18.6664 8.13006L18.4663 7.77536L18.4711 7.78406L18.246 7.44481L18.2518 7.45255L18.0034 7.12973L18.0092 7.13747L17.7385 6.83398L17.7443 6.84074L17.4534 6.55757L17.4602 6.56337L17.149 6.30145L17.1567 6.30724L16.8271 6.06852L16.8349 6.07335L16.4898 5.85879L16.4976 5.86266L16.138 5.67322L16.1467 5.67709L15.7746 5.51375L15.7833 5.51665L15.3996 5.38038L15.4093 5.38328L15.0169 5.27406L15.0266 5.27599L14.6274 5.19481L14.6371 5.19674L14.2331 5.14359L14.2427 5.14455L13.8426 5.12136H13.8523L13.4521 5.12619H13.4608L13.0617 5.15808L13.0713 5.15712L12.6751 5.21801L12.6847 5.21607L12.2933 5.30499L12.303 5.30209L11.9193 5.41807L11.928 5.41517L11.553 5.55725L11.5617 5.55338L11.1983 5.72155L11.207 5.71769L10.8552 5.91002L10.8639 5.90519L10.5275 6.12265L10.5352 6.11781L10.2144 6.35847L10.2211 6.35171L9.9186 6.61459L9.92536 6.60783L9.64219 6.891L9.64799 6.88424L9.3851 7.1858C9.33678 7.24185 9.25173 7.24765 9.19663 7.19933C9.14058 7.151 9.13478 7.06595 9.1831 7.01086L9.44695 6.70834L9.45275 6.70157L9.73689 6.4184L9.74366 6.4126L10.0462 6.14971L10.0539 6.14391L10.3738 5.90325L10.3816 5.89842L10.7189 5.68096L10.7266 5.67613L11.0775 5.48283L11.0862 5.47896L11.4496 5.31079L11.4583 5.30693L11.8333 5.16485L11.842 5.16195L12.2257 5.04597L12.2344 5.04404L12.6258 4.95512L12.6345 4.95319L13.0308 4.89326L13.0394 4.8923L13.4396 4.85944L13.4483 4.85847L13.8494 4.85364L13.859 4.8546L14.2582 4.8778L14.2679 4.87877L14.6719 4.93096L14.6806 4.93289L15.0797 5.01408L15.0894 5.01601L15.4808 5.12522L15.4895 5.12812L15.8732 5.26537L15.8819 5.26826L16.254 5.43257L16.2627 5.43643L16.6232 5.62683L16.6309 5.63167L16.9769 5.84623L16.9847 5.85203L17.3133 6.09075L17.321 6.09655L17.6322 6.35847L17.639 6.36524L17.9309 6.64841L17.9376 6.65614L18.2092 6.95963L18.215 6.9664L18.4634 7.28921L18.4692 7.29694L18.6944 7.63522L18.6992 7.64392L18.8993 7.99766C18.936 8.06241 18.9128 8.1436 18.8481 8.18032C18.7843 8.21705 18.7021 8.19385 18.6664 8.13006Z" fill="#FCF5FF" stroke="#FCF5FF" stroke-width="0.7"/>
<path d="M18.6036 7.94351L18.4403 7.54627L18.4441 7.55497L18.2547 7.1703L18.2595 7.17803L18.044 6.8069L18.0488 6.81463L17.8082 6.45896L17.814 6.46669L17.5492 6.12841L17.5549 6.13518L17.2689 5.81623L17.2756 5.82203L16.9673 5.52339L16.9741 5.52919L16.6465 5.2518L16.6542 5.2576L16.3082 5.00342L16.3159 5.00825L15.9535 4.77823L15.9612 4.78306L15.5843 4.57817L15.592 4.583L15.2026 4.4042L15.2103 4.40806L14.8053 4.25535L14.814 4.25825L14.4004 4.13454L14.4091 4.13648L13.9867 4.04079L13.9954 4.04273L13.5682 3.977L13.5769 3.97797L13.1458 3.94124L13.1555 3.94221L12.7225 3.93544H12.7322L12.3002 3.95864L12.3089 3.95767L11.8797 4.01083L11.8884 4.00986L11.4641 4.09202L11.4728 4.09008L11.0544 4.20219L11.064 4.1993L10.6542 4.33944L10.6629 4.33654L10.2638 4.50471C10.1961 4.53371 10.1178 4.50181 10.0888 4.43319C10.0598 4.36553 10.0917 4.28725 10.1604 4.25825L10.5586 4.09008L10.5673 4.08622L10.977 3.94607L10.9857 3.94318L11.4033 3.83203L11.4129 3.8301L11.8372 3.74698L11.8469 3.74601L12.276 3.69285L12.2857 3.69189L12.7177 3.66869L12.7264 3.66772L13.1594 3.67449L13.1681 3.67546L13.6001 3.71122L13.6088 3.71218L14.037 3.7779L14.0457 3.77984L14.468 3.87552L14.4767 3.87745L14.8913 4.00213L14.9 4.00503L15.305 4.15774L15.3137 4.16064L15.7042 4.33944L15.7119 4.34331L16.0888 4.5482L16.0965 4.55303L16.459 4.78306L16.4667 4.78789L16.8127 5.04207L16.8195 5.04787L17.1471 5.32526L17.1539 5.33105L17.4612 5.63066L17.468 5.63742L17.755 5.95638L17.7608 5.96314L18.0247 6.30142L18.0295 6.30915L18.2702 6.66482L18.275 6.67255L18.4905 7.04369L18.4944 7.05142L18.6848 7.43705L18.6877 7.44478L18.851 7.84202C18.8791 7.91064 18.8462 7.98893 18.7776 8.01696C18.709 8.04498 18.6316 8.01213 18.6036 7.94351Z" fill="#FCF5FF" stroke="#FCF5FF" stroke-width="0.7"/>
<path d="M7.81872 3.50548L7.84192 3.68235V3.68138L7.86608 3.85825V3.85729L7.91441 4.2091V4.20813L7.9405 4.38403L7.9666 4.558H7.96563L7.99269 4.731L8.01975 4.90497V4.904L8.04682 5.07797L8.07581 5.25098C8.08741 5.32443 8.03812 5.39305 7.96467 5.40465C7.89218 5.41721 7.82356 5.36696 7.81099 5.29447L7.75494 4.94654L7.72788 4.77257V4.77161L7.67568 4.42368V4.42271L7.64959 4.24681L7.62542 4.07091L7.62446 4.06994L7.6003 3.89404V3.89307L7.5771 3.71717L7.55391 3.5403C7.54424 3.46782 7.59546 3.40016 7.66892 3.3905C7.74237 3.38083 7.80906 3.433 7.81872 3.50548Z" fill="#FCF5FF" stroke="#FCF5FF" stroke-width="0.7"/>
<path d="M19.5574 10.3957L19.5893 10.4895L19.5874 10.4837L19.6222 10.5764L19.6202 10.5716L19.6589 10.6615L19.657 10.6567L19.6995 10.7456L19.6966 10.7417L19.743 10.8287L19.7401 10.8239L19.7894 10.9089L19.7865 10.9051L19.8396 10.9882L19.8367 10.9843L19.8831 11.052L19.8802 11.0481L19.9285 11.1138L19.9266 11.1109L19.9769 11.1757L19.974 11.1718L20.0271 11.2346L20.0242 11.2317L20.0784 11.2926L20.0755 11.2888L20.1325 11.3487L20.1296 11.3448L20.1876 11.4028C20.2407 11.454 20.2417 11.5391 20.1895 11.5913C20.1383 11.6444 20.0532 11.6454 20.001 11.5942L19.9421 11.5362L19.9392 11.5333L19.8822 11.4743L19.8793 11.4705L19.8242 11.4096L19.8213 11.4067L19.7691 11.3438L19.7662 11.34L19.7159 11.2762L19.713 11.2723L19.6647 11.2066L19.6618 11.2027L19.6164 11.1351L19.6135 11.1312L19.5603 11.0481L19.5574 11.0433L19.5081 10.9572L19.5062 10.9534L19.4598 10.8654L19.4579 10.8606L19.4153 10.7717L19.4134 10.7668L19.3747 10.677L19.3728 10.6721L19.3371 10.5793L19.3351 10.5745L19.3042 10.4808C19.28 10.4112 19.3177 10.3348 19.3873 10.3116C19.4579 10.2884 19.5333 10.3252 19.5574 10.3957Z" fill="#FCF5FF" stroke="#FCF5FF" stroke-width="0.7"/>
<path d="M19.5193 10.2816L19.5957 10.3174V10.3164L19.672 10.3522H19.671L19.9001 10.4566L20.1263 10.5581L20.2026 10.5919H20.2016L20.278 10.6257C20.3457 10.6557 20.3766 10.7349 20.3466 10.8016C20.3167 10.8693 20.2374 10.9002 20.1698 10.8702L20.0934 10.8364L20.018 10.8026H20.017L19.9417 10.7688L19.8653 10.7349V10.734L19.789 10.7001L19.6362 10.6305L19.5599 10.5948H19.5589L19.4835 10.56H19.4826L19.4072 10.5242C19.3395 10.4933 19.3105 10.4141 19.3415 10.3464C19.3734 10.2797 19.4526 10.2507 19.5193 10.2816Z" fill="#FCF5FF" stroke="#FCF5FF" stroke-width="0.7"/>
<path d="M19.5372 11.2016L19.5913 11.2103H19.5942L19.6474 11.2209H19.6513L19.7044 11.2325L19.7073 11.2335L19.7605 11.246L19.7634 11.247L19.8156 11.2605L19.8194 11.2615L19.8706 11.277L19.8745 11.2779L19.9267 11.2953L19.976 11.3127L19.9789 11.3137L20.0272 11.332L20.0311 11.333L20.0784 11.3533L20.0823 11.3543L20.1297 11.3755L20.1326 11.3765L20.1799 11.3987C20.2466 11.4306 20.2756 11.5099 20.2437 11.5766C20.2128 11.6442 20.1326 11.6722 20.0659 11.6413L20.0185 11.6191L20.0214 11.6201L19.9741 11.5998L19.977 11.6007L19.9296 11.5814L19.9325 11.5824L19.8842 11.564L19.8871 11.565L19.8378 11.5476L19.8407 11.5485L19.7914 11.5321L19.7953 11.534L19.7431 11.5186L19.746 11.5195L19.6938 11.505L19.6976 11.506L19.6445 11.4934L19.6484 11.4944L19.5952 11.4828L19.5991 11.4838L19.5459 11.4741H19.5488L19.4956 11.4654C19.4222 11.4538 19.3729 11.3862 19.3845 11.3127C19.3961 11.2393 19.4647 11.19 19.5372 11.2016Z" fill="#FCF5FF" stroke="#FCF5FF" stroke-width="0.7"/>
<path d="M19.6243 11.3292L19.7925 11.7893L19.7944 11.7961L19.9375 12.2638L19.9394 12.2716L20.0573 12.7471L20.0583 12.7539L20.1491 13.2352L20.1501 13.2419L20.2148 13.7271V13.7348L20.2525 14.2229L20.2535 14.2307L20.2641 14.7197L20.2632 14.7274L20.2477 15.2165L20.2467 15.2233L20.2032 15.7114L20.2023 15.7191L20.1327 16.2033L20.1317 16.2101L20.0331 16.6981L20.0312 16.7049L19.9065 17.1862L19.9046 17.194L19.7529 17.6666L19.75 17.6743L19.5721 18.1382L19.5692 18.145L19.3653 18.5983L19.3624 18.605L19.1333 19.0467L19.1295 19.0535L18.8772 19.4817L18.8734 19.4875L18.5969 19.9011L18.5921 19.9069L18.2935 20.3042L18.2886 20.31L17.9678 20.6898C17.9204 20.7459 17.8353 20.7536 17.7793 20.7053C17.7223 20.6579 17.7155 20.5738 17.7629 20.5168L18.0837 20.137L18.0789 20.1428L18.3785 19.7455L18.3737 19.7523L18.6501 19.3386L18.6462 19.3454L18.8994 18.9172L18.8956 18.924L19.1246 18.4823L19.1217 18.4891L19.3247 18.0358L19.3218 18.0426L19.5006 17.5777L19.4977 17.5854L19.6494 17.1118L19.6475 17.1186L19.7732 16.6382L19.7712 16.645L19.8688 16.1579L19.8679 16.1646L19.9375 15.6804V15.6882L19.98 15.2001V15.2078L19.9964 14.7178V14.7255L19.9858 14.2365V14.2432L19.9481 13.7551L19.9491 13.7629L19.8853 13.2777L19.8862 13.2845L19.7954 12.8031L19.7973 12.8109L19.6804 12.3354L19.6823 12.3421L19.5393 11.8743L19.5412 11.8811L19.373 11.4211C19.3469 11.3524 19.3827 11.2751 19.4523 11.25C19.5219 11.2239 19.5982 11.2596 19.6243 11.3292Z" fill="#FCF5FF" stroke="#FCF5FF" stroke-width="0.7"/>
<path d="M17.9609 20.707L17.4941 21.0589L17.4873 21.0637L16.9983 21.3855L16.9915 21.3904L16.4831 21.6803L16.4754 21.6842L15.9496 21.9413L15.9419 21.9442L15.4016 22.1674L15.3929 22.1703L14.8391 22.3578L14.8314 22.3607L14.266 22.5125L14.2582 22.5144L13.6851 22.6304L13.6764 22.6323L13.0965 22.7106L13.0878 22.7116L12.505 22.7531L12.4963 22.7541L11.9116 22.758H11.9029L11.3191 22.7251L11.3104 22.7241L10.7247 22.6536L10.716 22.6526L10.1361 22.5444L10.1274 22.5424L9.5562 22.3965L9.5475 22.3946L8.98694 22.2119L8.97824 22.209L8.43025 21.9915L8.42252 21.9886L7.88902 21.7354L7.88129 21.7316L7.36616 21.4455L7.35843 21.4407L6.86262 21.1227L6.85488 21.1169L6.38033 20.767L6.37356 20.7622L5.92221 20.3814L5.91641 20.3765L5.49018 19.9677L5.48438 19.9619L5.08618 19.527C5.03592 19.4729 5.03979 19.3878 5.09391 19.3376C5.149 19.2883 5.23309 19.2912 5.28334 19.3463L5.68154 19.7812L5.67575 19.7744L6.10102 20.1832L6.09522 20.1774L6.54656 20.5573L6.5398 20.5515L7.01436 20.9023L7.00662 20.8975L7.5034 21.2164L7.49567 21.2116L8.01177 21.4977L8.00403 21.4938L8.53656 21.7461L8.52883 21.7432L9.07781 21.9606L9.06911 21.9577L9.63064 22.1394L9.62194 22.1375L10.1941 22.2825L10.1854 22.2805L10.7653 22.3897L10.7566 22.3878L11.3423 22.4584H11.3336L11.9174 22.4912H11.9087L12.4944 22.4864H12.4857L13.0695 22.4448L13.0608 22.4458L13.6397 22.3666L13.6319 22.3685L14.2051 22.2525L14.1964 22.2544L14.7618 22.1027L14.7531 22.1046L15.3069 21.9171L15.2992 21.92L15.8404 21.6968L15.8327 21.7006L16.3575 21.4435L16.3507 21.4474L16.8581 21.1575L16.8514 21.1623L17.3395 20.8404L17.3327 20.8453L17.7995 20.4935C17.8585 20.449 17.9425 20.4606 17.987 20.5196C18.0315 20.5785 18.0199 20.6626 17.9609 20.707Z" fill="#FCF5FF" stroke="#FCF5FF" stroke-width="0.7"/>
<path d="M4.71383 11.4383L4.52826 11.8646L4.53116 11.8568L4.36975 12.2927L4.37169 12.286L4.23541 12.7296L4.23734 12.7228L4.1262 13.1732L4.12813 13.1664L4.04308 13.6226L4.04405 13.6159L3.98509 14.0759V14.0682L3.95223 14.5321L3.9532 14.5244L3.94643 14.9893L3.94546 14.9815L3.96576 15.4455L3.96479 15.4377L4.01215 15.9094L4.01119 15.9016L4.08464 16.3694L4.08368 16.3617L4.18419 16.8246L4.18226 16.8169L4.30983 17.2731L4.3079 17.2663L4.46157 17.7138L4.45867 17.7071L4.63844 18.1458L4.63457 18.1381L4.83947 18.5653L4.8356 18.5585L5.06466 18.9741L5.0608 18.9674L5.31304 19.3685C5.3517 19.4303 5.33334 19.5134 5.27052 19.5521C5.2077 19.5917 5.12555 19.5734 5.08592 19.5105L4.83367 19.1094L4.82981 19.1027L4.60171 18.688L4.59785 18.6813L4.39392 18.2541L4.39005 18.2463L4.21125 17.8085L4.20835 17.8008L4.05468 17.3533L4.05274 17.3456L3.92517 16.8894L3.92323 16.8816L3.82175 16.4187L3.82079 16.411L3.74637 15.9432L3.7454 15.9355L3.69901 15.4648L3.69804 15.4571L3.67871 14.9931V14.9854L3.68548 14.5205V14.5128L3.71834 14.0498L3.7193 14.0421L3.77826 13.5811L3.78019 13.5733L3.86524 13.1171L3.86718 13.1094L3.97736 12.6581L3.98026 12.6513L4.11653 12.2067L4.11846 12.1999L4.27987 11.7641L4.28277 11.7573L4.46833 11.3311C4.49829 11.2634 4.57658 11.2325 4.6452 11.2624C4.71286 11.2914 4.74379 11.3707 4.71383 11.4383Z" fill="#FCF5FF" stroke="#FCF5FF" stroke-width="0.7"/>
<path d="M3.78023 11.276L3.86238 11.2712H3.86334L3.9455 11.2673H3.94646L4.02861 11.2635L4.02958 11.2625L4.1127 11.2596L4.19582 11.2557H4.19679L4.27797 11.2538H4.27894L4.36109 11.2509H4.36206L4.44421 11.249L4.52636 11.248H4.52733L4.60948 11.2471C4.68293 11.2461 4.74382 11.305 4.74479 11.3795C4.74575 11.4529 4.68583 11.5138 4.61238 11.5148L4.53023 11.5157H4.53119L4.44904 11.5167H4.45001L4.36785 11.5186H4.36882L4.28667 11.5206L4.20548 11.5235L4.12333 11.5264H4.1243L4.04118 11.5302H4.04215L3.95903 11.5341H3.95999L3.87784 11.5389H3.87881L3.79569 11.5438C3.72224 11.5476 3.65845 11.4916 3.65458 11.4181C3.64975 11.3437 3.70677 11.2809 3.78023 11.276Z" fill="#FCF5FF" stroke="#FCF5FF" stroke-width="0.7"/>
<path d="M3.68722 11.3292L3.76357 11.2471V11.248L3.83895 11.1659V11.1669L3.91337 11.0837V11.0847L3.98779 11.0016L3.98683 11.0026L4.06125 10.9185V10.9194L4.12214 10.8498L4.12117 10.8508L4.18206 10.7803L4.18109 10.7812L4.24101 10.7107V10.7116L4.29997 10.6411V10.6421L4.35893 10.5705C4.40628 10.5135 4.49134 10.5067 4.54739 10.5541C4.60442 10.6015 4.61215 10.6855 4.56479 10.7426L4.50487 10.8131V10.8141L4.44494 10.8846L4.38405 10.9552V10.9562L4.26228 11.0953L4.26131 11.0963L4.18785 11.1804H4.18689L4.11247 11.2635L4.1115 11.2645L4.03611 11.3466V11.3476L3.95976 11.4297L3.9588 11.4307L3.88244 11.5119C3.83219 11.566 3.7481 11.5689 3.69398 11.5177C3.63985 11.4674 3.63696 11.3824 3.68722 11.3292Z" fill="#FCF5FF" stroke="#FCF5FF" stroke-width="0.7"/>
<path d="M3.84629 10.4633L3.9874 10.4613H3.98643L4.05795 10.4604H4.05699L4.12754 10.4594L4.1981 10.4575L4.26478 10.4555H4.26382L4.3305 10.4536H4.32954L4.39623 10.4507L4.46291 10.4488H4.46195L4.52864 10.4459C4.60209 10.443 4.66491 10.5 4.66781 10.5744C4.67071 10.6479 4.61369 10.7107 4.53927 10.7136L4.47258 10.7155L4.40589 10.7184L4.3392 10.7203L4.27252 10.7232H4.27155L4.20583 10.7252H4.20486L4.13431 10.7261H4.13334L4.06279 10.7281L3.99127 10.729L3.92071 10.73H3.91974L3.84919 10.731C3.77477 10.7319 3.71485 10.673 3.71388 10.5986C3.71291 10.5251 3.77187 10.4642 3.84629 10.4633Z" fill="#FCF5FF" stroke="#FCF5FF" stroke-width="0.7"/>
<path d="M2.19956 11.3456L2.25368 11.7621L2.30974 12.1787V12.1777L2.36869 12.5933L2.42862 13.0089V13.0079L2.49047 13.4235V13.4226L2.58616 14.0373V14.0363L2.6857 14.65V14.6491L2.79009 15.2628V15.2618L2.89833 15.8736V15.8727L3.01045 16.4845C3.02398 16.557 2.97565 16.6265 2.90317 16.6401C2.83068 16.6536 2.76109 16.6053 2.74756 16.5328L2.63448 15.921V15.92L2.52623 15.3082V15.3073L2.42185 14.6945V14.6935L2.3223 14.0798L2.32134 14.0788L2.22662 13.4641L2.22565 13.4632L2.1638 13.0476L2.10387 12.632L2.10291 12.631L2.04492 12.2144L1.98886 11.7979L1.98789 11.7969L1.93377 11.3804C1.92411 11.3079 1.9763 11.2402 2.04878 11.2306C2.12224 11.2209 2.18989 11.2731 2.19956 11.3456Z" fill="#FCF5FF" stroke="#FCF5FF" stroke-width="0.7"/>
<path d="M3.90723 16.011L3.76515 16.0593L3.77482 16.0554L3.63661 16.1153L3.64724 16.1105L3.51483 16.182L3.52353 16.1762L3.39788 16.2574L3.40658 16.2507L3.28674 16.3425L3.29543 16.3357L3.18429 16.4362L3.19202 16.4285L3.0886 16.5377L3.09633 16.53L3.00258 16.6469L3.00935 16.6382L2.92527 16.7629L2.93106 16.7542L2.85761 16.8847L2.86244 16.875L2.79962 17.0123L2.80445 17.0016L2.75323 17.1427L2.75613 17.1321L2.7165 17.2771L2.7194 17.2664L2.69137 17.4143L2.6933 17.4037L2.67784 17.5535L2.67881 17.5419L2.67494 17.6927V17.682L2.68364 17.8318L2.68267 17.8202L2.70394 17.9691L2.702 17.9585L2.73486 18.1054L2.73196 18.0947L2.77642 18.2368L2.77352 18.2271L2.82958 18.3653L2.82475 18.3557L2.89144 18.4881L2.8866 18.4794L2.96392 18.606L2.95812 18.5973L3.04511 18.7181L3.03834 18.7094L3.13596 18.8235L3.12823 18.8148L3.23357 18.9201L3.22584 18.9124L3.33989 19.009L3.33119 19.0023L3.45297 19.0893L3.4433 19.0835L3.57185 19.1598L3.56218 19.155L3.69556 19.2207L3.68589 19.2159L3.8241 19.271L3.81444 19.2681L3.95651 19.3115L3.94685 19.3086L4.09182 19.3405L4.08119 19.3386L4.22906 19.3589L4.21843 19.3579L4.36727 19.3657H4.35664L4.50548 19.3618L4.49485 19.3628L4.64272 19.3473L4.63209 19.3483L4.779 19.3202L4.76837 19.3231L4.91238 19.2835L4.90174 19.2864L5.04189 19.2362C5.11147 19.2101 5.18783 19.2458 5.21296 19.3154C5.23905 19.385 5.20329 19.4623 5.13371 19.4874L4.99356 19.5387L4.98293 19.5416L4.83892 19.5812L4.82926 19.5831L4.68235 19.6112L4.67172 19.6131L4.52288 19.6286L4.51225 19.6295L4.36341 19.6334H4.35278L4.20394 19.6247L4.19331 19.6237L4.04543 19.6044L4.0348 19.6025L3.88886 19.5696L3.87823 19.5677L3.73615 19.5232L3.72552 19.5203L3.58732 19.4652L3.57765 19.4604L3.44331 19.3947L3.43364 19.3898L3.30607 19.3125L3.29737 19.3067L3.17559 19.2197L3.16689 19.2139L3.05381 19.1173L3.04511 19.1095L2.93976 19.0052L2.93203 18.9974L2.83538 18.8834L2.82862 18.8757L2.74067 18.7548L2.73487 18.7452L2.65755 18.6176L2.65272 18.6089L2.58506 18.4755L2.5812 18.4659L2.52514 18.3277L2.52127 18.317L2.47681 18.1749L2.47391 18.1643L2.44105 18.0174L2.43912 18.0068L2.41786 17.8579L2.41689 17.8473L2.40819 17.6975L2.40723 17.6869L2.41109 17.5361V17.5255L2.42656 17.3766L2.42849 17.365L2.45652 17.2181L2.45845 17.2075L2.49808 17.0625L2.50098 17.0519L2.5522 16.9108L2.55703 16.9001L2.61889 16.7639L2.62372 16.7542L2.69718 16.6228L2.70298 16.6141L2.78706 16.4894L2.79286 16.4807L2.88661 16.3628L2.89434 16.355L2.99679 16.2449L3.00452 16.2381L3.11567 16.1366L3.12437 16.1298L3.24421 16.039L3.25291 16.0322L3.37856 15.951L3.38822 15.9452L3.52063 15.8747L3.5303 15.8699L3.6685 15.8099L3.67817 15.8061L3.82121 15.7577C3.8908 15.7345 3.96715 15.7713 3.99034 15.8418C4.01451 15.9114 3.97681 15.9878 3.90723 16.011Z" fill="#FCF5FF" stroke="#FCF5FF" stroke-width="0.7"/>
<path d="M18.3723 11.5673L17.8987 11.6659L17.4222 11.7606L16.9448 11.8496L16.4663 11.9336L16.4654 11.9346L15.987 12.0139L15.5066 12.0883L15.5057 12.0892L15.0253 12.1588H15.0234L14.543 12.2236L14.5421 12.2246L14.0598 12.2845L13.5765 12.3396C13.5031 12.3483 13.4374 12.2951 13.4287 12.2217C13.42 12.1492 13.4731 12.0825 13.5466 12.0738L14.0279 12.0187L14.5082 11.9588L14.9876 11.894L15.467 11.8244H15.4651L15.9444 11.75L16.4209 11.6708L16.8964 11.5867L17.372 11.4978H17.37L17.8456 11.404H17.8436L18.3182 11.3054C18.3907 11.29 18.4612 11.3363 18.4767 11.4088C18.4912 11.4813 18.4448 11.5519 18.3723 11.5673Z" fill="#FCF5FF" stroke="#FCF5FF" stroke-width="0.7"/>
<path d="M13.635 12.443L13.6205 12.4594L13.6243 12.4546L13.6108 12.472L13.6147 12.4671L13.6011 12.4855L13.605 12.4797L13.5924 12.499L13.5963 12.4932L13.5847 12.5126L13.5876 12.5068L13.577 12.5261L13.5799 12.5213L13.5702 12.5406L13.5731 12.5348L13.5644 12.556L13.5663 12.5502L13.5596 12.5705L13.5615 12.5647L13.5547 12.586L13.5567 12.5802L13.5509 12.6015L13.5518 12.5947L13.548 12.6169L13.5489 12.6111L13.5451 12.6324L13.546 12.6266L13.5431 12.6479L13.5441 12.6421L13.5422 12.6643V12.6575V12.6798C13.5402 12.7542 13.4794 12.8122 13.4049 12.8102C13.3315 12.8083 13.2725 12.7474 13.2745 12.673L13.2754 12.6517V12.645L13.2774 12.6227V12.6169L13.2803 12.5947L13.2812 12.5889L13.2851 12.5667L13.2861 12.5609L13.2909 12.5396L13.2919 12.5329L13.2977 12.5116L13.2996 12.5058L13.3054 12.4845L13.3083 12.4787L13.3151 12.4584L13.318 12.4526L13.3267 12.4314L13.3286 12.4256L13.3411 12.4004L13.3518 12.3811L13.3547 12.3753L13.3692 12.3512L13.3817 12.3328L13.3856 12.327L13.3982 12.3096L13.402 12.3048L13.4156 12.2874L13.4204 12.2825L13.4349 12.2661C13.4832 12.211 13.5683 12.2052 13.6234 12.2545C13.6785 12.3038 13.6843 12.3879 13.635 12.443Z" fill="#FCF5FF" stroke="#FCF5FF" stroke-width="0.7"/>
<path d="M5.61589 11.3894L6.09527 11.4764H6.0943L6.57465 11.5595H6.57368L7.055 11.6407H7.05403L7.53534 11.718H7.53437L8.01569 11.7934H8.01472L8.49989 11.8669L8.49892 11.8659L8.98409 11.9365H8.98313L9.4683 12.0032H9.46733L9.95347 12.0679H9.9525L10.4386 12.1298C10.5121 12.1385 10.5633 12.2052 10.5546 12.2786C10.545 12.3521 10.4783 12.4043 10.4048 12.3946L9.91867 12.3327H9.91771L9.43254 12.269H9.43157L8.9464 12.2013H8.94543L8.46026 12.1307H8.45929L7.97509 12.0583H7.97412L7.49281 11.9829H7.49184L7.01053 11.9046L6.52922 11.8234H6.52826L6.04887 11.7393H6.04791L5.56853 11.6533C5.49507 11.6398 5.44675 11.5702 5.46028 11.4977C5.47284 11.4252 5.54243 11.3769 5.61589 11.3894Z" fill="#FCF5FF" stroke="#FCF5FF" stroke-width="0.7"/>
<path d="M10.4985 12.6599L10.4715 12.6183L10.4396 12.5652L10.4154 12.5207L10.4135 12.5159L10.3913 12.4704L10.3884 12.4656L10.3681 12.4192L10.3661 12.4144L10.3478 12.368L10.3458 12.3622L10.3304 12.3148L10.3284 12.311L10.3217 12.2878L10.3207 12.2858L10.3149 12.2626L10.3139 12.2597L10.3081 12.2375L10.3072 12.2346L10.3014 12.2114L10.3004 12.2085L10.2956 12.1863V12.1834L10.2907 12.1602C10.2762 12.0877 10.3226 12.0172 10.3951 12.0027C10.4676 11.9882 10.5382 12.0345 10.5527 12.107L10.5575 12.1302L10.5565 12.1273L10.5623 12.1505L10.5614 12.1486L10.5672 12.1718L10.5662 12.1689L10.572 12.1921V12.1892L10.5788 12.2124L10.5778 12.2095L10.5846 12.2317L10.5836 12.2278L10.5991 12.2762L10.5971 12.2704L10.6155 12.3177L10.6135 12.3119L10.6338 12.3583L10.6319 12.3535L10.6532 12.3989L10.6512 12.3941L10.6754 12.4376L10.6725 12.4327L10.6976 12.4762L10.6947 12.4714L10.7228 12.5139C10.7634 12.5758 10.746 12.6589 10.6841 12.6985C10.6222 12.7391 10.5391 12.7217 10.4985 12.6599Z" fill="#FCF5FF" stroke="#FCF5FF" stroke-width="0.7"/>
<path d="M10.7041 20.0838L10.9003 20.1234L10.8955 20.1225L11.0917 20.1534H11.0869L11.285 20.1775L11.2802 20.1766L11.4783 20.193H11.4735L11.6726 20.2027H11.6677L11.8668 20.2046H11.862L12.0611 20.1988H12.0563L12.2563 20.1862L12.2505 20.1872L12.4506 20.1669H12.4458L12.6439 20.1398H12.6391L12.8362 20.1051L12.8314 20.106L13.0266 20.0635L13.0218 20.0645L13.2161 20.0152L13.2112 20.0161L13.4036 19.9591C13.4741 19.9388 13.5485 19.9784 13.5698 20.05C13.5911 20.1205 13.5505 20.1949 13.4799 20.2162L13.2876 20.2732L13.2828 20.2742L13.0885 20.3235L13.0837 20.3254L12.8875 20.3679L12.8826 20.3689L12.6855 20.4037L12.6806 20.4047L12.4825 20.4317L12.4777 20.4327L12.2776 20.453H12.2728L12.0727 20.4665H12.0679L11.8688 20.4723H11.8639L11.6648 20.4704L11.66 20.4694L11.4609 20.4607L11.4561 20.4598L11.257 20.4433L11.2521 20.4424L11.054 20.4182H11.0492L10.853 20.3863L10.8482 20.3853L10.652 20.3467C10.5795 20.3322 10.5331 20.2616 10.5476 20.1891C10.5611 20.1167 10.6317 20.0703 10.7041 20.0838Z" fill="#FCF5FF" stroke="#FCF5FF" stroke-width="0.7"/>
<path d="M8.07862 14.3997C8.31831 14.3997 8.56282 14.45 8.79478 14.5573C9.6569 14.9536 10.0348 15.9742 9.63854 16.8363C9.34859 17.4655 8.72714 17.8366 8.07669 17.8366C7.83603 17.8366 7.59248 17.7863 7.35956 17.6791C6.49744 17.2828 6.11955 16.2631 6.51679 15.401C6.80578 14.7709 7.42817 14.3997 8.07862 14.3997ZM8.07862 14.2122C7.35664 14.2122 6.66658 14.624 6.34569 15.3218C5.90595 16.2786 6.32443 17.4104 7.28125 17.8502C7.53931 17.9691 7.80992 18.0251 8.0757 18.0251C8.79768 18.0251 9.48774 17.6124 9.80862 16.9146C10.2484 15.9578 9.82988 14.826 8.87307 14.3862C8.61597 14.2683 8.3444 14.2122 8.07862 14.2122Z" fill="#FCF5FF" stroke="#FCF5FF" stroke-width="0.7"/>
<path d="M17.5241 16.8596C17.0853 17.8145 15.9545 18.233 14.9996 17.7942C14.0438 17.3545 13.6262 16.2246 14.065 15.2688C14.5038 14.3139 15.6346 13.8954 16.5895 14.3352C17.5454 14.7739 17.9629 15.9038 17.5241 16.8596ZM17.3578 16.7833C17.7541 15.9192 17.3762 14.8976 16.5131 14.5014C15.65 14.1041 14.6284 14.482 14.2312 15.3461C13.8349 16.2092 14.2128 17.2307 15.0759 17.627C15.939 18.0243 16.9606 17.6463 17.3578 16.7833Z" fill="#FCF5FF" stroke="#FCF5FF" stroke-width="0.7"/>
<path d="M10.4992 16.8314C10.1097 18.1516 8.7257 18.9074 7.40743 18.5189C6.0901 18.1304 5.33719 16.7444 5.72669 15.4242C6.11618 14.1039 7.50021 13.3481 8.81749 13.7376C10.1358 14.1262 10.8887 15.5112 10.4992 16.8314ZM10.3262 16.7811C10.6877 15.5556 9.98985 14.2703 8.76723 13.9098C7.54462 13.5493 6.2601 14.25 5.89861 15.4755C5.53812 16.701 6.23593 17.9864 7.45854 18.3469C8.68115 18.7074 9.96471 18.0067 10.3262 16.7811Z" fill="#FCF5FF" stroke="#FCF5FF" stroke-width="0.7"/>
<path d="M5.92144 15.2803L5.82866 15.3103H5.83059L5.73877 15.3422L5.74071 15.3412L5.64985 15.376L5.65179 15.375L5.5619 15.4108L5.56287 15.4098L5.47395 15.4475L5.47492 15.4466L5.38117 15.4881L5.3831 15.4872L5.29032 15.5306H5.29225L5.19947 15.5751H5.2014L5.11055 15.6215H5.11248L5.02163 15.6698C4.98007 15.693 4.92788 15.6776 4.90468 15.636C4.88245 15.5935 4.89792 15.5413 4.93948 15.519L5.02936 15.4698L5.03129 15.4688L5.12214 15.4214L5.12408 15.4205L5.21589 15.376L5.21686 15.375L5.30964 15.3315L5.31158 15.3306L5.40533 15.289L5.40726 15.2881L5.49618 15.2513L5.49811 15.2504L5.588 15.2146L5.58993 15.2136L5.68078 15.1798H5.68175L5.77356 15.1469H5.77453L5.86731 15.116C5.91177 15.1015 5.96106 15.1257 5.97556 15.1711C5.99102 15.2165 5.9659 15.2649 5.92144 15.2803Z" fill="#FCF5FF" stroke="#FCF5FF" stroke-width="0.7"/>
<path d="M5.06441 15.6129L5.06538 15.7346V15.7356L5.06441 15.8564V15.8574L5.06151 15.9792V15.9801L5.05764 16.1009V16.1019L5.05281 16.2237V16.2247L5.04605 16.3551V16.3561L5.03735 16.4875V16.4885L5.02672 16.619V16.62L5.01512 16.7504L5.01415 16.7524L5.00062 16.8819C4.99579 16.9292 4.95423 16.964 4.90687 16.9592C4.85951 16.9544 4.82472 16.9118 4.82955 16.8645L4.84308 16.734V16.735L4.85468 16.6045V16.6055L4.86531 16.475V16.476L4.87401 16.3455V16.3464L4.88077 16.215V16.216L4.88561 16.0952V16.0961L4.88947 15.9743V15.9753L4.89141 15.8545V15.8555L4.89237 15.7337V15.7347V15.6138C4.89237 15.5665 4.93103 15.5278 4.97839 15.5278C5.02575 15.5269 5.06441 15.5655 5.06441 15.6129Z" fill="#FCF5FF" stroke="#FCF5FF" stroke-width="0.7"/>
<path d="M4.98459 16.8084L5.08414 16.8451H5.08511L5.18369 16.8838C5.18466 16.8838 5.18466 16.8838 5.18562 16.8848L5.28324 16.9244C5.28421 16.9254 5.28421 16.9254 5.28517 16.9254L5.38182 16.9679H5.38375L5.4804 17.0123H5.48137L5.57705 17.0578C5.57802 17.0587 5.57802 17.0587 5.57898 17.0587L5.67274 17.1061H5.6737L5.76745 17.1554H5.76842L5.8612 17.2056C5.8612 17.2066 5.86217 17.2066 5.86217 17.2066L5.95302 17.2588C5.95399 17.2588 5.95399 17.2588 5.95495 17.2598L6.04484 17.3129C6.0458 17.3129 6.0458 17.3139 6.04677 17.3139L6.13569 17.369C6.17628 17.3941 6.18885 17.4473 6.16372 17.4879C6.13859 17.5284 6.08543 17.541 6.0458 17.5159L5.95592 17.4608L5.95689 17.4618L5.867 17.4076L5.86797 17.4086L5.77712 17.3564L5.77809 17.3574L5.68627 17.3071L5.68724 17.3081L5.59445 17.2598H5.59542L5.50167 17.2134H5.5036L5.40792 17.1679L5.40888 17.1689L5.31224 17.1254H5.31417L5.21655 17.0839H5.21752L5.1199 17.0442H5.12184L5.02229 17.0056L5.02422 17.0065L4.92467 16.9698C4.88022 16.9534 4.85702 16.9041 4.87345 16.8587C4.88988 16.8142 4.94013 16.791 4.98459 16.8084Z" fill="#FCF5FF" stroke="#FCF5FF" stroke-width="0.7"/>
<path d="M10.2717 14.9129L10.3267 14.911H10.3316L10.3867 14.9129L10.3925 14.9139L10.4476 14.9187H10.4524L10.5075 14.9274L10.5123 14.9284L10.5664 14.939L10.5713 14.94L10.6244 14.9545L10.6293 14.9564L10.6824 14.9728L10.6863 14.9748L10.7385 14.9951L10.7423 14.997L10.7936 15.0202L10.7974 15.0221L10.8467 15.0482L10.8516 15.0511L10.9028 15.0821L10.9076 15.085L10.9579 15.1207L10.9617 15.1236L11.0101 15.1613L11.0139 15.1652L11.0593 15.2058L11.0632 15.2096L11.1057 15.2531L11.1096 15.257L11.1492 15.3034L11.1531 15.3072L11.1898 15.3556L11.1927 15.3604L11.2266 15.4107L11.2295 15.4155L11.2604 15.4686L11.2623 15.4735L11.2903 15.5276C11.3116 15.5701 11.2942 15.6223 11.2517 15.6436C11.2092 15.6648 11.157 15.6474 11.1357 15.6049L11.1086 15.5498L11.1106 15.5547L11.0806 15.5025L11.0835 15.5063L11.0497 15.4561L11.0526 15.4599L11.0159 15.4116L11.0188 15.4155L10.9791 15.3701L10.983 15.3739L10.9405 15.3304L10.9443 15.3333L10.8989 15.2927L10.9028 15.2966L10.8545 15.2589L10.8593 15.2618L10.809 15.227L10.8139 15.2299L10.7617 15.198L10.7665 15.2009L10.7172 15.1748L10.7211 15.1768L10.6708 15.1536L10.6757 15.1555L10.6235 15.1352L10.6283 15.1371L10.5751 15.1197L10.58 15.1207L10.5268 15.1072L10.5316 15.1081L10.4775 15.0965L10.4824 15.0975L10.4273 15.0898H10.4321L10.377 15.0849L10.3818 15.0859L10.3258 15.084H10.3306L10.2755 15.0849C10.2282 15.0859 10.1885 15.0482 10.1876 15.0009C10.1856 14.9535 10.2233 14.9139 10.2717 14.9129Z" fill="#FCF5FF" stroke="#FCF5FF" stroke-width="0.7"/>
<path d="M11.2495 15.4696L11.378 15.4464H11.3809L11.5095 15.4261H11.5124L11.6419 15.4106H11.6448L11.7743 15.3981H11.7772L11.9067 15.3894H11.9096L12.0401 15.3845H12.042L12.1503 15.3826H12.1522L12.2604 15.3845H12.2624L12.3706 15.3884H12.3725L12.4798 15.3942H12.4818L12.59 15.4029L12.5919 15.4039L12.6992 15.4145C12.7466 15.4193 12.7814 15.4619 12.7765 15.5092C12.7707 15.5566 12.7292 15.5914 12.6818 15.5865L12.5736 15.5749H12.5755L12.4682 15.5662H12.4702L12.3619 15.5604H12.3638L12.2566 15.5566H12.2585L12.1503 15.5556H12.1522L12.0439 15.5566H12.0459L11.9154 15.5614H11.9183L11.7878 15.5701H11.7907L11.6602 15.5817H11.6631L11.5336 15.5972H11.5356L11.4061 15.6165H11.409L11.2804 15.6387C11.2331 15.6474 11.1886 15.6165 11.1799 15.5691C11.1722 15.5228 11.2031 15.4773 11.2495 15.4696Z" fill="#FCF5FF" stroke="#FCF5FF" stroke-width="0.7"/>
<path d="M13.7034 15.0455L13.6415 15.0446H13.6464L13.5845 15.0475H13.5894L13.5285 15.0533L13.5323 15.0523L13.4714 15.061L13.4763 15.06L13.4164 15.0726L13.4202 15.0716L13.3613 15.0871L13.3651 15.0852L13.3062 15.1035L13.311 15.1026L13.253 15.1238L13.2578 15.1219L13.2008 15.146L13.2057 15.1441L13.1467 15.1731L13.1506 15.1712L13.0935 15.2031L13.0974 15.2011L13.0423 15.2359L13.0462 15.234L12.993 15.2717L12.9969 15.2688L12.9457 15.3103L12.9495 15.3074L12.9012 15.3519L12.9041 15.348L12.8587 15.3954L12.8616 15.3915L12.8181 15.4408L12.821 15.437L12.7804 15.4882L12.7833 15.4843L12.7456 15.5384C12.7185 15.5771 12.6644 15.5868 12.6258 15.5597C12.5861 15.5317 12.5774 15.4785 12.6045 15.4389L12.6422 15.3857L12.6451 15.3819L12.6857 15.3306L12.6886 15.3268L12.7321 15.2775L12.7359 15.2736L12.7814 15.2272L12.7852 15.2234L12.8336 15.1799L12.8374 15.177L12.8886 15.1354L12.8925 15.1325L12.9457 15.0939L12.9495 15.091L13.0046 15.0562L13.0085 15.0533L13.0655 15.0214L13.0703 15.0185L13.1283 14.9895L13.1332 14.9875L13.1892 14.9634L13.1931 14.9614L13.2511 14.9402L13.2549 14.9392L13.3139 14.9209L13.3178 14.9199L13.3777 14.9044L13.3825 14.9035L13.4424 14.8919L13.4463 14.8909L13.5072 14.8822L13.512 14.8812L13.5729 14.8754H13.5778L13.6386 14.8725H13.7044C13.7517 14.8735 13.7904 14.9122 13.7894 14.9595C13.7894 15.0078 13.7508 15.0455 13.7034 15.0455Z" fill="#FCF5FF" stroke="#FCF5FF" stroke-width="0.7"/>
<path d="M10.2854 17.1224L10.3347 17.1205H10.3299L10.3802 17.1147L10.3753 17.1156L10.4246 17.1069L10.4198 17.1079L10.4681 17.0973L10.4633 17.0982L10.5116 17.0847L10.5068 17.0857L10.5541 17.0692L10.5493 17.0712L10.5957 17.0518L10.5909 17.0538L10.6363 17.0315L10.6324 17.0344L10.6759 17.0103L10.6711 17.0122L10.7136 16.9861L10.7088 16.989L10.76 16.9523L10.7552 16.9561L10.8025 16.9156L10.7977 16.9204L10.8431 16.8769L10.8383 16.8808L10.8798 16.8344L10.876 16.8392L10.9146 16.7899L10.9108 16.7957L10.9456 16.7435L10.9427 16.7483L10.9736 16.6952L10.9707 16.7L10.9977 16.644L10.9958 16.6498L11.019 16.5918L11.0161 16.5976L11.0354 16.5386L11.0335 16.5444L11.049 16.4835L11.047 16.4893L11.0577 16.4284L11.0567 16.4342L11.0635 16.3724C11.0683 16.325 11.1099 16.2902 11.1572 16.2951C11.2046 16.2999 11.2394 16.3415 11.2345 16.3888L11.2287 16.4507L11.2278 16.4574L11.2171 16.5183L11.2162 16.5241L11.2017 16.585L11.1997 16.5908L11.1804 16.6498L11.1785 16.6556L11.1553 16.7136L11.1534 16.7194L11.1263 16.7754L11.1234 16.7802L11.0925 16.8344L11.0886 16.8402L11.0538 16.8914L11.0509 16.8962L11.0122 16.9455L11.0084 16.9503L10.9668 16.9967L10.963 17.0006L10.9175 17.0441L10.9137 17.048L10.8653 17.0886L10.8605 17.0915L10.8103 17.1282L10.8054 17.1311L10.7639 17.1581L10.759 17.161L10.7155 17.1852L10.7117 17.1871L10.6662 17.2094L10.6624 17.2113L10.616 17.2297L10.6112 17.2316L10.5638 17.248L10.5599 17.25L10.5116 17.2635L10.5068 17.2654L10.4585 17.2761L10.4536 17.277L10.4043 17.2857H10.3995L10.3492 17.2915L10.3444 17.2925L10.2951 17.2954C10.2478 17.2973 10.2062 17.2616 10.2043 17.2132C10.2014 17.1659 10.2381 17.1253 10.2854 17.1224Z" fill="#FCF5FF" stroke="#FCF5FF" stroke-width="0.7"/>
<path d="M11.132 16.2873L11.2634 16.2593L11.2663 16.2583L11.3987 16.2342H11.4016L11.534 16.2139H11.5369L11.6703 16.1974H11.6732L11.8076 16.1849H11.8095L11.9448 16.1771H11.9467L12.0762 16.1723H12.2106L12.3391 16.1762H12.342L12.4706 16.1839H12.4735L12.602 16.1945H12.6049L12.7335 16.21C12.7798 16.2148 12.8146 16.2574 12.8088 16.3047C12.803 16.3521 12.7605 16.3859 12.7132 16.3811L12.5846 16.3666H12.5875L12.459 16.355L12.4609 16.3559L12.3324 16.3482H12.3343L12.2058 16.3453H12.2077H12.0791H12.0811L11.9525 16.3492H11.9545L11.8201 16.3569H11.823L11.6887 16.3685H11.6916L11.5572 16.3849L11.5601 16.384L11.4268 16.4043H11.4297L11.2972 16.4284L11.2992 16.4275L11.1677 16.4555C11.1213 16.4661 11.0759 16.4362 11.0653 16.3898C11.0556 16.3424 11.0856 16.297 11.132 16.2873Z" fill="#FCF5FF" stroke="#FCF5FF" stroke-width="0.7"/>
<path d="M12.8224 16.2923V16.3493V16.3435L12.8253 16.3996L12.8243 16.3938L12.8321 16.4498L12.8311 16.444L12.8417 16.4991L12.8398 16.4943L12.8543 16.5484L12.8533 16.5426L12.8707 16.5967L12.8688 16.5909L12.8901 16.6431L12.8881 16.6383L12.9123 16.6885L12.9104 16.6837L12.9384 16.732L12.9355 16.7272L12.9664 16.7746L12.9635 16.7697L12.9974 16.8142L12.9945 16.8103L13.0312 16.8528L13.0273 16.848L13.0669 16.8876L13.0631 16.8838L13.1056 16.9205L13.1008 16.9176L13.1452 16.9505L13.1404 16.9476L13.1868 16.9785L13.182 16.9756L13.2303 17.0027L13.2254 17.0007L13.2757 17.0249L13.2709 17.022L13.3221 17.0432L13.3173 17.0413L13.3695 17.0587L13.3646 17.0577L13.4187 17.0713L13.4129 17.0703L13.4671 17.0809L13.4622 17.08L13.5173 17.0867L13.5115 17.0858L13.5676 17.0896H13.5618L13.6169 17.0887H13.6111L13.6671 17.0848C13.7145 17.0819 13.7561 17.1177 13.759 17.165C13.7628 17.2124 13.7271 17.2539 13.6797 17.2568L13.6246 17.2607C13.6227 17.2617 13.6207 17.2617 13.6188 17.2617H13.5628H13.557L13.5019 17.2588C13.4999 17.2578 13.498 17.2578 13.4961 17.2578L13.441 17.251C13.439 17.251 13.4371 17.2501 13.4352 17.2501L13.3801 17.2394C13.3781 17.2394 13.3762 17.2385 13.3743 17.2385L13.3211 17.224C13.3192 17.224 13.3173 17.223 13.3153 17.223L13.2622 17.2047C13.2602 17.2047 13.2593 17.2037 13.2573 17.2027L13.2051 17.1824C13.2042 17.1815 13.2022 17.1805 13.2003 17.1795L13.1501 17.1554C13.1481 17.1544 13.1472 17.1534 13.1452 17.1525L13.0969 17.1254C13.095 17.1244 13.094 17.1235 13.0921 17.1225L13.0457 17.0916C13.0437 17.0906 13.0428 17.0896 13.0408 17.0877L12.9964 17.0548C12.9954 17.0529 12.9935 17.0519 12.9925 17.051L12.95 17.0143L12.9461 17.0104L12.9055 16.9708C12.9046 16.9688 12.9036 16.9679 12.9017 16.9669L12.8649 16.9244C12.863 16.9224 12.862 16.9215 12.8611 16.9195L12.8263 16.8751C12.8253 16.8731 12.8243 16.8722 12.8234 16.8702L12.7915 16.8239C12.7905 16.8219 12.7896 16.82 12.7886 16.819L12.7606 16.7697C12.7596 16.7678 12.7586 16.7668 12.7577 16.7649L12.7335 16.7137C12.7325 16.7127 12.7316 16.7108 12.7306 16.7088L12.7093 16.6566C12.7084 16.6547 12.7084 16.6528 12.7074 16.6508L12.689 16.5977C12.689 16.5958 12.6881 16.5938 12.6881 16.5919L12.6736 16.5378C12.6726 16.5358 12.6726 16.5339 12.6726 16.532L12.662 16.4769C12.661 16.4749 12.661 16.473 12.661 16.4711L12.6533 16.415V16.4092L12.6504 16.3532C12.6494 16.3512 12.6494 16.3493 12.6494 16.3474L12.6504 16.2913C12.6504 16.243 12.69 16.2053 12.7374 16.2053C12.7847 16.2063 12.8234 16.2449 12.8224 16.2923Z" fill="#FCF5FF" stroke="#FCF5FF" stroke-width="0.7"/>
<path d="M18.2688 16.7832C17.8793 18.1034 16.4953 18.8582 15.178 18.4697C13.8597 18.0812 13.1078 16.6952 13.4973 15.3749C13.8868 14.0547 15.2698 13.2999 16.5881 13.6884C17.9064 14.0769 18.6583 15.4629 18.2688 16.7832ZM18.0968 16.7319C18.4582 15.5064 17.7595 14.2211 16.5369 13.8606C15.3152 13.5001 14.0307 14.2008 13.6692 15.4263C13.3078 16.6518 14.0065 17.9372 15.2292 18.2977C16.4508 18.6582 17.7353 17.9575 18.0968 16.7319Z" fill="#FCF5FF" stroke="#FCF5FF" stroke-width="0.7"/>
<path d="M18.212 15.0695L18.2709 15.1072L18.269 15.1062L18.3279 15.143L18.326 15.142L18.3869 15.1768L18.385 15.1758L18.4459 15.2097L18.4439 15.2087L18.5058 15.2416L18.5038 15.2406L18.5657 15.2715L18.5638 15.2706L18.6372 15.3044L18.6353 15.3034L18.7097 15.3353H18.7078L18.7822 15.3653L18.7803 15.3643L18.8556 15.3923L18.8537 15.3914L18.9301 15.4184L18.9281 15.4175L19.0055 15.4416C19.0509 15.4561 19.076 15.5044 19.0615 15.5499C19.048 15.5953 18.9997 15.6204 18.9542 15.6059L18.8769 15.5818L18.874 15.5808L18.7977 15.5547L18.7957 15.5537L18.7203 15.5257L18.7174 15.5247L18.643 15.4948L18.6411 15.4938L18.5667 15.4619L18.5647 15.461L18.4913 15.4262L18.4893 15.4252L18.4265 15.3943L18.4256 15.3933L18.3637 15.3614L18.3618 15.3604L18.3009 15.3266L18.2989 15.3256L18.239 15.2908L18.2381 15.2899L18.1781 15.2532L18.1772 15.2522L18.1182 15.2135C18.0786 15.1884 18.067 15.1343 18.0931 15.0947C18.1192 15.055 18.1723 15.0434 18.212 15.0695Z" fill="#FCF5FF" stroke="#FCF5FF" stroke-width="0.7"/>
<path d="M19.09 15.5364V15.6804L19.089 15.8254V15.9694L19.088 16.1134V16.2584L19.0871 16.4063V16.5541L19.0861 16.702V16.8499L19.0851 16.9978C19.0851 17.0461 19.0465 17.0838 18.9991 17.0838C18.9508 17.0838 18.9131 17.0451 18.9131 16.9978V16.8489L18.9141 16.701V16.5532L18.915 16.4053V16.2574L18.916 16.1134V15.9684L18.917 15.8244V15.5354C18.9179 15.4881 18.9566 15.4494 19.0039 15.4494C19.0513 15.4504 19.09 15.4891 19.09 15.5364Z" fill="#FCF5FF" stroke="#FCF5FF" stroke-width="0.7"/>
<path d="M19.0367 17.0779L18.9149 17.1213H18.9169L18.7951 17.1668H18.797L18.6762 17.2141H18.6781L18.5583 17.2644L18.5593 17.2634L18.4413 17.3156H18.4423L18.3244 17.3707L18.3254 17.3697L18.2084 17.4268L18.2094 17.4258L18.0934 17.4857L18.0953 17.4847L17.9794 17.5456L17.9813 17.5447L17.8672 17.6085C17.8257 17.6317 17.7735 17.6172 17.7503 17.5746C17.7271 17.5331 17.7416 17.4809 17.7832 17.4577L17.8972 17.3949C17.8982 17.3939 17.8982 17.3939 17.8991 17.3939L18.0141 17.332H18.0151L18.1311 17.2721H18.133L18.25 17.2151C18.2509 17.2141 18.2509 17.2141 18.2519 17.2141L18.3698 17.159C18.3708 17.159 18.3708 17.159 18.3717 17.1581L18.4897 17.1059C18.4906 17.1059 18.4906 17.1059 18.4916 17.1049L18.6105 17.0547H18.6124L18.7323 17.0063C18.7332 17.0063 18.7332 17.0063 18.7342 17.0054L18.855 16.9599C18.856 16.9599 18.856 16.959 18.8569 16.959L18.9787 16.9155C19.0241 16.899 19.0734 16.9232 19.0889 16.9677C19.1053 17.0121 19.0821 17.0614 19.0367 17.0779Z" fill="#FCF5FF" stroke="#FCF5FF" stroke-width="0.7"/>
<path d="M13.5869 12.3797H13.5878V12.3807L13.5869 12.3797ZM14.9148 12.0424L14.5427 12.0927H14.5408L14.0595 12.1526H14.0585L13.6661 12.198H13.6652V12.2C13.6719 12.2386 13.6623 12.2802 13.6343 12.3121L13.6217 12.3266L13.6111 12.3391L13.6024 12.3517L13.5927 12.3652L13.5859 12.3778L13.585 12.3788L13.5869 12.3797L13.5878 12.3807L13.8701 12.3082L14.8076 12.0724H14.8085L14.9149 12.0453L14.9148 12.0424Z" fill="#FCF5FF"/>
<path d="M13.5878 12.3788H13.5888M13.5869 12.3797H13.5878V12.3807M13.5869 12.3797L13.5878 12.3807M13.5869 12.3797L13.585 12.3788L13.5859 12.3778L13.5927 12.3652L13.6024 12.3517L13.6111 12.3391L13.6217 12.3266L13.6343 12.3121C13.6623 12.2802 13.6719 12.2386 13.6652 12.2V12.198H13.6661L14.0585 12.1526H14.0595L14.5408 12.0927H14.5427L14.9148 12.0424L14.9149 12.0453L14.8085 12.0724H14.8076L13.8701 12.3082L13.5878 12.3807" stroke="#FCF5FF" stroke-width="0.7"/>
<path d="M8.07865 14.3881C7.42338 14.3881 6.79707 14.7612 6.50519 15.3952C6.10602 16.2641 6.48683 17.2915 7.35474 17.6906C7.58863 17.7979 7.83412 17.8491 8.07672 17.8491C8.73103 17.8491 9.3583 17.4751 9.64921 16.8411C10.0484 15.9732 9.66855 14.9458 8.79966 14.5466C8.56577 14.4384 8.32028 14.3881 8.07865 14.3881Z" fill="#FCF5FF" stroke="#FCF5FF" stroke-width="0.7"/>
<path d="M15.796 14.3312C15.1397 14.3312 14.5125 14.7062 14.2206 15.3402C13.8205 16.2101 14.2013 17.2384 15.0711 17.6386C15.306 17.7458 15.5514 17.7971 15.7931 17.7971C16.4493 17.7971 17.0766 17.423 17.3685 16.788C17.7676 15.9192 17.3878 14.8898 16.5189 14.4907H16.518C16.2841 14.3824 16.0376 14.3312 15.796 14.3312Z" fill="#FCF5FF" stroke="#FCF5FF" stroke-width="0.7"/>
<path d="M19.6889 11.4925L19.6908 11.4935V11.4925H19.6889ZM19.6889 11.4925L19.6812 11.5032L19.6879 11.5022L19.6889 11.4925ZM19.6812 11.5032L19.6773 11.5041L19.6793 11.5061L19.6812 11.5032ZM19.6793 11.5061L19.6783 11.508L19.6802 11.507L19.6793 11.5061ZM20.1983 15.7315L20.1973 15.7354L20.2002 15.7335L20.1983 15.7315ZM19.6541 10.6256L19.6387 10.6401L19.6483 10.6633V10.6643L19.6889 10.7484L19.7324 10.8315V10.8325L19.7788 10.9127H19.7798L19.8291 10.9919L19.83 10.9929L19.8735 11.0567L19.919 11.1195H19.9199L19.9673 11.1804L19.9682 11.1814L20.0175 11.2403L20.0697 11.2983L20.1239 11.3544V11.3553L20.1809 11.4104C20.1818 11.4114 20.1828 11.4124 20.1828 11.4133L20.1925 11.4162H20.1876C20.2398 11.4481 20.2611 11.5148 20.234 11.5718C20.2137 11.6163 20.1693 11.6424 20.1239 11.6424C20.1065 11.6424 20.0891 11.6385 20.0717 11.6308L20.0262 11.6095L19.9808 11.5892L19.9364 11.5709H19.9354L19.8909 11.5535L19.8436 11.537L19.7981 11.5225H19.7972L19.7489 11.508V11.5071L19.6996 11.4945L19.6908 11.4925V11.4935L19.6909 11.5013L19.6879 11.5022L19.687 11.5061H19.6851H19.686L19.6802 11.507L19.6841 11.5129L19.6783 11.508L19.7827 11.7932V11.7922L19.7846 11.7999L19.9277 12.2677L19.9296 12.2745L20.0465 12.749L20.0475 12.7558L20.1384 13.2371L20.1393 13.2439L20.2041 13.729V13.7358L20.2418 14.2239L20.2427 14.2307L20.2524 14.7197V14.7265L20.236 15.2155V15.2233L20.1925 15.7104V15.7172L20.1915 15.723V15.7239H20.1925L20.1915 15.7249H20.1925L20.1983 15.7315L20.2002 15.7259H20.205L20.2041 15.7317L20.2099 15.7278L20.2118 15.7288L20.2031 15.7365L20.2041 15.7317L20.2002 15.7335L20.2031 15.7365L20.1983 15.7355L20.2717 15.7684L20.2814 15.7732L20.4157 15.8467L20.4244 15.8515L20.552 15.9356L20.5607 15.9414L20.6815 16.0351L20.6893 16.0409L20.8023 16.1443L20.8091 16.1511L20.9135 16.2623L20.9202 16.271L20.9744 16.3386L20.9956 16.3309L20.9947 16.3328L21.0594 15.9781L21.1686 15.3905L21.2788 14.8029V14.8019L21.39 14.2152L21.5021 13.6276L21.5862 13.1917L21.6702 12.7568L21.6712 12.7558L21.7563 12.3209L21.8423 11.886V11.885L21.9177 11.5071V11.5042L21.907 11.4926L21.8278 11.4897L21.8191 11.4888L21.6364 11.4704L21.6277 11.4694H21.6287L21.448 11.4385L21.4402 11.4375L21.2624 11.396L21.2547 11.3931L21.0788 11.3409H21.0797L21.072 11.338L20.9 11.2742L20.8932 11.2713L20.726 11.1969L20.7192 11.193L20.5568 11.108L20.5501 11.1041L20.3935 11.0084L20.3867 11.0045L20.2369 10.9002L20.2311 10.8944L20.1983 10.8683L20.1954 10.8818L20.1944 10.8808V10.8663C20.1876 10.8644 20.1818 10.8625 20.1751 10.8596L20.0987 10.8257L20.0233 10.7919H20.0224L19.947 10.7581H19.946L19.8706 10.7243V10.7233L19.7943 10.6895L19.7179 10.6547L19.6541 10.6256Z" fill="#FCF5FF"/>
<path d="M19.6889 11.4925L19.6908 11.4935M19.6889 11.4925H19.6908M19.6889 11.4925L19.6812 11.5032M19.6889 11.4925L19.6879 11.5022M19.6908 11.4935V11.4925M19.6908 11.4935L19.6928 11.4955M19.6908 11.4935L19.6909 11.5013L19.6879 11.5022M19.6908 11.4925L19.6996 11.4945M19.6812 11.5032L19.6879 11.5022M19.6812 11.5032L19.6773 11.5041L19.6793 11.5061M19.6812 11.5032L19.6793 11.5061M19.6879 11.5022L19.687 11.5061H19.6851H19.686L19.6802 11.507M19.6793 11.5061L19.6783 11.508M19.6793 11.5061L19.6802 11.507M19.6783 11.508L19.6802 11.507M19.6783 11.508L19.6841 11.5129L19.6802 11.507M19.6783 11.508L19.7827 11.7932V11.7922L19.7846 11.7999L19.9277 12.2677L19.9296 12.2745L20.0465 12.749L20.0475 12.7558L20.1384 13.2371L20.1393 13.2439L20.2041 13.729V13.7358L20.2418 14.2239L20.2427 14.2307L20.2524 14.7197V14.7265L20.236 15.2155V15.2233L20.1925 15.7104V15.7172L20.1915 15.723V15.7239H20.1925L20.1915 15.7249H20.1925L20.1983 15.7315M20.1983 15.7315L20.1973 15.7354L20.2002 15.7335M20.1983 15.7315L20.2002 15.7335M20.1983 15.7315L20.2002 15.7259H20.205L20.2041 15.7317M20.2002 15.7335L20.2041 15.7317M20.2002 15.7335L20.2031 15.7365M20.0262 11.6095L20.0717 11.6308C20.0891 11.6385 20.1065 11.6424 20.1239 11.6424C20.1693 11.6424 20.2137 11.6163 20.234 11.5718C20.2611 11.5148 20.2398 11.4481 20.1876 11.4162H20.1925L20.1828 11.4133C20.1828 11.4124 20.1818 11.4114 20.1809 11.4104L20.1239 11.3553V11.3544L20.0697 11.2983L20.0175 11.2403L19.9682 11.1814L19.9673 11.1804L19.9199 11.1195H19.919L19.8735 11.0567L19.83 10.9929L19.8291 10.9919L19.7798 10.9127H19.7788L19.7324 10.8325V10.8315L19.6889 10.7484L19.6483 10.6643V10.6633L19.6387 10.6401L19.6541 10.6256L19.7179 10.6547L19.7943 10.6895L19.8706 10.7233V10.7243L19.946 10.7581H19.947L20.0224 10.7919H20.0233L20.0987 10.8257L20.1751 10.8596C20.1818 10.8625 20.1876 10.8644 20.1944 10.8663V10.8808L20.1954 10.8818L20.1983 10.8683L20.2311 10.8944L20.2369 10.9002L20.3867 11.0045L20.3935 11.0084L20.5501 11.1041L20.5568 11.108L20.7192 11.193L20.726 11.1969L20.8932 11.2713L20.9 11.2742L21.072 11.338L21.0797 11.3409H21.0788L21.2547 11.3931L21.2624 11.396L21.4402 11.4375L21.448 11.4385L21.6287 11.4694H21.6277L21.6364 11.4704L21.8191 11.4888L21.8278 11.4897L21.907 11.4926L21.9177 11.5042V11.5071L21.8423 11.885V11.886L21.7563 12.3209L21.6712 12.7558L21.6702 12.7568L21.5862 13.1917L21.5021 13.6276L21.39 14.2152L21.2788 14.8019V14.8029L21.1686 15.3905L21.0594 15.9781M20.0262 11.6095L20.0272 11.6105M20.0262 11.6095L19.9808 11.5892L19.9364 11.5709H19.9354L19.8909 11.5535L19.8436 11.537L19.7981 11.5225H19.7972L19.7489 11.508V11.5071L19.6996 11.4945M19.6996 11.4945L19.7044 11.5013M20.2041 15.7317L20.2099 15.7278L20.2118 15.7288L20.2031 15.7365M20.2041 15.7317L20.2031 15.7365M20.2031 15.7365L20.1983 15.7355L20.2717 15.7684L20.2814 15.7732L20.4157 15.8467L20.4244 15.8515L20.552 15.9356L20.5607 15.9414L20.6815 16.0351L20.6893 16.0409L20.8023 16.1443L20.8091 16.1511L20.9135 16.2623L20.9202 16.271L20.9744 16.3386L20.9956 16.3309L20.9947 16.3328L21.0594 15.9781M21.0594 15.9781H21.0604" stroke="#FCF5FF" stroke-width="0.7"/>
<path d="M2.20887 11.421L2.20018 11.4307H2.20887V11.421ZM2.20018 11.4307H2.19824V11.4317H2.19921L2.20018 11.4307ZM2.19921 11.4317V11.4326H2.20018L2.19921 11.4317ZM4.22884 10.7126L4.20565 10.7135H4.20468L4.13412 10.7155H4.13316L4.0626 10.7164H4.06164L3.99205 10.7184L3.99108 10.7174L3.91956 10.7184L3.87414 10.7193L3.88477 10.73L3.86737 10.7213L3.74366 10.815L3.73786 10.8199V10.8189L3.58032 10.9242L3.57452 10.9281L3.41215 11.0247L3.40539 11.0276L3.23722 11.1146L3.23045 11.1175L3.05842 11.1939L3.05068 11.1968H3.05165L2.87478 11.2635L2.86802 11.2664L2.68728 11.3224L2.67955 11.3244H2.68052L2.49688 11.3698L2.48915 11.3717L2.29102 11.4094L2.28329 11.4104L2.20887 11.42L2.20887 11.421L2.20983 11.42L2.2108 11.4297L2.20887 11.4307L2.20887 11.4316L2.20018 11.4326L2.20983 11.4423L2.19921 11.4326L2.24173 11.7641L2.29875 12.1797L2.35674 12.5953L2.41667 13.0099L2.47852 13.4246L2.57421 14.0383L2.67472 14.6511L2.77814 15.2638L2.88638 15.8756L2.95984 16.2748L2.97917 16.2806L3.00526 16.2535L3.01203 16.2458L3.12318 16.1453L3.13188 16.1385L3.25075 16.0477L3.25849 16.0419L3.3851 15.9607L3.3938 15.9558L3.52621 15.8853L3.53491 15.8805L3.67215 15.8205L3.68181 15.8167L3.73497 15.7993L3.7427 15.7886V15.7877L3.70984 15.4639V15.4562L3.69051 14.9922L3.68954 14.9855L3.69631 14.5206L3.69728 14.5138L3.73014 14.0509L3.7311 14.0431L3.79006 13.5831L3.79103 13.5754L3.87608 13.1192L3.87801 13.1124L3.98916 12.661L3.99109 12.6543L4.12737 12.2106L4.1293 12.2039L4.2907 11.768L4.2936 11.7612L4.39798 11.5235L4.39895 11.5186L4.38735 11.507H4.36706L4.28587 11.5099L4.20372 11.5119L4.12157 11.5157L4.04038 11.5186L3.9592 11.5225H3.95823L3.87705 11.5273H3.87608L3.84129 11.5293L3.84226 11.5418H3.84129H3.84032L3.83742 11.5312H3.83646C3.82003 11.5389 3.80263 11.5428 3.78427 11.5428C3.75431 11.5428 3.72434 11.5322 3.70115 11.5099C3.66925 11.48 3.65669 11.4365 3.66442 11.3969H3.66345L3.66539 11.394C3.67022 11.3582 3.69148 11.3263 3.72144 11.307H3.72048L3.72627 11.3041L3.77073 11.2558L3.7717 11.2548L3.84612 11.1746L3.92151 11.0924V11.0915L3.99593 11.0093L4.06841 10.9272L4.1293 10.8576L4.18923 10.788L4.23852 10.731L4.22884 10.7126Z" fill="#FCF5FF"/>
<path d="M2.20887 11.421L2.20018 11.4307M2.20887 11.421V11.4307M2.20887 11.421L2.20887 11.42L2.28329 11.4104L2.29102 11.4094L2.48915 11.3717L2.49688 11.3698L2.68052 11.3244H2.67955L2.68728 11.3224L2.86802 11.2664L2.87478 11.2635L3.05165 11.1968H3.05068L3.05842 11.1939L3.23045 11.1175L3.23722 11.1146L3.40539 11.0276L3.41215 11.0247L3.57452 10.9281L3.58032 10.9242L3.73786 10.8189V10.8199L3.74366 10.815L3.86737 10.7213L3.88477 10.73L3.87414 10.7193L3.91956 10.7184L3.99108 10.7174L3.99205 10.7184L4.06164 10.7164H4.0626L4.13316 10.7155H4.13412L4.20468 10.7135H4.20565L4.22884 10.7126L4.23852 10.731L4.18923 10.788L4.1293 10.8576L4.06841 10.9272L3.99593 11.0093L3.92151 11.0915V11.0924L3.84612 11.1746L3.7717 11.2548L3.77073 11.2558L3.72627 11.3041L3.72048 11.307H3.72144C3.69148 11.3263 3.67022 11.3582 3.66539 11.394L3.66345 11.3969H3.66442C3.65669 11.4365 3.66925 11.48 3.70115 11.5099C3.72434 11.5322 3.75431 11.5428 3.78427 11.5428C3.80263 11.5428 3.82003 11.5389 3.83646 11.5312H3.83742L3.84032 11.5418H3.84129H3.84226L3.84129 11.5293L3.87608 11.5273H3.87705L3.95823 11.5225H3.9592L4.04038 11.5186L4.12157 11.5157L4.20372 11.5119L4.28587 11.5099L4.36706 11.507H4.38735L4.39895 11.5186L4.39798 11.5235L4.2936 11.7612L4.2907 11.768L4.1293 12.2039L4.12737 12.2106L3.99109 12.6543L3.98916 12.661L3.87801 13.1124L3.87608 13.1192L3.79103 13.5754L3.79006 13.5831L3.7311 14.0431L3.73014 14.0509L3.69728 14.5138L3.69631 14.5206L3.68954 14.9855L3.69051 14.9922L3.70984 15.4562V15.4639L3.7427 15.7877V15.7886L3.73497 15.7993L3.68181 15.8167L3.67215 15.8205L3.53491 15.8805L3.52621 15.8853L3.3938 15.9558L3.3851 15.9607L3.25849 16.0419L3.25075 16.0477L3.13188 16.1385L3.12318 16.1453L3.01203 16.2458L3.00526 16.2535L2.97917 16.2806L2.95984 16.2748L2.88638 15.8756L2.77814 15.2638L2.67472 14.6511L2.57421 14.0383L2.47852 13.4246L2.41667 13.0099L2.35674 12.5953L2.29875 12.1797L2.24173 11.7641L2.19921 11.4326M2.20887 11.421L2.20983 11.42L2.2108 11.4297L2.20887 11.4307M2.20018 11.4307H2.20887M2.20018 11.4307H2.19824V11.4317H2.19921M2.20018 11.4307L2.19921 11.4317M2.20887 11.4307L2.20887 11.4316L2.20018 11.4326M2.19921 11.4317V11.4326M2.19921 11.4317L2.20018 11.4326M2.19921 11.4326H2.20018M2.19921 11.4326H2.19824M2.19921 11.4326L2.20983 11.4423L2.20018 11.4326" stroke="#FCF5FF" stroke-width="0.7"/>
</g>
<defs>
<clipPath id="clip0_745_1676">
<rect width="23.7526" height="24" fill="white"/>
</clipPath>
</defs>
</svg>
