<svg width="20" height="20" viewBox="0 0 20 20" fill="none" xmlns="http://www.w3.org/2000/svg">
<rect width="20" height="20" rx="10" fill="#EF5A20"/>
<path d="M6.19457 6.21186C6.31931 6.08754 6.4884 6.01771 6.6647 6.01771C6.841 6.01771 7.01009 6.08754 7.13484 6.21186L9.99113 9.06211L12.8474 6.21186C12.9287 6.12447 13.0322 6.06059 13.1468 6.02694C13.2615 5.99329 13.3831 5.99112 13.4989 6.02066C13.6147 6.0502 13.7203 6.11036 13.8047 6.1948C13.8891 6.27923 13.9491 6.38481 13.9784 6.50043C14.008 6.61583 14.006 6.73708 13.9724 6.85141C13.9389 6.96574 13.875 7.06894 13.7877 7.15014L10.9314 10.0004L13.7877 12.8506C13.8753 12.9318 13.9393 13.035 13.973 13.1494C14.0067 13.2638 14.0089 13.3852 13.9793 13.5007C13.9497 13.6163 13.8894 13.7217 13.8048 13.8059C13.7202 13.8901 13.6144 13.95 13.4985 13.9792C13.3829 14.0088 13.2614 14.0068 13.1468 13.9733C13.0322 13.9398 12.9288 13.8761 12.8474 13.7889L9.99113 10.9387L7.13484 13.7889C7.00864 13.9061 6.84183 13.97 6.66946 13.967C6.49709 13.964 6.33259 13.8945 6.21053 13.773C6.08879 13.6512 6.01911 13.487 6.01613 13.315C6.01315 13.143 6.07711 12.9766 6.19457 12.8506L9.05086 10.0004L6.19457 7.15014C6.06998 7.02567 6 6.85693 6 6.681C6 6.50507 6.06998 6.33634 6.19457 6.21186Z" fill="#FCF5FF"/>
</svg>
