<svg width="28" height="28" viewBox="0 0 28 28" fill="none" xmlns="http://www.w3.org/2000/svg">
<rect width="28" height="28" rx="6" fill="#F46530"/>
<path d="M9.75 6.8C9.75 6.32261 9.92911 5.86477 10.2479 5.52721C10.5667 5.18964 10.9991 5 11.45 5H16.55C17.0009 5 17.4333 5.18964 17.7521 5.52721C18.0709 5.86477 18.25 6.32261 18.25 6.8V8.6H21.65C21.8754 8.6 22.0916 8.69482 22.251 8.8636C22.4104 9.03239 22.5 9.2613 22.5 9.5C22.5 9.73869 22.4104 9.96761 22.251 10.1364C22.0916 10.3052 21.8754 10.4 21.65 10.4H20.7414L20.0044 21.3278C19.9739 21.7819 19.782 22.2069 19.4673 22.5172C19.1526 22.8275 18.7386 23 18.3087 23H9.6905C9.26052 23 8.84651 22.8275 8.53185 22.5172C8.2172 22.2069 8.02528 21.7819 7.99475 21.3278L7.2595 10.4H6.35C6.12457 10.4 5.90837 10.3052 5.74896 10.1364C5.58955 9.96761 5.5 9.73869 5.5 9.5C5.5 9.2613 5.58955 9.03239 5.74896 8.8636C5.90837 8.69482 6.12457 8.6 6.35 8.6H9.75V6.8ZM11.45 8.6H16.55V6.8H11.45V8.6ZM8.9629 10.4L9.69135 21.2H18.3095L19.038 10.4H8.9629ZM12.3 12.2C12.5254 12.2 12.7416 12.2948 12.901 12.4636C13.0604 12.6324 13.15 12.8613 13.15 13.1V18.5C13.15 18.7387 13.0604 18.9676 12.901 19.1364C12.7416 19.3052 12.5254 19.4 12.3 19.4C12.0746 19.4 11.8584 19.3052 11.699 19.1364C11.5396 18.9676 11.45 18.7387 11.45 18.5V13.1C11.45 12.8613 11.5396 12.6324 11.699 12.4636C11.8584 12.2948 12.0746 12.2 12.3 12.2ZM15.7 12.2C15.9254 12.2 16.1416 12.2948 16.301 12.4636C16.4604 12.6324 16.55 12.8613 16.55 13.1V18.5C16.55 18.7387 16.4604 18.9676 16.301 19.1364C16.1416 19.3052 15.9254 19.4 15.7 19.4C15.4746 19.4 15.2584 19.3052 15.099 19.1364C14.9396 18.9676 14.85 18.7387 14.85 18.5V13.1C14.85 12.8613 14.9396 12.6324 15.099 12.4636C15.2584 12.2948 15.4746 12.2 15.7 12.2Z" fill="#FEF4EE"/>
</svg>
