<svg width="29" height="29" viewBox="0 0 29 29" fill="none" xmlns="http://www.w3.org/2000/svg">
<rect x="0.5" y="0.5" width="28" height="28" rx="6" fill="#EBECEC"/>
<path d="M10.25 7.3C10.25 6.82261 10.4291 6.36477 10.7479 6.02721C11.0667 5.68964 11.4991 5.5 11.95 5.5H17.05C17.5009 5.5 17.9333 5.68964 18.2521 6.02721C18.5709 6.36477 18.75 6.82261 18.75 7.3V9.1H22.15C22.3754 9.1 22.5916 9.19482 22.751 9.3636C22.9104 9.53239 23 9.7613 23 10C23 10.2387 22.9104 10.4676 22.751 10.6364C22.5916 10.8052 22.3754 10.9 22.15 10.9H21.2414L20.5044 21.8278C20.4739 22.2819 20.282 22.7069 19.9673 23.0172C19.6526 23.3275 19.2386 23.5 18.8087 23.5H10.1905C9.76052 23.5 9.34651 23.3275 9.03185 23.0172C8.7172 22.7069 8.52528 22.2819 8.49475 21.8278L7.7595 10.9H6.85C6.62457 10.9 6.40837 10.8052 6.24896 10.6364C6.08955 10.4676 6 10.2387 6 10C6 9.7613 6.08955 9.53239 6.24896 9.3636C6.40837 9.19482 6.62457 9.1 6.85 9.1H10.25V7.3ZM11.95 9.1H17.05V7.3H11.95V9.1ZM9.4629 10.9L10.1914 21.7H18.8095L19.538 10.9H9.4629ZM12.8 12.7C13.0254 12.7 13.2416 12.7948 13.401 12.9636C13.5604 13.1324 13.65 13.3613 13.65 13.6V19C13.65 19.2387 13.5604 19.4676 13.401 19.6364C13.2416 19.8052 13.0254 19.9 12.8 19.9C12.5746 19.9 12.3584 19.8052 12.199 19.6364C12.0396 19.4676 11.95 19.2387 11.95 19V13.6C11.95 13.3613 12.0396 13.1324 12.199 12.9636C12.3584 12.7948 12.5746 12.7 12.8 12.7ZM16.2 12.7C16.4254 12.7 16.6416 12.7948 16.801 12.9636C16.9604 13.1324 17.05 13.3613 17.05 13.6V19C17.05 19.2387 16.9604 19.4676 16.801 19.6364C16.6416 19.8052 16.4254 19.9 16.2 19.9C15.9746 19.9 15.7584 19.8052 15.599 19.6364C15.4396 19.4676 15.35 19.2387 15.35 19V13.6C15.35 13.3613 15.4396 13.1324 15.599 12.9636C15.7584 12.7948 15.9746 12.7 16.2 12.7Z" fill="#E33513"/>
</svg>
