<svg width="29" height="29" viewBox="0 0 29 29" fill="none" xmlns="http://www.w3.org/2000/svg">
<rect x="0.5" y="0.5" width="28" height="28" rx="6" fill="#EBECEC"/>
<path d="M20.5417 8.30047L21.2411 7.60106C21.2412 7.60093 21.2414 7.6008 21.2415 7.60067C21.3205 7.52054 21.3648 7.41252 21.3648 7.29998C21.3648 7.18729 21.3204 7.07914 21.2412 6.99897L20.5417 8.30047ZM20.5417 8.30047L19.1655 6.92428L19.8667 6.21611C19.8668 6.21603 19.8669 6.21594 19.867 6.21586C19.9063 6.17648 19.9529 6.14523 20.0043 6.12389C20.0558 6.10251 20.111 6.0915 20.1667 6.0915C20.2224 6.0915 20.2776 6.10251 20.3291 6.12389C20.3805 6.14523 20.4271 6.17649 20.4664 6.21587C20.4665 6.21595 20.4666 6.21603 20.4667 6.21611L21.2411 6.99889L20.5417 8.30047ZM13.1416 17.0103L13.1416 17.0104L13.1456 17.0092C13.5303 16.9016 13.8812 16.6979 14.1655 16.4173L14.1665 16.4164L22.1165 8.4664L22.1167 8.46612C22.4263 8.15531 22.6001 7.7345 22.6001 7.29581C22.6001 6.85712 22.4263 6.43631 22.1167 6.1255L22.1157 6.12447L21.3324 5.34947L21.3324 5.34945L21.3298 5.34702C21.0154 5.04669 20.5973 4.8791 20.1625 4.8791C19.7277 4.8791 19.3097 5.04669 18.9952 5.34702L18.9952 5.34698L18.992 5.35015L11.042 13.2918L11.0416 13.2922C10.7596 13.5756 10.5578 13.9287 10.4567 14.3155C10.4566 14.3157 10.4566 14.3159 10.4565 14.3161L9.8407 16.613C9.84061 16.6133 9.84051 16.6137 9.84042 16.614C9.80191 16.753 9.80101 16.8997 9.83781 17.0391C9.8747 17.1789 9.94814 17.3064 10.0506 17.4084L10.0515 17.4093C10.2064 17.5615 10.4142 17.6478 10.6314 17.65L10.6577 17.6502L10.6833 17.6437L13.1416 17.0103ZM13.2938 15.54L13.2938 15.54L13.2907 15.5432C13.1622 15.674 13.0009 15.7679 12.8236 15.815L12.8233 15.8151L12.1265 16.0019L11.4565 15.3319L11.6428 14.6366C11.6429 14.6363 11.643 14.6361 11.643 14.6358C11.692 14.4588 11.7859 14.2974 11.9156 14.1673L12.0898 13.9976L13.4653 15.3731L13.2938 15.54ZM7.95671 22.1483H22.04C22.2036 22.1483 22.3604 22.0833 22.4761 21.9677C22.5917 21.852 22.6567 21.6952 22.6567 21.5316C22.6567 21.3681 22.5917 21.2112 22.4761 21.0956C22.3604 20.9799 22.2036 20.915 22.04 20.915H7.95671C7.79315 20.915 7.6363 20.9799 7.52066 21.0956C7.40501 21.2112 7.34004 21.3681 7.34004 21.5316C7.34004 21.6952 7.40501 21.852 7.52066 21.9677C7.6363 22.0833 7.79315 22.1483 7.95671 22.1483ZM14.3417 14.5005L12.9662 13.125L18.2917 7.79949L19.6672 9.17498L14.3417 14.5005Z" fill="#9B1AD6" stroke="#9B1AD6" stroke-width="0.4"/>
</svg>
