<svg width="40" height="40" viewBox="0 0 40 40" fill="none" xmlns="http://www.w3.org/2000/svg">
<path d="M20 12C20.2652 12 20.5196 12.1053 20.7071 12.2929C20.8946 12.4804 21 12.7348 21 13V23C21 23.2652 20.8946 23.5195 20.7071 23.7071C20.5196 23.8946 20.2652 24 20 24C19.7348 24 19.4804 23.8946 19.2929 23.7071C19.1054 23.5195 19 23.2652 19 23V13C19 12.7348 19.1054 12.4804 19.2929 12.2929C19.4804 12.1053 19.7348 12 20 12ZM20 29C20.3978 29 20.7794 28.8419 21.0607 28.5606C21.342 28.2793 21.5 27.8978 21.5 27.5C21.5 27.1021 21.342 26.7206 21.0607 26.4393C20.7794 26.158 20.3978 26 20 26C19.6022 26 19.2206 26.158 18.9393 26.4393C18.658 26.7206 18.5 27.1021 18.5 27.5C18.5 27.8978 18.658 28.2793 18.9393 28.5606C19.2206 28.8419 19.6022 29 20 29ZM19.446 4.16797C19.6101 4.05876 19.8029 4.00049 20 4.00049C20.1971 4.00049 20.3899 4.05876 20.554 4.16797C24.3297 6.71336 28.6338 8.36892 33.142 9.00997C33.3802 9.04414 33.5981 9.16306 33.7557 9.34491C33.9133 9.52676 34 9.75933 34 9.99997V19C34 26.782 29.386 32.46 20.36 35.934C20.1283 36.0234 19.8717 36.0234 19.64 35.934C10.616 32.46 6 26.78 6 19V9.99997C6.00004 9.75904 6.08706 9.52621 6.24507 9.34432C6.40307 9.16243 6.62144 9.0437 6.86 9.00997C11.3675 8.36863 15.6709 6.71308 19.446 4.16797ZM19.198 6.69197C15.7605 8.77198 11.9614 10.1847 8 10.856V19C8 25.784 11.936 30.726 20 33.926C28.064 30.726 32 25.784 32 19V10.856C28.038 10.1849 24.2381 8.77221 20.8 6.69197L20 6.19397L19.198 6.69197Z" fill="#900F0F"/>
</svg>
