<svg width="28" height="28" viewBox="0 0 28 28" fill="none" xmlns="http://www.w3.org/2000/svg">
<path d="M18.666 14H23.3327M4.66602 21V19.8333C4.66602 18.9051 5.03476 18.0148 5.69114 17.3585C6.34752 16.7021 7.23776 16.3333 8.16602 16.3333H12.8327C13.7609 16.3333 14.6512 16.7021 15.3076 17.3585C15.9639 18.0148 16.3327 18.9051 16.3327 19.8333V21C16.3327 21.7 15.866 22.1667 15.166 22.1667H5.83268C5.52326 22.1667 5.22652 22.0438 5.00772 21.825C4.78893 21.6062 4.66602 21.3094 4.66602 21ZM13.9993 9.33334C13.9993 10.2616 13.6306 11.1518 12.9742 11.8082C12.3178 12.4646 11.4276 12.8333 10.4993 12.8333C9.57109 12.8333 8.68085 12.4646 8.02448 11.8082C7.3681 11.1518 6.99935 10.2616 6.99935 9.33334C6.99935 8.40508 7.3681 7.51484 8.02448 6.85846C8.68085 6.20208 9.57109 5.83334 10.4993 5.83334C11.4276 5.83334 12.3178 6.20208 12.9742 6.85846C13.6306 7.51484 13.9993 8.40508 13.9993 9.33334Z" stroke="#961F16" stroke-width="1.66667" stroke-linecap="round" stroke-linejoin="round"/>
</svg>
