<svg width="174" height="154" viewBox="0 0 174 154" fill="none" xmlns="http://www.w3.org/2000/svg">
<path d="M77.2393 14.7521L77.4267 18.2401C77.944 17.7417 78.6235 17.446 79.3408 17.4073C80.1102 17.424 80.8449 17.7308 81.3978 18.2662C81.9506 18.8016 82.2808 19.5261 82.3221 20.2946C82.3635 21.0631 82.1129 21.8189 81.6207 22.4105C81.1285 23.0022 80.431 23.386 79.6678 23.4852C78.9504 23.5226 78.2433 23.3014 77.6753 22.8617L77.8627 26.3802C78.38 25.8818 79.0595 25.5862 79.7768 25.5474C80.5462 25.5642 81.2809 25.8709 81.8338 26.4063C82.3866 26.9418 82.7168 27.6663 82.7581 28.4348C82.7995 29.2033 82.5489 29.959 82.0567 30.5506C81.5645 31.1423 80.867 31.5261 80.1038 31.6253C79.3864 31.6628 78.6793 31.4415 78.1113 31.0018L78.2987 34.5203C78.8165 34.0232 79.4959 33.7291 80.2128 33.6919C80.9771 33.7162 81.7044 34.0265 82.2508 34.5614C82.7972 35.0963 83.123 35.8169 83.1635 36.5805C83.2041 37.3441 82.9565 38.0951 82.4699 38.6849C81.9832 39.2747 81.2928 39.6603 80.5354 39.7654C79.8192 39.8042 79.1131 39.5827 78.5473 39.1419L78.7347 42.6604C79.2525 42.1633 79.9319 41.8692 80.6488 41.832C81.4131 41.8563 82.1404 42.1666 82.6868 42.7015C83.2332 43.2365 83.559 43.957 83.5995 44.7206C83.6401 45.4842 83.3926 46.2352 82.9059 46.825C82.4192 47.4148 81.7288 47.8004 80.9714 47.9055C80.2551 47.9451 79.5487 47.7236 78.9833 47.282L79.1707 50.8049C79.6869 50.3048 80.367 50.0089 81.0848 49.9722C81.8491 49.9965 82.5764 50.3068 83.1228 50.8417C83.6692 51.3766 83.995 52.0971 84.0355 52.8607C84.0761 53.6243 83.8286 54.3753 83.3419 54.9651C82.8552 55.5549 82.1648 55.9405 81.4074 56.0456C80.6916 56.0864 79.9853 55.8665 79.4193 55.4265L79.6067 58.945C80.124 58.4466 80.8035 58.151 81.5208 58.1123C82.2899 58.1299 83.024 58.4374 83.5762 58.9732C84.1283 59.5089 84.4577 60.2334 84.4985 61.0017C84.5393 61.77 84.2884 62.5253 83.7961 63.1165C83.3038 63.7077 82.6064 64.0912 81.8434 64.1901C81.1274 64.2273 80.4218 64.0061 79.8553 63.5666L79.973 65.7467L173.739 63.5143L168.987 8.89661L77.2393 14.7521Z" fill="#EBEBEB"/>
<path d="M75.1689 12.4936L75.3564 16.0034C75.8752 15.5123 76.5526 15.2231 77.2661 15.1881C78.0355 15.2048 78.7703 15.5116 79.3231 16.047C79.8759 16.5824 80.2061 17.3069 80.2475 18.0754C80.2888 18.8439 80.0383 19.5997 79.5461 20.1913C79.0539 20.7829 78.3563 21.1668 77.5931 21.266C76.8771 21.3031 76.1715 21.0819 75.6049 20.6425L75.7924 24.161C76.2142 23.7569 76.7431 23.4824 77.3163 23.37C77.8894 23.2576 78.4828 23.312 79.026 23.5268C79.5692 23.7416 80.0393 24.1077 80.3806 24.5818C80.7218 25.0558 80.9199 25.6178 80.9513 26.2011C80.9826 26.7843 80.846 27.3643 80.5575 27.8722C80.269 28.3801 79.8409 28.7946 79.3239 29.0664C78.8069 29.3382 78.2228 29.4559 77.6408 29.4056C77.0589 29.3553 76.5036 29.1391 76.0409 28.7826L76.2284 32.3011C76.7444 31.8039 77.4225 31.5097 78.1381 31.4727C78.9027 31.4961 79.6305 31.8058 80.1776 32.3403C80.7248 32.8749 81.0512 33.5954 81.0923 34.3592C81.1334 35.123 80.8862 35.8744 80.3997 36.4646C79.9132 37.0548 79.2227 37.4408 78.4651 37.5462C77.7476 37.5848 77.0401 37.3635 76.4726 36.9227L76.6644 40.4456C77.1788 39.9455 77.8576 39.6495 78.5741 39.6128C79.3387 39.6362 80.0665 39.9459 80.6136 40.4804C81.1608 41.015 81.4872 41.7355 81.5283 42.4993C81.5694 43.2631 81.3222 44.0145 80.8357 44.6047C80.3492 45.195 79.6587 45.581 78.9011 45.6863C78.1835 45.7257 77.4758 45.5043 76.9086 45.0628L77.1004 48.5857C77.616 48.0872 78.294 47.7915 79.0101 47.753C79.7795 47.7697 80.5143 48.0764 81.0671 48.6118C81.6199 49.1473 81.9501 49.8718 81.9915 50.6403C82.0328 51.4088 81.7823 52.1645 81.2901 52.7562C80.7979 53.3478 80.1003 53.7316 79.3371 53.8308C78.6197 53.8683 77.9127 53.647 77.3446 53.2073L77.5321 56.7258C78.0494 56.2274 78.7288 55.9318 79.4461 55.8931C80.2155 55.9098 80.9503 56.2166 81.5031 56.752C82.0559 57.2874 82.3861 58.0119 82.4275 58.7804C82.4688 59.5489 82.2183 60.3046 81.7261 60.8963C81.2339 61.4879 80.5363 61.8717 79.7731 61.9709C79.0557 62.0084 78.3487 61.7871 77.7806 61.3474L77.8983 63.5274L171.638 58.5091L168.909 7.49707L75.1689 12.4936Z" fill="#F5F5F5"/>
<path d="M169.453 17.573C169.453 17.634 148.473 18.8069 122.588 20.189C96.7024 21.5711 75.709 22.6524 75.709 22.6001C75.709 22.5478 96.6849 21.3662 122.575 19.9841C148.464 18.602 169.449 17.512 169.453 17.573Z" fill="#E0E0E0"/>
<path d="M169.89 25.7349C169.89 25.7959 148.91 26.9731 123.024 28.3509C97.1389 29.7286 76.1499 30.8099 76.1455 30.7489C76.1411 30.6878 97.1215 29.5106 123.016 28.1329C148.91 26.7551 169.886 25.6738 169.89 25.7349Z" fill="#E0E0E0"/>
<path d="M170.325 33.8969C170.325 33.9623 149.345 35.1351 123.46 36.5129C97.5744 37.8906 76.5854 38.9719 76.5811 38.9109C76.5767 38.8498 97.557 37.6726 123.451 36.2949C149.345 34.9171 170.321 33.8358 170.325 33.8969Z" fill="#E0E0E0"/>
<path d="M170.762 42.0587C170.762 42.1241 149.782 43.297 123.901 44.6747C98.0197 46.0525 77.0219 47.1294 77.0176 47.0684C77.0132 47.0073 97.9935 45.8301 123.888 44.4524C149.782 43.0746 170.758 41.9977 170.762 42.0587Z" fill="#E0E0E0"/>
<path d="M171.197 50.225C171.197 50.286 150.217 51.4589 124.336 52.841C98.4552 54.2231 77.4575 55.3 77.4531 55.239C77.4488 55.1779 98.4334 54.0051 124.323 52.623C150.213 51.2409 171.197 50.1596 171.197 50.225Z" fill="#E0E0E0"/>
<path d="M88.3066 11.7929L88.0889 11.8046L90.8164 62.8266L91.0341 62.8149L88.3066 11.7929Z" fill="#EF5A20"/>
<path d="M99.4238 62.3632C99.3627 62.3632 98.7 50.9444 97.9457 36.8572C97.1915 22.7701 96.6377 11.3425 96.6944 11.3425C96.7511 11.3425 97.4182 22.7526 98.1725 36.8485C98.9267 50.9444 99.4892 62.3589 99.4238 62.3632Z" fill="#E0E0E0"/>
<path d="M82.7377 63.2527C82.6723 63.2527 82.0096 51.8382 81.2553 37.751C80.501 23.6639 79.9473 12.2363 80.004 12.2319C80.0607 12.2276 80.7321 23.6464 81.482 37.7379C82.2319 51.8295 82.7988 63.2527 82.7377 63.2527Z" fill="#E0E0E0"/>
<path d="M108.561 61.8706C108.5 61.8706 107.838 50.4561 107.083 36.3689C106.329 22.2818 105.775 10.8542 105.832 10.8499C105.889 10.8455 106.556 22.2643 107.31 36.3559C108.064 50.4474 108.627 61.8706 108.561 61.8706Z" fill="#E0E0E0"/>
<path d="M117.705 61.404C117.64 61.404 116.981 49.9895 116.227 35.9024C115.473 21.8152 114.919 10.3877 114.976 10.3833C115.032 10.3789 115.699 21.7978 116.454 35.8893C117.208 49.9808 117.766 61.404 117.705 61.404Z" fill="#E0E0E0"/>
<path d="M126.844 60.8939C126.783 60.8939 126.12 49.4794 125.366 35.3923C124.611 21.3051 124.058 9.87753 124.114 9.87317C124.171 9.86881 124.838 21.2877 125.592 35.3792C126.347 49.4707 126.905 60.8895 126.844 60.8939Z" fill="#E0E0E0"/>
<path d="M135.982 60.4056C135.921 60.4056 135.259 48.9911 134.504 34.904C133.75 20.8168 133.196 9.38925 133.253 9.38489C133.31 9.38053 133.977 20.7994 134.731 34.8909C135.485 48.9824 136.048 60.4012 135.982 60.4056Z" fill="#E0E0E0"/>
<path d="M145.125 59.9173C145.06 59.9173 144.397 48.4985 143.647 34.4113C142.897 20.3242 142.339 8.90097 142.396 8.89661C142.452 8.89225 143.119 20.3111 143.874 34.4026C144.628 48.4941 145.186 59.913 145.125 59.9173Z" fill="#E0E0E0"/>
<path d="M154.264 59.4289C154.203 59.4289 153.54 48.0101 152.786 33.9229C152.031 19.8358 151.478 8.4082 151.534 8.4082C151.591 8.4082 152.258 19.8183 153.012 33.9142C153.767 48.0101 154.325 59.4246 154.264 59.4289Z" fill="#E0E0E0"/>
<path d="M163.402 58.9362C163.341 58.9362 162.679 47.5218 161.924 33.4346C161.17 19.3474 160.616 7.91989 160.673 7.91553C160.73 7.91117 161.397 19.33 162.151 33.4215C162.905 47.513 163.468 58.9362 163.402 58.9362Z" fill="#E0E0E0"/>
<path d="M162.264 28.0413C162.207 28.0478 162.15 28.0478 162.094 28.0413L161.597 28.0762L159.678 28.1982L152.628 28.6037C146.672 28.9351 138.445 29.3711 129.354 29.8202C120.264 30.2692 112.032 30.6442 106.072 30.8709C103.09 30.9843 100.679 31.0584 99.0088 31.0889C97.3389 31.1194 96.3928 31.0889 96.4277 31.0279C96.6468 31.0626 96.8695 31.0699 97.0904 31.0497C97.5264 31.0497 98.1761 31.0279 99.0088 31.0017C100.674 30.945 103.085 30.8448 106.063 30.7096L129.346 29.5934L152.619 28.4468L159.674 28.111L161.592 28.0326H162.094C162.15 28.0306 162.207 28.0335 162.264 28.0413Z" fill="#263238"/>
<path d="M164.147 37.3631C164.147 37.4285 149.023 38.1697 130.362 39.0286C111.701 39.8875 96.5674 40.5284 96.5674 40.4761C96.5674 40.4238 111.692 39.6695 130.357 38.8149C149.023 37.9604 164.147 37.302 164.147 37.3631Z" fill="#263238"/>
<path d="M165.164 45.525C165.164 45.5904 150.039 46.3359 131.378 47.1905C112.717 48.0451 97.5796 48.6904 97.5752 48.625C97.5708 48.5596 112.7 47.8184 131.365 46.9638C150.03 46.1092 165.16 45.464 165.164 45.525Z" fill="#263238"/>
<path d="M85.668 17.8433C86.0778 19.8707 86.976 21.9286 88.6633 23.1014C89.3924 23.6051 90.2351 23.9201 91.1158 24.0182C91.9965 24.1163 92.8878 23.9944 93.7099 23.6635C94.5319 23.3326 95.2591 22.8029 95.8262 22.122C96.3934 21.4411 96.7828 20.6301 96.9596 19.7618C97.1364 18.8934 97.0951 17.9948 96.8393 17.1463C96.5836 16.2978 96.1214 15.526 95.4942 14.9C94.867 14.274 94.0943 13.8133 93.2453 13.5592C92.3964 13.3051 91.4977 13.2656 90.6297 13.444" fill="#E0E0E0"/>
<path d="M85.4361 17.8302C85.4821 18.6721 85.7767 19.4815 86.2827 20.156C86.7887 20.8306 87.4833 21.3399 88.2787 21.6198C89.0741 21.8996 89.9346 21.9373 90.7514 21.7282C91.5683 21.519 92.3048 21.0724 92.8678 20.4447C93.4309 19.8171 93.7952 19.0366 93.9148 18.2019C94.0343 17.3672 93.9037 16.5159 93.5395 15.7554C93.1753 14.9949 92.5938 14.3595 91.8685 13.9295C91.1432 13.4995 90.3067 13.2941 89.4647 13.3394C88.9052 13.3695 88.3571 13.5096 87.8518 13.7516C87.3465 13.9936 86.8938 14.3329 86.5197 14.7499C86.1456 15.167 85.8573 15.6537 85.6713 16.1822C85.4854 16.7108 85.4055 17.2708 85.4361 17.8302Z" fill="#F37F49"/>
<path d="M82.9862 16.2519C83.0136 16.7572 83.1903 17.2431 83.4937 17.648C83.7972 18.053 84.214 18.3589 84.6913 18.527C85.1686 18.6952 85.685 18.7181 86.1753 18.5928C86.6656 18.4675 87.1078 18.1997 87.4459 17.8232C87.784 17.4467 88.003 16.9784 88.075 16.4775C88.147 15.9766 88.069 15.4656 87.8506 15.009C87.6323 14.5525 87.2836 14.1709 86.8484 13.9125C86.4133 13.6542 85.9113 13.5306 85.406 13.5574C85.0701 13.5753 84.741 13.6591 84.4376 13.8043C84.1342 13.9494 83.8623 14.1529 83.6376 14.4031C83.4128 14.6533 83.2396 14.9454 83.1279 15.2627C83.0161 15.5799 82.968 15.9161 82.9862 16.2519Z" fill="#F37F49"/>
<path d="M85.3712 18.6194C85.694 18.6187 86.0157 18.5821 86.3304 18.5104C86.6999 18.4066 87.0398 18.2177 87.323 17.9587C87.6062 17.6997 87.8248 17.378 87.9611 17.0193C88.0801 16.654 88.1172 16.2669 88.0698 15.8856C88.0223 15.5043 87.8914 15.1381 87.6864 14.8131C87.4985 14.5476 87.2853 14.3008 87.0498 14.0763C87.0498 14.0763 87.1501 14.1025 87.294 14.1984C87.4981 14.3403 87.6753 14.5175 87.8172 14.7216C88.059 15.061 88.2174 15.4526 88.2796 15.8647C88.3417 16.2768 88.3058 16.6978 88.1747 17.0934C88.0168 17.5283 87.7386 17.9093 87.3725 18.1921C87.0777 18.4231 86.7351 18.5854 86.3697 18.6674C86.1266 18.7235 85.8753 18.7338 85.6285 18.6979C85.4584 18.6761 85.3669 18.6325 85.3712 18.6194Z" fill="#263238"/>
<path d="M87.5116 14.5471C87.9949 14.7094 88.5137 14.7349 89.0107 14.6211C89.5077 14.5072 89.9636 14.2583 90.3281 13.9019C90.3499 13.9019 90.2758 14.085 90.0665 14.2943C89.7895 14.5666 89.4423 14.7569 89.0636 14.8439C88.6849 14.9309 88.2896 14.9111 87.9214 14.7869C87.6424 14.691 87.4985 14.5733 87.5116 14.5471Z" fill="#263238"/>
<path d="M88.1702 21.0304C88.0947 20.8629 88.0335 20.6893 87.987 20.5116C87.8407 20.1071 87.6016 19.7426 87.2889 19.4473C86.9761 19.152 86.5985 18.9341 86.1864 18.8112C85.8724 18.7109 85.6588 18.6934 85.6632 18.6586C85.6675 18.6237 85.8812 18.5932 86.2256 18.6586C86.6826 18.7478 87.105 18.9647 87.4438 19.2842C87.7825 19.6036 88.0238 20.0126 88.1396 20.4636C88.2225 20.808 88.2007 21.026 88.1702 21.0304Z" fill="#263238"/>
<path d="M157.721 14.8349C158.135 16.8623 159.029 18.9158 160.716 20.0669C161.692 20.7375 162.862 21.0659 164.045 21.001C165.227 20.936 166.355 20.4812 167.251 19.7077C168.148 18.9342 168.763 17.8855 169 16.7255C169.238 15.5655 169.084 14.3594 168.564 13.2958C168.021 12.2493 167.156 11.4042 166.098 10.884C165.04 10.3639 163.843 10.1961 162.682 10.4051" fill="#E0E0E0"/>
<path d="M165.957 13.6794C166 14.4931 165.801 15.3012 165.384 16.0015C164.968 16.7019 164.353 17.263 163.618 17.6141C162.883 17.9652 162.06 18.0903 161.254 17.9738C160.447 17.8573 159.693 17.5043 159.088 16.9594C158.482 16.4145 158.051 15.7023 157.85 14.9127C157.649 14.1231 157.687 13.2917 157.958 12.5234C158.229 11.7552 158.723 11.0847 159.375 10.5966C160.027 10.1086 160.81 9.82497 161.624 9.7816C162.164 9.75278 162.705 9.83076 163.215 10.0111C163.726 10.1914 164.196 10.4705 164.598 10.8325C165.001 11.1945 165.328 11.6322 165.561 12.1207C165.794 12.6092 165.929 13.1389 165.957 13.6794Z" fill="#EF5A20"/>
<path d="M165.682 14.5166C167.047 14.5166 168.154 13.4098 168.154 12.0445C168.154 10.6792 167.047 9.57239 165.682 9.57239C164.317 9.57239 163.21 10.6792 163.21 12.0445C163.21 13.4098 164.317 14.5166 165.682 14.5166Z" fill="#EF5A20"/>
<path d="M166.106 14.4295C166.106 14.4295 166.027 14.4905 165.862 14.5341C165.628 14.5948 165.386 14.611 165.146 14.5821C164.787 14.5427 164.442 14.4235 164.135 14.2333C163.758 13.9963 163.456 13.6578 163.263 13.2566C163.096 12.8903 163.018 12.4898 163.034 12.0876C163.051 11.6854 163.162 11.2927 163.359 10.9415C163.501 10.6395 163.738 10.3928 164.035 10.2395C163.836 10.4828 163.658 10.7424 163.503 11.0156C163.34 11.3486 163.252 11.7135 163.246 12.0843C163.24 12.455 163.316 12.8225 163.468 13.1607C163.636 13.49 163.878 13.7757 164.175 13.9952C164.473 14.2146 164.817 14.3618 165.181 14.4251C165.488 14.4595 165.798 14.461 166.106 14.4295Z" fill="#263238"/>
<path d="M163.624 10.7409C163.624 10.7409 163.515 10.8935 163.258 11.0156C162.917 11.1742 162.538 11.2346 162.165 11.1899C161.791 11.1452 161.438 10.9973 161.144 10.7627C160.921 10.5839 160.834 10.427 160.856 10.4095C161.261 10.6801 161.716 10.8682 162.194 10.9633C162.681 10.9796 163.166 10.9042 163.624 10.7409Z" fill="#263238"/>
<path d="M163.659 17.0367C163.593 16.8623 163.583 16.6722 163.628 16.4917C163.694 16.0454 163.885 15.6268 164.178 15.284C164.468 14.9407 164.851 14.688 165.281 14.5558C165.612 14.4556 165.826 14.473 165.826 14.4992C165.826 14.5253 165.63 14.5776 165.337 14.7041C164.956 14.867 164.618 15.1159 164.348 15.4312C164.079 15.7466 163.886 16.12 163.785 16.5222C163.711 16.8318 163.711 17.0367 163.659 17.0367Z" fill="#263238"/>
<path d="M12.1229 5.95789L2.66602 53.3249C7.05654 57.7154 11.7087 61.8618 19.1817 63.3878L55.1168 69.4351L63.1436 13.7797L12.1229 5.95789Z" fill="#E0E0E0"/>
<path d="M10.0564 3.0542L0.599609 50.4212L17.1153 60.4841L53.0504 66.5314L63.2615 13.0866L10.0564 3.0542Z" fill="#F7A97A"/>
<path d="M7.27041 47.8488L0.599609 50.4212C0.599609 50.4212 3.04557 54.3452 6.58153 56.4467C9.80528 58.4477 13.38 59.8178 17.1153 60.484C17.1153 60.484 9.24985 56.6429 7.27041 47.8488Z" fill="#EF5A20"/>
<g opacity="0.3">
<path d="M7.27041 47.8488C4.69801 49.5928 1.87273 51.7728 0.599609 50.4212C0.599609 50.4212 3.04557 54.3452 6.58153 56.4467C9.80528 58.4477 13.38 59.8178 17.1153 60.484C17.1153 60.484 9.24985 56.6429 7.27041 47.8488Z" fill="black"/>
</g>
<path d="M4.67598 13.2479L29.1487 5.46089L27.5442 0.307373L2.66602 7.73681L4.67598 13.2479Z" fill="#E0E0E0"/>
<path d="M67.6001 25.8178L51.5553 5.76611L47.3174 9.11023L63.1747 29.672L67.6001 25.8178Z" fill="#E0E0E0"/>
<path d="M54.1445 28.8654C54.1445 28.9264 45.067 27.274 33.8966 25.1725C22.7263 23.0709 13.6793 21.3182 13.6924 21.2485C13.7055 21.1787 22.7656 22.8399 33.9402 24.9414C45.1149 27.0429 54.1576 28.8043 54.1445 28.8654Z" fill="#263238"/>
<path d="M52.5971 36.1161C52.5971 36.1772 43.5196 34.5247 32.3492 32.4232C21.1789 30.3217 12.1319 28.5689 12.1406 28.4992C12.1494 28.4294 21.2182 30.0906 32.3885 32.1921C43.5588 34.2936 52.6058 36.0682 52.5971 36.1161Z" fill="#263238"/>
<path d="M51.6025 42.656C51.6025 42.7171 42.525 41.0646 31.359 38.9631C20.193 36.8616 11.1373 35.1089 11.1504 35.0391C11.1635 34.9693 20.2279 36.6305 31.3982 38.732C42.5686 40.8335 51.6156 42.5775 51.6025 42.656Z" fill="#263238"/>
<path d="M50.3906 48.856C50.3906 48.917 41.3131 47.2646 30.1427 45.1631C18.9724 43.0615 9.92541 41.3088 9.93849 41.2391C9.95157 41.1693 19.0117 42.8305 30.1863 44.932C41.361 47.0335 50.4037 48.7949 50.3906 48.856Z" fill="#263238"/>
<path d="M88.4795 99.4624L165.124 109.233L164.095 81.1809L88.4795 99.4624Z" fill="#E0E0E0"/>
<path d="M164.048 81.7425L90.4717 75.6029L88.4341 100.021L162.011 106.161L164.048 81.7425Z" fill="#F37F49"/>
<path d="M153.683 89.0683C153.683 89.1293 141.349 88.1527 126.145 86.8883C110.942 85.6239 98.6206 84.5426 98.625 84.4772C98.6294 84.4118 110.959 85.3928 126.167 86.6572C141.375 87.9216 153.705 89.0073 153.683 89.0683Z" fill="#263238"/>
<path d="M153.557 95.4426C153.557 95.5036 141.223 94.527 126.019 93.2626C110.816 91.9982 98.4903 90.9169 98.499 90.8515C98.5077 90.7861 110.829 91.7671 126.037 93.0315C141.244 94.2959 153.561 95.3815 153.557 95.4426Z" fill="#263238"/>
<path d="M112.281 73.9216L140.791 76.3022L139.287 77.5753L141.24 79.2757L138.917 80.3395L140.996 82.1882L111.117 79.6943L112.983 78.1203L112.055 76.4286L113.659 75.6133L112.281 73.9216Z" fill="#EBEBEB"/>
<path d="M77.1434 81.4905C77.4411 81.993 77.6005 82.5653 77.6054 83.1493C77.6104 83.7333 77.4606 84.3083 77.1715 84.8157C76.8823 85.3231 76.464 85.745 75.959 86.0385C75.454 86.3319 74.8803 86.4865 74.2963 86.4865C73.7122 86.4865 73.1386 86.3319 72.6336 86.0385C72.1286 85.745 71.7103 85.3231 71.4211 84.8157C71.132 84.3083 70.9822 83.7333 70.9872 83.1493C70.9921 82.5653 71.1515 81.993 71.4492 81.4905H67.6124C67.9101 81.993 68.0695 82.5653 68.0745 83.1493C68.0794 83.7333 67.9297 84.3083 67.6405 84.8157C67.3513 85.3231 66.933 85.745 66.428 86.0385C65.923 86.3319 65.3494 86.4865 64.7653 86.4865C64.1813 86.4865 63.6076 86.3319 63.1027 86.0385C62.5977 85.745 62.1794 85.3231 61.8902 84.8157C61.601 84.3083 61.4513 83.7333 61.4562 83.1493C61.4611 82.5653 61.6206 81.993 61.9183 81.4905H58.0815C58.3792 81.993 58.5386 82.5653 58.5435 83.1493C58.5484 83.7333 58.3987 84.3083 58.1095 84.8157C57.8204 85.3231 57.402 85.745 56.8971 86.0385C56.3921 86.3319 55.8184 86.4865 55.2344 86.4865C54.6503 86.4865 54.0767 86.3319 53.5717 86.0385C53.0667 85.745 52.6484 85.3231 52.3592 84.8157C52.07 84.3083 51.9203 83.7333 51.9253 83.1493C51.9302 82.5653 52.0896 81.993 52.3873 81.4905H48.5505C48.8482 81.993 49.0076 82.5653 49.0125 83.1493C49.0175 83.7333 48.8677 84.3083 48.5786 84.8157C48.2894 85.3231 47.8711 85.745 47.3661 86.0385C46.8611 86.3319 46.2875 86.4865 45.7034 86.4865C45.1194 86.4865 44.5457 86.3319 44.0407 86.0385C43.5358 85.745 43.1174 85.3231 42.8283 84.8157C42.5391 84.3083 42.3894 83.7333 42.3943 83.1493C42.3992 82.5653 42.5586 81.993 42.8563 81.4905H39.0152C39.3129 81.993 39.4723 82.5653 39.4772 83.1493C39.4821 83.7333 39.3324 84.3083 39.0433 84.8157C38.7541 85.3231 38.3358 85.745 37.8308 86.0385C37.3258 86.3319 36.7521 86.4865 36.1681 86.4865C35.584 86.4865 35.0104 86.3319 34.5054 86.0385C34.0004 85.745 33.5821 85.3231 33.2929 84.8157C33.0038 84.3083 32.854 83.7333 32.859 83.1493C32.8639 82.5653 33.0233 81.993 33.321 81.4905H29.4842C29.7819 81.993 29.9413 82.5653 29.9463 83.1493C29.9512 83.7333 29.8015 84.3083 29.5123 84.8157C29.2231 85.3231 28.8048 85.745 28.2998 86.0385C27.7948 86.3319 27.2212 86.4865 26.6371 86.4865C26.0531 86.4865 25.4794 86.3319 24.9745 86.0385C24.4695 85.745 24.0512 85.3231 23.762 84.8157C23.4728 84.3083 23.3231 83.7333 23.328 83.1493C23.3329 82.5653 23.4924 81.993 23.7901 81.4905H21.3877V149.942L81.2636 153.221L78.4078 81.4948L77.1434 81.4905Z" fill="#E0E0E0"/>
<mask id="mask0_585_11206" style="mask-type:luminance" maskUnits="userSpaceOnUse" x="20" y="79" width="58" height="70">
<path d="M76.2713 79.6201C76.5758 80.1227 76.7412 80.6972 76.7505 81.2847C76.7598 81.8722 76.6127 82.4516 76.3243 82.9636C76.0359 83.4755 75.6166 83.9016 75.1092 84.1981C74.6019 84.4946 74.0249 84.6508 73.4373 84.6508C72.8497 84.6508 72.2727 84.4946 71.7654 84.1981C71.258 83.9016 70.8387 83.4755 70.5503 82.9636C70.2619 82.4516 70.1148 81.8722 70.1241 81.2847C70.1334 80.6972 70.2988 80.1227 70.6033 79.6201H66.7621C67.0218 80.0583 67.1767 80.5505 67.215 81.0584C67.2532 81.5663 67.1737 82.0762 66.9826 82.5483C66.7916 83.0204 66.4941 83.4421 66.1134 83.7804C65.7327 84.1188 65.279 84.3647 64.7877 84.499C64.2964 84.6333 63.7807 84.6524 63.2808 84.5548C62.7809 84.4572 62.3103 84.2455 61.9057 83.9362C61.501 83.6269 61.1731 83.2284 60.9477 82.7717C60.7222 82.315 60.6052 81.8124 60.6058 81.3031C60.605 80.7101 60.7663 80.1281 61.0723 79.6201H57.2312C57.4908 80.0583 57.6458 80.5505 57.684 81.0584C57.7222 81.5663 57.6427 82.0762 57.4517 82.5483C57.2606 83.0204 56.9631 83.4421 56.5824 83.7804C56.2017 84.1188 55.748 84.3647 55.2567 84.499C54.7654 84.6333 54.2498 84.6524 53.7499 84.5548C53.25 84.4572 52.7794 84.2455 52.3747 83.9362C51.97 83.6269 51.6422 83.2284 51.4167 82.7717C51.1913 82.315 51.0743 81.8124 51.0749 81.3031C51.074 80.7101 51.2354 80.1281 51.5414 79.6201H47.7002C47.9979 80.1226 48.1573 80.6949 48.1623 81.279C48.1672 81.863 48.0175 82.4379 47.7283 82.9454C47.4391 83.4528 47.0208 83.8747 46.5158 84.1681C46.0108 84.4616 45.4372 84.6161 44.8531 84.6161C44.2691 84.6161 43.6954 84.4616 43.1905 84.1681C42.6855 83.8747 42.2672 83.4528 41.978 82.9454C41.6888 82.4379 41.5391 81.863 41.544 81.279C41.549 80.6949 41.7084 80.1226 42.0061 79.6201H38.1431C38.4408 80.1226 38.6002 80.6949 38.6051 81.279C38.6101 81.863 38.4604 82.4379 38.1712 82.9454C37.882 83.4528 37.4637 83.8747 36.9587 84.1681C36.4537 84.4616 35.8801 84.6161 35.296 84.6161C34.712 84.6161 34.1383 84.4616 33.6334 84.1681C33.1284 83.8747 32.71 83.4528 32.4209 82.9454C32.1317 82.4379 31.982 81.863 31.9869 81.279C31.9918 80.6949 32.1512 80.1226 32.4489 79.6201H28.6121C28.9098 80.1226 29.0693 80.6949 29.0742 81.279C29.0791 81.863 28.9294 82.4379 28.6402 82.9454C28.351 83.4528 27.9327 83.8747 27.4277 84.1681C26.9228 84.4616 26.3491 84.6161 25.7651 84.6161C25.181 84.6161 24.6074 84.4616 24.1024 84.1681C23.5974 83.8747 23.1791 83.4528 22.8899 82.9454C22.6007 82.4379 22.451 81.863 22.4559 81.279C22.4609 80.6949 22.6203 80.1226 22.918 79.6201H20.5156V148.072H77.5401V79.6201H76.2713Z" fill="white"/>
</mask>
<g mask="url(#mask0_585_11206)">
<path d="M76.2713 79.6201C76.5758 80.1227 76.7412 80.6972 76.7505 81.2847C76.7598 81.8722 76.6127 82.4516 76.3243 82.9636C76.0359 83.4755 75.6166 83.9016 75.1092 84.1981C74.6019 84.4946 74.0249 84.6508 73.4373 84.6508C72.8497 84.6508 72.2727 84.4946 71.7654 84.1981C71.258 83.9016 70.8387 83.4755 70.5503 82.9636C70.2619 82.4516 70.1148 81.8722 70.1241 81.2847C70.1334 80.6972 70.2988 80.1227 70.6033 79.6201H66.7621C67.0218 80.0583 67.1767 80.5505 67.215 81.0584C67.2532 81.5663 67.1737 82.0762 66.9826 82.5483C66.7916 83.0204 66.4941 83.4421 66.1134 83.7804C65.7327 84.1188 65.279 84.3647 64.7877 84.499C64.2964 84.6333 63.7807 84.6524 63.2808 84.5548C62.7809 84.4572 62.3103 84.2455 61.9057 83.9362C61.501 83.6269 61.1731 83.2284 60.9477 82.7717C60.7222 82.315 60.6052 81.8124 60.6058 81.3031C60.605 80.7101 60.7663 80.1281 61.0723 79.6201H57.2312C57.4908 80.0583 57.6458 80.5505 57.684 81.0584C57.7222 81.5663 57.6427 82.0762 57.4517 82.5483C57.2606 83.0204 56.9631 83.4421 56.5824 83.7804C56.2017 84.1188 55.748 84.3647 55.2567 84.499C54.7654 84.6333 54.2498 84.6524 53.7499 84.5548C53.25 84.4572 52.7794 84.2455 52.3747 83.9362C51.97 83.6269 51.6422 83.2284 51.4167 82.7717C51.1913 82.315 51.0743 81.8124 51.0749 81.3031C51.074 80.7101 51.2354 80.1281 51.5414 79.6201H47.7002C47.9979 80.1226 48.1573 80.6949 48.1623 81.279C48.1672 81.863 48.0175 82.4379 47.7283 82.9454C47.4391 83.4528 47.0208 83.8747 46.5158 84.1681C46.0108 84.4616 45.4372 84.6161 44.8531 84.6161C44.2691 84.6161 43.6954 84.4616 43.1905 84.1681C42.6855 83.8747 42.2672 83.4528 41.978 82.9454C41.6888 82.4379 41.5391 81.863 41.544 81.279C41.549 80.6949 41.7084 80.1226 42.0061 79.6201H38.1431C38.4408 80.1226 38.6002 80.6949 38.6051 81.279C38.6101 81.863 38.4604 82.4379 38.1712 82.9454C37.882 83.4528 37.4637 83.8747 36.9587 84.1681C36.4537 84.4616 35.8801 84.6161 35.296 84.6161C34.712 84.6161 34.1383 84.4616 33.6334 84.1681C33.1284 83.8747 32.71 83.4528 32.4209 82.9454C32.1317 82.4379 31.982 81.863 31.9869 81.279C31.9918 80.6949 32.1512 80.1226 32.4489 79.6201H28.6121C28.9098 80.1226 29.0693 80.6949 29.0742 81.279C29.0791 81.863 28.9294 82.4379 28.6402 82.9454C28.351 83.4528 27.9327 83.8747 27.4277 84.1681C26.9228 84.4616 26.3491 84.6161 25.7651 84.6161C25.181 84.6161 24.6074 84.4616 24.1024 84.1681C23.5974 83.8747 23.1791 83.4528 22.8899 82.9454C22.6007 82.4379 22.451 81.863 22.4559 81.279C22.4609 80.6949 22.6203 80.1226 22.918 79.6201H20.5156V148.072H77.5401V79.6201H76.2713Z" fill="#F5F5F5"/>
<path d="M26.1929 151.124C26.1318 151.124 25.9138 134.556 25.7045 114.064C25.4953 93.572 25.3732 77.004 25.4386 77.004C25.504 77.004 25.722 93.572 25.9313 114.064C26.1405 134.556 26.2583 151.124 26.1929 151.124Z" fill="#E0E0E0"/>
<path d="M30.7318 151.124C30.6707 151.124 30.4484 134.556 30.2391 114.064C30.0298 93.572 29.9121 77.004 29.9731 77.004C30.0342 77.004 30.2565 93.572 30.4658 114.064C30.6751 134.556 30.8015 151.124 30.7318 151.124Z" fill="#E0E0E0"/>
<path d="M39.9878 151.124C39.9267 151.124 39.7087 134.556 39.4995 114.064C39.2902 93.572 39.1681 77.004 39.2335 77.004C39.2989 77.004 39.5169 93.572 39.7262 114.064C39.9355 134.556 40.0532 151.124 39.9878 151.124Z" fill="#E0E0E0"/>
<path d="M49.2396 151.124C49.1785 151.124 48.9562 134.556 48.7469 114.064C48.5376 93.572 48.4199 77.004 48.4809 77.004C48.542 77.004 48.7643 93.572 48.9736 114.064C49.1829 134.556 49.3006 151.124 49.2396 151.124Z" fill="#E0E0E0"/>
<path d="M58.4872 151.124C58.4262 151.124 58.2038 134.556 57.9945 114.064C57.7852 93.572 57.6675 77.004 57.7329 77.004C57.7983 77.004 58.0163 93.572 58.2256 114.064C58.4349 134.556 58.5526 151.124 58.4872 151.124Z" fill="#E0E0E0"/>
<path d="M67.2636 151.124C67.2025 151.124 66.9802 134.556 66.7709 114.064C66.5616 93.5721 66.4439 77.0042 66.5093 77.0042C66.5747 77.0042 66.7883 93.5721 66.9976 114.064C67.2069 134.556 67.329 151.124 67.2636 151.124Z" fill="#E0E0E0"/>
<path d="M76.0409 151.124C75.9799 151.124 75.7575 134.556 75.5482 114.064C75.3389 93.572 75.2212 77.004 75.2866 77.004C75.352 77.004 75.57 93.572 75.7793 114.064C75.9886 134.556 76.1063 151.124 76.0409 151.124Z" fill="#E0E0E0"/>
<path d="M35.349 151.032C35.2836 151.032 35.0656 134.443 34.8563 113.972C34.647 93.5023 34.5293 76.9125 34.5903 76.9125C34.6514 76.9125 34.8737 93.4805 35.083 113.972C35.2923 134.464 35.41 151.032 35.349 151.032Z" fill="#E0E0E0"/>
<path d="M44.5003 150.937C44.4349 150.937 44.2169 134.369 44.0076 113.877C43.7984 93.3846 43.6806 76.8167 43.7417 76.8167C43.8027 76.8167 44.0251 93.3846 44.2344 113.877C44.4436 134.369 44.5614 150.937 44.5003 150.937Z" fill="#E0E0E0"/>
<path d="M53.6517 150.845C53.5907 150.845 53.3683 134.255 53.159 113.785C52.9497 93.3149 52.832 76.7251 52.893 76.7251C52.9541 76.7251 53.1765 93.2931 53.3857 113.785C53.595 134.277 53.7127 150.845 53.6517 150.845Z" fill="#E0E0E0"/>
<path d="M62.804 150.749C62.743 150.749 62.5206 134.181 62.3113 113.689C62.1021 93.1972 61.9844 76.6292 62.0454 76.6292C62.1064 76.6292 62.3288 93.1972 62.5381 113.689C62.7473 134.181 62.8694 150.749 62.804 150.749Z" fill="#E0E0E0"/>
<path d="M71.58 151.22C71.5146 151.22 71.2966 134.63 71.0874 114.16C70.8781 93.6899 70.756 77.1001 70.8214 77.1001C70.8868 77.1001 71.1048 93.6681 71.3141 114.16C71.5234 134.652 71.6411 151.22 71.58 151.22Z" fill="#E0E0E0"/>
<path d="M90.9305 141.881C90.9305 141.942 74.3625 142.16 53.8705 142.365C33.3785 142.57 16.8105 142.683 16.8105 142.622C16.8105 142.561 33.3785 142.343 53.8705 142.138C74.3625 141.933 90.9305 141.815 90.9305 141.881Z" fill="#E0E0E0"/>
<path d="M91.3358 146.559C91.3358 146.625 74.7678 146.838 54.2758 147.043C33.7838 147.248 17.2158 147.361 17.2158 147.3C17.2158 147.239 33.7838 147.021 54.2758 146.816C74.7678 146.612 91.3358 146.498 91.3358 146.559Z" fill="#E0E0E0"/>
<path d="M90.8387 132.729C90.8387 132.79 74.2489 133.008 53.7787 133.213C33.3085 133.418 16.7188 133.531 16.7188 133.466C16.7188 133.401 33.2867 133.187 53.7787 132.982C74.2707 132.777 90.8387 132.664 90.8387 132.729Z" fill="#E0E0E0"/>
<path d="M90.7469 123.573C90.7469 123.639 74.1789 123.852 53.6869 124.057C33.1949 124.262 16.627 124.38 16.627 124.314C16.627 124.249 33.1949 124.035 53.6869 123.83C74.1789 123.626 90.7469 123.512 90.7469 123.573Z" fill="#E0E0E0"/>
<path d="M90.6552 114.422C90.6552 114.487 74.0653 114.701 53.5952 114.905C33.125 115.11 16.5352 115.224 16.5352 115.163C16.5352 115.102 33.1032 114.884 53.5952 114.679C74.0872 114.474 90.6552 114.36 90.6552 114.422Z" fill="#E0E0E0"/>
<path d="M90.5643 105.27C90.5643 105.331 73.9745 105.549 53.5043 105.754C33.0341 105.959 16.4443 106.072 16.4443 106.011C16.4443 105.95 33.0123 105.732 53.5043 105.527C73.9963 105.322 90.5643 105.209 90.5643 105.27Z" fill="#E0E0E0"/>
<path d="M90.4637 96.1183C90.4637 96.1794 73.8957 96.3974 53.4037 96.6023C32.9117 96.8072 16.3438 96.9206 16.3438 96.8595C16.3438 96.7985 32.9117 96.5805 53.4037 96.3756C73.8957 96.1706 90.4637 96.0529 90.4637 96.1183Z" fill="#E0E0E0"/>
<path d="M90.3807 86.9667C90.3807 87.0278 73.8127 87.2458 53.3207 87.4507C32.8287 87.6556 16.2607 87.769 16.2607 87.7036C16.2607 87.6382 32.8287 87.4245 53.3207 87.224C73.8127 87.0234 90.3807 86.9013 90.3807 86.9667Z" fill="#E0E0E0"/>
<path d="M90.3807 83.3C90.3807 83.361 73.8127 83.579 53.3207 83.7839C32.8287 83.9888 16.2607 84.1022 16.2607 84.0412C16.2607 83.9801 32.8287 83.7621 53.3207 83.5572C73.8127 83.3523 90.3807 83.2346 90.3807 83.3Z" fill="#E0E0E0"/>
<path d="M90.3807 91.6406C90.3807 91.706 73.8127 91.9197 53.3207 92.1246C32.8287 92.3295 16.2607 92.4429 16.2607 92.3818C16.2607 92.3208 32.8287 92.1028 53.3207 91.8979C73.8127 91.693 90.3807 91.5796 90.3807 91.6406Z" fill="#E0E0E0"/>
<path d="M90.3807 100.722C90.3807 100.784 73.8127 101.002 53.3207 101.206C32.8287 101.411 16.2607 101.525 16.2607 101.459C16.2607 101.394 32.8287 101.18 53.3207 100.98C73.8127 100.779 90.3807 100.644 90.3807 100.722Z" fill="#E0E0E0"/>
<path d="M90.3807 109.8C90.3807 109.861 73.8127 110.079 53.3207 110.284C32.8287 110.489 16.2607 110.602 16.2607 110.541C16.2607 110.48 32.8287 110.262 53.3207 110.057C73.8127 109.852 90.3807 109.739 90.3807 109.8Z" fill="#E0E0E0"/>
<path d="M90.3807 118.882C90.3807 118.943 73.8127 119.161 53.3207 119.362C32.8287 119.562 16.2607 119.684 16.2607 119.619C16.2607 119.553 32.8287 119.34 53.3207 119.135C73.8127 118.93 90.3807 118.817 90.3807 118.882Z" fill="#E0E0E0"/>
<path d="M90.3807 127.959C90.3807 128.02 73.8127 128.238 53.3207 128.443C32.8287 128.648 16.2607 128.762 16.2607 128.701C16.2607 128.64 32.8287 128.422 53.3207 128.217C73.8127 128.012 90.3807 127.898 90.3807 127.959Z" fill="#E0E0E0"/>
<path d="M90.3807 137.037C90.3807 137.102 73.8127 137.316 53.3207 137.521C32.8287 137.726 16.2607 137.843 16.2607 137.778C16.2607 137.713 32.8287 137.499 53.3207 137.294C73.8127 137.089 90.3807 136.976 90.3807 137.037Z" fill="#E0E0E0"/>
</g>
<path d="M45.1191 89.5347C45.529 91.5577 46.4271 93.6157 48.1145 94.7667C48.8436 95.2694 49.6859 95.5836 50.5661 95.6811C51.4464 95.7786 52.337 95.6565 53.1585 95.3255C53.98 94.9946 54.7066 94.4652 55.2734 93.7848C55.8402 93.1043 56.2295 92.2939 56.4065 91.4262C56.5835 90.5584 56.5427 89.6603 56.2876 88.8122C56.0326 87.9641 55.5714 87.1925 54.9451 86.5662C54.3189 85.94 53.5472 85.4788 52.6991 85.2238C51.851 84.9688 50.9529 84.9279 50.0852 85.1049" fill="#E0E0E0"/>
<path d="M45.011 89.5173C45.0561 90.3593 45.3499 91.169 45.8552 91.8441C46.3604 92.5191 47.0545 93.0293 47.8496 93.3099C48.6448 93.5906 49.5053 93.6292 50.3223 93.4209C51.1394 93.2126 51.8764 92.7667 52.4401 92.1396C53.0038 91.5125 53.369 90.7324 53.4894 89.8978C53.6098 89.0632 53.48 88.2117 53.1165 87.4509C52.753 86.69 52.1721 86.054 51.4472 85.6233C50.7224 85.1925 49.886 84.9864 49.044 85.0308C48.4845 85.0604 47.9364 85.1999 47.4308 85.4414C46.9253 85.6829 46.4724 86.0217 46.0978 86.4383C45.7233 86.855 45.4345 87.3414 45.248 87.8697C45.0615 88.398 44.981 88.9578 45.011 89.5173Z" fill="#EF5A20"/>
<path d="M42.5602 87.939C42.5868 88.4445 42.7627 88.9308 43.0657 89.3364C43.3687 89.742 43.7852 90.0485 44.2625 90.2174C44.7397 90.3862 45.2564 90.4097 45.747 90.2849C46.2376 90.1601 46.6802 89.8925 47.0188 89.5161C47.3573 89.1398 47.5766 88.6714 47.649 88.1704C47.7214 87.6693 47.6435 87.1581 47.4253 86.7013C47.207 86.2445 46.8582 85.8626 46.4229 85.6041C45.9877 85.3456 45.4855 85.222 44.98 85.2489C44.3024 85.2849 43.6669 85.5885 43.2132 86.093C42.7594 86.5974 42.5245 87.2614 42.5602 87.939Z" fill="#EF5A20"/>
<path d="M44.9455 90.3065C45.2682 90.3058 45.5899 90.2693 45.9047 90.1975C46.2741 90.0938 46.6141 89.9048 46.8972 89.6458C47.1804 89.3869 47.399 89.0651 47.5353 88.7064C47.6537 88.3408 47.6901 87.9535 47.6419 87.5722C47.5936 87.1909 47.462 86.8249 47.2563 86.5003C47.069 86.2355 46.8573 85.9888 46.6241 85.7634C46.7137 85.7849 46.7973 85.8266 46.8682 85.8855C47.0723 86.0292 47.2495 86.2078 47.3914 86.4131C47.6336 86.7523 47.7922 87.144 47.8543 87.5562C47.9164 87.9683 47.8803 88.3893 47.7489 88.7849C47.5887 89.2185 47.3109 89.599 46.9467 89.8836C46.6507 90.1117 46.3084 90.2724 45.9439 90.3545C45.7009 90.4106 45.4495 90.4209 45.2027 90.385C45.0327 90.3589 44.9411 90.3196 44.9455 90.3065Z" fill="#263238"/>
<path d="M47.0858 86.2561C47.5757 86.381 48.0858 86.4062 48.5856 86.3302C49.0646 86.1785 49.509 85.9341 49.8936 85.6108C49.9154 85.6108 49.8369 85.7983 49.632 86.0076C49.3539 86.2776 49.007 86.4661 48.6292 86.5526C48.2507 86.6418 47.8547 86.6221 47.4869 86.4959C47.2166 86.3782 47.0727 86.2561 47.0858 86.2561Z" fill="#263238"/>
<path d="M47.7356 92.7175C47.7007 92.7175 47.6702 92.5126 47.5525 92.2031C47.4008 91.8016 47.1626 91.4384 46.8549 91.1392C46.5401 90.8462 46.1629 90.6285 45.7518 90.5027C45.4379 90.4024 45.2242 90.3806 45.2286 90.3457C45.2329 90.3108 45.4422 90.2803 45.791 90.3457C46.2472 90.4368 46.6686 90.6544 47.007 90.9736C47.3455 91.2928 47.5873 91.7007 47.7051 92.1507C47.7966 92.4952 47.7748 92.7175 47.7356 92.7175Z" fill="#263238"/>
<path d="M71.1483 104.071C71.1483 104.137 62.049 104.184 50.8307 104.184C39.6125 104.184 30.5088 104.137 30.5088 104.071C30.5088 104.006 39.6037 103.958 50.8307 103.958C62.0577 103.958 71.1483 104.01 71.1483 104.071Z" fill="#263238"/>
<path d="M71.1483 108.296C71.1483 108.357 62.049 108.409 50.8307 108.409C39.6125 108.409 30.5088 108.357 30.5088 108.296C30.5088 108.235 39.6037 108.183 50.8307 108.183C62.0577 108.183 71.1483 108.235 71.1483 108.296Z" fill="#263238"/>
<path d="M71.1483 112.521C71.1483 112.582 62.049 112.634 50.8307 112.634C39.6125 112.634 30.5088 112.582 30.5088 112.521C30.5088 112.46 39.6037 112.407 50.8307 112.407C62.0577 112.407 71.1483 112.46 71.1483 112.521Z" fill="#263238"/>
<path d="M71.1483 116.745C71.1483 116.806 62.049 116.859 50.8307 116.859C39.6125 116.859 30.5088 116.806 30.5088 116.745C30.5088 116.684 39.6037 116.632 50.8307 116.632C62.0577 116.632 71.1483 116.684 71.1483 116.745Z" fill="#263238"/>
<path d="M71.1483 120.97C71.1483 121.031 62.049 121.084 50.8307 121.084C39.6125 121.084 30.5088 121.031 30.5088 120.97C30.5088 120.909 39.6037 120.857 50.8307 120.857C62.0577 120.857 71.1483 120.909 71.1483 120.97Z" fill="#263238"/>
<path d="M71.1483 125.195C71.1483 125.256 62.049 125.309 50.8307 125.309C39.6125 125.309 30.5088 125.256 30.5088 125.195C30.5088 125.134 39.6037 125.082 50.8307 125.082C62.0577 125.082 71.1483 125.13 71.1483 125.195Z" fill="#263238"/>
<path d="M71.1483 129.42C71.1483 129.481 62.049 129.533 50.8307 129.533C39.6125 129.533 30.5088 129.481 30.5088 129.42C30.5088 129.359 39.6037 129.307 50.8307 129.307C62.0577 129.307 71.1483 129.355 71.1483 129.42Z" fill="#263238"/>
</svg>
