<svg width="20" height="20" viewBox="0 0 20 20" fill="none" xmlns="http://www.w3.org/2000/svg">
<path fill-rule="evenodd" clip-rule="evenodd" d="M17.8841 17.8234L14.9291 14.7698L14.8621 14.6598C14.7314 14.5207 14.5569 14.4462 14.3721 14.4462C14.1908 14.4462 14.0129 14.5207 13.8856 14.6598C11.3741 17.0952 7.50626 17.2271 4.84345 14.968C2.18065 12.7062 1.55319 8.75706 3.37624 5.73615C5.19929 2.71615 8.90642 1.56342 12.0385 3.0407C15.1715 4.51797 16.759 8.16706 15.7457 11.5698C15.6752 11.8189 15.7319 12.0852 15.9029 12.2734C16.0714 12.4616 16.3267 12.5398 16.5682 12.4825C16.8097 12.4262 17.0049 12.2371 17.0788 11.9925C18.2873 7.95524 16.4608 3.60888 12.7812 1.76433C9.10067 -0.0774842 4.66897 1.13706 2.35599 4.62343C0.0421516 8.1107 0.538956 12.8198 3.52752 15.7107C6.51179 18.598 11.0922 18.7962 14.3017 16.1762L16.9172 18.8816C17.1862 19.1625 17.622 19.1625 17.8945 18.8816C18.1626 18.6007 18.1626 18.1462 17.8945 17.8625L17.8841 17.8234Z" fill="#EF5A20"/>
</svg>
