<svg width="24" height="24" viewBox="0 0 24 24" fill="none" xmlns="http://www.w3.org/2000/svg">
<path d="M6 13.5H9V15H6V13.5ZM10.5 13.5H13.5V15H10.5V13.5ZM6 10.5H9V12H6V10.5ZM10.5 16.5H13.5V18H10.5V16.5ZM15 10.5H18V12H15V10.5ZM15 16.5H18V18H15V16.5Z" fill="#5A9DB6"/>
<path d="M20.25 2.25H3.75C3.35236 2.2506 2.97117 2.40882 2.69 2.69C2.40882 2.97117 2.2506 3.35236 2.25 3.75V20.25C2.2506 20.6476 2.40882 21.0288 2.69 21.31C2.97117 21.5912 3.35236 21.7494 3.75 21.75H20.25C20.6476 21.7494 21.0288 21.5912 21.31 21.31C21.5912 21.0288 21.7494 20.6476 21.75 20.25V3.75C21.7494 3.35236 21.5912 2.97117 21.31 2.69C21.0288 2.40882 20.6476 2.2506 20.25 2.25ZM20.25 3.75V6.75H3.75V3.75H20.25ZM3.75 20.25V8.25H20.25V20.25H3.75Z" fill="#5A9DB6"/>
</svg>
