<svg width="24" height="24" viewBox="0 0 24 24" fill="none" xmlns="http://www.w3.org/2000/svg">
<g clip-path="url(#clip0_583_9345)">
<path fill-rule="evenodd" clip-rule="evenodd" d="M7.9768 0C7.86318 5.6365e-05 7.75075 0.0231624 7.64632 0.06792C7.63141 0.0742137 7.61668 0.0809365 7.60216 0.08808C7.58389 0.0972638 7.56596 0.10711 7.5484 0.1176L7.54552 0.11904C7.5275 0.129815 7.50988 0.141263 7.49272 0.15336L7.49128 0.1548C7.47451 0.166678 7.45818 0.179167 7.44232 0.19224C7.43666 0.196807 7.43106 0.201447 7.42552 0.20616L7.4236 0.20808C7.39908 0.229669 7.37584 0.252668 7.354 0.27696L7.34824 0.28272C7.32234 0.312142 7.29852 0.343338 7.27696 0.37608L7.27504 0.37848C7.26183 0.398659 7.2495 0.419398 7.23808 0.44064L7.23664 0.44304C7.22484 0.465024 7.21403 0.487527 7.20424 0.51048L7.20376 0.51144C7.19439 0.533707 7.18598 0.556368 7.17856 0.57936L7.17616 0.58536L7.1668 0.61776L7.16584 0.62208C7.1606 0.641435 7.15604 0.660967 7.15216 0.68064C7.14932 0.695848 7.14692 0.711134 7.14496 0.72648L7.14376 0.73368C7.13922 0.76894 7.1369 0.804449 7.1368 0.84V22.32H4.84C4.61722 22.32 4.40356 22.4085 4.24603 22.566C4.0885 22.7236 4 22.9372 4 23.16C4 23.3828 4.0885 23.5964 4.24603 23.754C4.40356 23.9115 4.61722 24 4.84 24H10.84C11.0628 24 11.2764 23.9115 11.434 23.754C11.5915 23.5964 11.68 23.3828 11.68 23.16C11.68 22.9372 11.5915 22.7236 11.434 22.566C11.2764 22.4085 11.0628 22.32 10.84 22.32H8.8168V10.9855L19.1181 6.40728C19.7829 6.1116 19.7829 5.16792 19.1181 4.87224L8.31808 0.07224C8.30267 0.0655333 8.28706 0.0592904 8.27128 0.05352L8.2708 0.0528L8.2696 0.05256C8.24619 0.0439858 8.2224 0.0364584 8.19832 0.03C8.17402 0.0232975 8.14944 0.0176918 8.12464 0.0132C8.08744 0.00659311 8.04983 0.00250382 8.01208 0.00096C8.00033 0.000392957 7.98857 7.2886e-05 7.9768 0ZM8.8168 2.1324L16.7087 5.64L8.8168 9.14712V2.1324Z" fill="#961F16"/>
</g>
<defs>
<clipPath id="clip0_583_9345">
<rect width="24" height="24" fill="white"/>
</clipPath>
</defs>
</svg>
