<svg width="51" height="56" viewBox="0 0 51 56" fill="none" xmlns="http://www.w3.org/2000/svg">
<path d="M9.875 39.0588C9.875 41.3999 11.2773 43.3154 13 43.3154C13.377 43.3062 13.7484 43.2135 14.0916 43.043C14.4347 42.8725 14.7425 42.6278 14.9961 42.3236C15.284 42.0041 15.6758 41.821 16.0866 41.814C16.4975 41.807 16.8943 41.9767 17.1912 42.2862C17.4881 42.5957 17.6612 43.0203 17.6729 43.4678C17.6846 43.9154 17.5341 44.35 17.2539 44.6775C16.7098 45.3157 16.0519 45.8261 15.3204 46.1774C14.589 46.5287 13.7994 46.7136 13 46.7207C9.55273 46.7207 6.75 43.2835 6.75 39.0588C6.75 34.8341 9.55273 31.3969 13 31.3969C13.7994 31.404 14.589 31.5889 15.3204 31.9402C16.0519 32.2915 16.7098 32.8019 17.2539 33.4401C17.5341 33.7676 17.6846 34.2022 17.6729 34.6498C17.6612 35.0973 17.4881 35.5219 17.1912 35.8314C16.8943 36.1409 16.4975 36.3106 16.0866 36.3036C15.6758 36.2966 15.284 36.1135 14.9961 35.794C14.7425 35.4898 14.4347 35.2451 14.0916 35.0746C13.7484 34.9041 13.377 34.8114 13 34.8022C11.2773 34.8022 9.875 36.7177 9.875 39.0588ZM25.4219 37.2093C24.6406 36.9624 23.832 36.7092 23.3809 36.392C23.1367 36.2197 23.1406 36.1792 23.1621 35.9877C23.1655 35.833 23.2027 35.6815 23.2707 35.5456C23.3386 35.4098 23.4353 35.2935 23.5527 35.2066C24.4512 34.5426 26.5488 34.8384 27.4238 35.0874C27.8248 35.2045 28.252 35.1433 28.6115 34.9172C28.971 34.6911 29.2333 34.3186 29.3408 33.8817C29.4483 33.4448 29.3921 32.9793 29.1846 32.5876C28.9771 32.1958 28.6353 31.9099 28.2344 31.7928C27.8203 31.6757 24.1328 30.6818 21.8203 32.3802C21.3313 32.7379 20.9204 33.2082 20.6166 33.758C20.3129 34.3079 20.1237 34.9237 20.0625 35.562C19.6719 38.9417 22.7285 39.9059 24.5547 40.4805C26.9102 41.2233 27.1172 41.5276 27.0508 42.0959C26.9902 42.6088 26.8047 42.8067 26.6328 42.9323C25.7344 43.5835 23.6699 43.2643 22.8145 43.0089C22.4146 42.8873 21.9867 42.9437 21.625 43.1658C21.2633 43.388 20.9974 43.7575 20.8857 44.1933C20.7741 44.6291 20.8259 45.0953 21.0297 45.4894C21.2336 45.8836 21.5728 46.1734 21.9727 46.295C22.9414 46.5714 23.9381 46.7144 24.9395 46.7207C26.0762 46.7207 27.3418 46.5078 28.3555 45.7714C28.8558 45.4092 29.2762 44.9306 29.5866 44.3701C29.8969 43.8097 30.0895 43.1813 30.1504 42.53C30.5781 38.846 27.3535 37.818 25.4219 37.2093ZM41.6504 31.497C41.4571 31.4216 41.2521 31.3884 41.0471 31.3994C40.8421 31.4104 40.6411 31.4652 40.4555 31.5609C40.27 31.6566 40.1035 31.7911 39.9657 31.9569C39.8279 32.1227 39.7214 32.3164 39.6523 32.5271L37.2188 39.9548L34.7832 32.5271C34.6439 32.1017 34.3552 31.7542 33.9806 31.5608C33.6061 31.3674 33.1764 31.3441 32.7861 31.4959C32.3958 31.6477 32.0768 31.9623 31.8994 32.3704C31.7219 32.7786 31.7005 33.2468 31.8398 33.6721L35.7461 45.5905C35.8544 45.9214 36.054 46.2077 36.3174 46.4101C36.5809 46.6125 36.8954 46.7211 37.2178 46.7211C37.5401 46.7211 37.8546 46.6125 38.1181 46.4101C38.3816 46.2077 38.5811 45.9214 38.6895 45.5905L42.5957 33.6721C42.7348 33.247 42.7134 32.7792 42.5362 32.3713C42.3589 31.9635 42.0403 31.649 41.6504 31.497ZM42.6875 19.4785V24.5864C42.6875 25.038 42.5229 25.471 42.2299 25.7903C41.9368 26.1097 41.5394 26.289 41.125 26.289C40.7106 26.289 40.3132 26.1097 40.0201 25.7903C39.7271 25.471 39.5625 25.038 39.5625 24.5864V21.1811H30.1875C29.7731 21.1811 29.3757 21.0017 29.0826 20.6824C28.7896 20.3631 28.625 19.9301 28.625 19.4785V9.26269H11.4375V24.5864C11.4375 25.038 11.2729 25.471 10.9799 25.7903C10.6868 26.1097 10.2894 26.289 9.875 26.289C9.4606 26.289 9.06317 26.1097 8.77015 25.7903C8.47712 25.471 8.3125 25.038 8.3125 24.5864V9.26269C8.3125 8.35956 8.64174 7.49341 9.22779 6.8548C9.81384 6.21619 10.6087 5.85742 11.4375 5.85742H30.1875C30.3928 5.85725 30.596 5.90114 30.7857 5.98659C30.9754 6.07204 31.1478 6.19738 31.293 6.35544L42.2305 18.2739C42.3755 18.4321 42.4905 18.62 42.569 18.8266C42.6474 19.0333 42.6877 19.2548 42.6875 19.4785ZM37.3535 17.7759L31.75 11.6698V17.7759H37.3535Z" fill="#9B1AD6"/>
</svg>
